<svg width="391" height="74" viewBox="0 0 391 74" fill="none" xmlns="http://www.w3.org/2000/svg">
<path d="M13.2368 56V22.226H1.94172V14.8257H32.8224V22.226H21.4717V56H13.2368ZM83.1018 56.2782C79.8004 56.2782 77.1668 55.8516 75.2008 54.9985C73.2348 54.1082 71.8067 52.5503 70.9164 50.3246C70.0633 48.099 69.6367 45.0202 69.6367 41.0882C69.6367 37.045 70.0447 33.9106 70.8608 31.6849C71.6769 29.4593 73.0493 27.9013 74.9782 27.0111C76.9071 26.1208 79.5222 25.6757 82.8236 25.6757C85.7911 25.6757 88.1651 25.9725 89.9456 26.566C91.7261 27.1595 93.0059 28.1981 93.7848 29.6819C94.6009 31.1656 95.0089 33.2614 95.0089 35.9693C95.0089 37.9723 94.6009 39.5674 93.7848 40.7544C93.0059 41.9043 91.8931 42.7389 90.4464 43.2582C88.9997 43.7405 87.2934 43.9816 85.3274 43.9816H77.8159C77.8901 45.5024 78.1127 46.7265 78.4836 47.6539C78.8916 48.5441 79.615 49.1933 80.6536 49.6013C81.7293 49.9722 83.2687 50.1577 85.2718 50.1577H94.0074V54.9985C92.5607 55.2952 90.9657 55.592 89.2223 55.8887C87.516 56.1484 85.4758 56.2782 83.1018 56.2782ZM77.7046 39.0852H84.4928C85.6056 39.0852 86.4217 38.8626 86.941 38.4175C87.4603 37.9724 87.72 37.1748 87.72 36.0249C87.72 34.9492 87.5531 34.096 87.2192 33.4654C86.8854 32.7977 86.3661 32.3341 85.6613 32.0744C84.9565 31.7777 84.0106 31.6293 82.8236 31.6293C81.5624 31.6293 80.5609 31.8519 79.819 32.297C79.0771 32.705 78.5392 33.4469 78.2054 34.5226C77.8715 35.5983 77.7046 37.1192 77.7046 39.0852ZM142.196 56.3338C139.933 56.3338 138.097 55.6662 136.687 54.3308C135.278 52.9954 134.573 51.1407 134.573 48.7667V46.0959C134.573 43.8332 135.371 41.9785 136.966 40.5318C138.561 39.0481 141.046 38.3062 144.422 38.3062H152.044V36.2475C152.044 35.3201 151.877 34.5597 151.544 33.9662C151.21 33.3356 150.579 32.8905 149.652 32.6308C148.762 32.3341 147.389 32.1857 145.534 32.1857H136.576V27.4006C138.023 26.9555 139.692 26.566 141.584 26.2321C143.513 25.8983 145.831 25.7314 148.539 25.7314C151.024 25.7314 153.139 26.0281 154.882 26.6216C156.663 27.2151 157.998 28.2352 158.888 29.6819C159.816 31.1285 160.279 33.1316 160.279 35.6911V56H153.769L152.434 52.8285C152.174 53.1252 151.729 53.4591 151.098 53.83C150.468 54.2009 149.689 54.5904 148.762 54.9985C147.871 55.3694 146.851 55.6847 145.701 55.9444C144.588 56.204 143.42 56.3338 142.196 56.3338ZM146.369 50.6028C146.74 50.6028 147.148 50.5657 147.593 50.4916C148.075 50.3803 148.558 50.269 149.04 50.1577C149.559 50.0093 150.023 49.8795 150.431 49.7682C150.876 49.6198 151.228 49.49 151.488 49.3787C151.785 49.2675 151.97 49.1933 152.044 49.1562V42.2011L147.037 42.5349C145.59 42.6462 144.514 43.0171 143.809 43.6477C143.142 44.2783 142.808 45.1315 142.808 46.2072V47.4313C142.808 48.1732 142.956 48.7852 143.253 49.2675C143.587 49.7497 144.014 50.1021 144.533 50.3246C145.089 50.5101 145.701 50.6028 146.369 50.6028ZM178.073 56C175.774 56 173.9 55.6662 172.454 54.9985C171.044 54.3308 170.024 53.218 169.393 51.66C168.763 50.1021 168.485 48.0063 168.559 45.3726L168.837 32.7421H164.163V27.4562L169.115 26.1208L170.228 17.7747H176.738V26.1208H183.749V32.7421H176.738V45.3169C176.738 46.133 176.812 46.8007 176.961 47.32C177.109 47.8393 177.313 48.2659 177.573 48.5998C177.869 48.8965 178.203 49.1191 178.574 49.2675C178.945 49.4158 179.316 49.5086 179.687 49.5457L183.471 49.8795V56H178.073ZM201.202 56.2782C197.9 56.2782 195.267 55.8516 193.301 54.9985C191.335 54.1082 189.907 52.5503 189.016 50.3246C188.163 48.099 187.737 45.0202 187.737 41.0882C187.737 37.045 188.145 33.9106 188.961 31.6849C189.777 29.4593 191.149 27.9013 193.078 27.0111C195.007 26.1208 197.622 25.6757 200.924 25.6757C203.891 25.6757 206.265 25.9725 208.046 26.566C209.826 27.1595 211.106 28.1981 211.885 29.6819C212.701 31.1656 213.109 33.2614 213.109 35.9693C213.109 37.9723 212.701 39.5674 211.885 40.7544C211.106 41.9043 209.993 42.7389 208.546 43.2582C207.1 43.7405 205.393 43.9816 203.427 43.9816H195.916C195.99 45.5024 196.213 46.7265 196.584 47.6539C196.992 48.5441 197.715 49.1933 198.754 49.6013C199.829 49.9722 201.369 50.1577 203.372 50.1577H212.107V54.9985C210.661 55.2952 209.066 55.592 207.322 55.8887C205.616 56.1484 203.576 56.2782 201.202 56.2782ZM195.805 39.0852H202.593C203.706 39.0852 204.522 38.8626 205.041 38.4175C205.56 37.9724 205.82 37.1748 205.82 36.0249C205.82 34.9492 205.653 34.096 205.319 33.4654C204.985 32.7977 204.466 32.3341 203.761 32.0744C203.056 31.7777 202.111 31.6293 200.924 31.6293C199.662 31.6293 198.661 31.8519 197.919 32.297C197.177 32.705 196.639 33.4469 196.305 34.5226C195.972 35.5983 195.805 37.1192 195.805 39.0852ZM219.18 56V24.229C219.18 22.4114 219.458 20.8906 220.014 19.6665C220.571 18.4424 221.313 17.478 222.24 16.7732C223.167 16.0684 224.188 15.5676 225.3 15.2709C226.413 14.9741 227.507 14.8257 228.583 14.8257C229.919 14.8257 231.569 14.8443 233.535 14.8814C235.538 14.8814 237.653 14.937 239.878 15.0483C242.141 15.1596 244.311 15.3265 246.388 15.5491V22.4485H230.864C229.715 22.4485 228.843 22.7638 228.249 23.3944C227.693 23.9879 227.415 24.7855 227.415 25.787V32.7977L243.717 33.2429V39.7529L227.415 40.198V56H219.18Z" fill="white"/>
<path d="M37.1576 56V13.6016H45.3925V29.1811C46.4682 28.2908 47.8592 27.4748 49.5655 26.7329C51.309 25.991 53.0895 25.6201 54.9071 25.6201C57.1698 25.6201 58.9689 26.0652 60.3042 26.9555C61.6396 27.8457 62.6041 29.0884 63.1976 30.6834C63.7911 32.2784 64.0878 34.1331 64.0878 36.2475V56H55.853V37.3047C55.853 36.3402 55.6675 35.5427 55.2966 34.9121C54.9256 34.2815 54.4249 33.8178 53.7943 33.5211C53.1637 33.1872 52.4218 33.0203 51.5686 33.0203C50.7896 33.0203 50.0292 33.1316 49.2873 33.3542C48.5826 33.5396 47.8963 33.7993 47.2286 34.1331C46.598 34.467 45.986 34.8379 45.3925 35.2459V56H37.1576Z" fill="#FECF2E"/>
<path d="M101.08 56V14.8257H118.106C119.738 14.8257 121.259 15.0298 122.669 15.4378C124.078 15.8087 125.321 16.4764 126.396 17.4409C127.472 18.4053 128.307 19.7407 128.9 21.447C129.531 23.1533 129.846 25.3419 129.846 28.0126C129.846 29.9044 129.661 31.518 129.29 32.8534C128.919 34.1888 128.418 35.283 127.788 36.1362C127.194 36.9894 126.508 37.6756 125.729 38.1949C124.95 38.7142 124.152 39.1408 123.336 39.4747L131.015 56H122.613L115.992 40.7544C115.547 40.7544 115.027 40.7544 114.434 40.7544C113.877 40.7173 113.302 40.6988 112.709 40.6988C112.115 40.6988 111.522 40.6988 110.928 40.6988C110.335 40.6988 109.797 40.6802 109.315 40.6431V56H101.08ZM109.315 34.1331H116.659C117.401 34.1331 118.069 34.0404 118.662 33.8549C119.256 33.6695 119.775 33.3542 120.22 32.909C120.665 32.4268 120.999 31.7962 121.222 31.0172C121.482 30.2383 121.611 29.2367 121.611 28.0126C121.611 26.8627 121.482 25.9168 121.222 25.1749C120.999 24.396 120.665 23.8025 120.22 23.3944C119.775 22.9493 119.256 22.6526 118.662 22.5042C118.069 22.3187 117.401 22.226 116.659 22.226H109.315V34.1331Z" fill="#2183FE"/>
<path d="M273.837 56V26.1208H280.625L282.072 29.1811C283.185 28.2537 284.576 27.4377 286.245 26.7329C287.952 25.991 289.695 25.6201 291.475 25.6201C293.924 25.6201 295.815 26.1023 297.151 27.0667C298.486 28.0312 299.414 29.3295 299.933 30.9616C300.489 32.5566 300.767 34.3371 300.767 36.3031V56H292.533V37.3603C292.533 36.3959 292.347 35.5983 291.976 34.9677C291.642 34.3371 291.16 33.8549 290.53 33.5211C289.899 33.1872 289.139 33.0203 288.248 33.0203C287.469 33.0203 286.709 33.113 285.967 33.2985C285.262 33.484 284.576 33.7436 283.908 34.0775C283.278 34.4113 282.666 34.8008 282.072 35.2459V56H273.837ZM316.999 56.3338C314.662 56.3338 312.697 55.8516 311.101 54.8872C309.506 53.8856 308.301 52.2906 307.485 50.1021C306.706 47.8764 306.316 44.9646 306.316 41.3664C306.316 37.6571 306.65 34.6524 307.318 32.3526C308.023 30.0528 309.191 28.365 310.823 27.2893C312.455 26.2136 314.7 25.6757 317.556 25.6757C318.928 25.6757 320.282 25.8241 321.618 26.1208C322.953 26.3805 324.14 26.6958 325.179 27.0667V13.546H333.469V56H326.514L325.179 53.1623C324.548 53.7558 323.769 54.2937 322.842 54.7759C321.951 55.2581 321.006 55.6476 320.004 55.9444C319.002 56.204 318.001 56.3338 316.999 56.3338ZM319.893 49.7126C321.006 49.7126 322.007 49.5271 322.897 49.1562C323.825 48.7852 324.585 48.4143 325.179 48.0434V33.0203C324.437 32.7607 323.658 32.501 322.842 32.2413C322.026 31.9817 321.154 31.8519 320.227 31.8519C318.854 31.8519 317.741 32.093 316.888 32.5752C316.072 33.0574 315.479 33.9662 315.108 35.3016C314.737 36.5999 314.551 38.4917 314.551 40.977C314.551 43.2768 314.718 45.0758 315.052 46.3741C315.423 47.6353 315.998 48.507 316.777 48.9892C317.556 49.4715 318.594 49.7126 319.893 49.7126ZM352.499 56.2782C349.197 56.2782 346.564 55.8516 344.598 54.9985C342.632 54.1082 341.204 52.5503 340.313 50.3246C339.46 48.099 339.034 45.0202 339.034 41.0882C339.034 37.045 339.442 33.9106 340.258 31.6849C341.074 29.4593 342.446 27.9013 344.375 27.0111C346.304 26.1208 348.919 25.6757 352.221 25.6757C355.188 25.6757 357.562 25.9725 359.343 26.566C361.123 27.1595 362.403 28.1981 363.182 29.6819C363.998 31.1656 364.406 33.2614 364.406 35.9693C364.406 37.9723 363.998 39.5674 363.182 40.7544C362.403 41.9043 361.29 42.7389 359.843 43.2582C358.397 43.7405 356.69 43.9816 354.724 43.9816H347.213C347.287 45.5024 347.51 46.7265 347.881 47.6539C348.289 48.5441 349.012 49.1933 350.051 49.6013C351.126 49.9722 352.666 50.1577 354.669 50.1577H363.404V54.9985C361.958 55.2952 360.363 55.592 358.619 55.8887C356.913 56.1484 354.873 56.2782 352.499 56.2782ZM347.102 39.0852H353.89C355.003 39.0852 355.819 38.8626 356.338 38.4175C356.857 37.9724 357.117 37.1748 357.117 36.0249C357.117 34.9492 356.95 34.096 356.616 33.4654C356.282 32.7977 355.763 32.3341 355.058 32.0744C354.353 31.7777 353.408 31.6293 352.221 31.6293C350.959 31.6293 349.958 31.8519 349.216 32.297C348.474 32.705 347.936 33.4469 347.602 34.5226C347.268 35.5983 347.102 37.1192 347.102 39.0852ZM370.087 56V26.1208H376.43L378.322 30.6834C379.398 29.3109 380.603 28.1425 381.939 27.178C383.311 26.2136 384.925 25.7314 386.78 25.7314C387.188 25.7314 387.596 25.7499 388.004 25.787C388.449 25.8241 388.857 25.8983 389.228 26.0096V34.467C388.671 34.3928 388.078 34.3371 387.447 34.3001C386.854 34.2259 386.279 34.1888 385.722 34.1888C384.647 34.1888 383.664 34.3186 382.773 34.5783C381.92 34.8008 381.123 35.1532 380.381 35.6354C379.676 36.0806 378.99 36.6741 378.322 37.4159V56H370.087Z" fill="#8000FF"/>
<circle cx="258.556" cy="32.7061" r="7.84301" fill="#FECF2E" stroke="#8000FF" stroke-width="4.90188"/>
<line x1="261.44" y1="41.7841" x2="267.535" y2="56.578" stroke="#8000FF" stroke-width="5"/>
</svg>
