<svg width="390" height="74" viewBox="0 0 390 74" fill="none" xmlns="http://www.w3.org/2000/svg">
<path d="M13.0085 56V22.226H1.7134V14.8257H32.5941V22.226H21.2434V56H13.0085ZM36.9293 56V13.6016H45.1642V29.1811C46.2399 28.2908 47.6309 27.4748 49.3372 26.7329C51.0806 25.991 52.8612 25.6201 54.6788 25.6201C56.9415 25.6201 58.7405 26.0652 60.0759 26.9555C61.4113 27.8457 62.3757 29.0884 62.9692 30.6834C63.5628 32.2784 63.8595 34.1331 63.8595 36.2475V56H55.6246V37.3047C55.6246 36.3402 55.4392 35.5427 55.0682 34.9121C54.6973 34.2815 54.1965 33.8178 53.5659 33.5211C52.9353 33.1872 52.1935 33.0203 51.3403 33.0203C50.5613 33.0203 49.8009 33.1316 49.059 33.3542C48.3542 33.5396 47.668 33.7993 47.0003 34.1331C46.3697 34.467 45.7577 34.8379 45.1642 35.2459V56H36.9293ZM82.8735 56.2782C79.5721 56.2782 76.9384 55.8516 74.9725 54.9985C73.0065 54.1082 71.5784 52.5503 70.6881 50.3246C69.835 48.099 69.4084 45.0202 69.4084 41.0882C69.4084 37.045 69.8164 33.9106 70.6325 31.6849C71.4485 29.4593 72.821 27.9013 74.7499 27.0111C76.6788 26.1208 79.2939 25.6757 82.5953 25.6757C85.5628 25.6757 87.9368 25.9725 89.7173 26.566C91.4978 27.1595 92.7776 28.1981 93.5565 29.6819C94.3726 31.1656 94.7806 33.2614 94.7806 35.9693C94.7806 37.9723 94.3726 39.5674 93.5565 40.7544C92.7776 41.9043 91.6647 42.7389 90.2181 43.2582C88.7714 43.7405 87.0651 43.9816 85.0991 43.9816H77.5876C77.6618 45.5024 77.8843 46.7265 78.2553 47.6539C78.6633 48.5441 79.3866 49.1933 80.4253 49.6013C81.501 49.9722 83.0404 50.1577 85.0435 50.1577H93.7791V54.9985C92.3324 55.2952 90.7374 55.592 88.994 55.8887C87.2876 56.1484 85.2475 56.2782 82.8735 56.2782ZM77.4763 39.0852H84.2645C85.3773 39.0852 86.1934 38.8626 86.7127 38.4175C87.232 37.9724 87.4917 37.1748 87.4917 36.0249C87.4917 34.9492 87.3247 34.096 86.9909 33.4654C86.6571 32.7977 86.1377 32.3341 85.433 32.0744C84.7282 31.7777 83.7823 31.6293 82.5953 31.6293C81.3341 31.6293 80.3325 31.8519 79.5907 32.297C78.8488 32.705 78.3109 33.4469 77.9771 34.5226C77.6432 35.5983 77.4763 37.1192 77.4763 39.0852ZM100.852 56V14.8257H117.878C119.51 14.8257 121.031 15.0298 122.44 15.4378C123.85 15.8087 125.092 16.4764 126.168 17.4409C127.244 18.4053 128.079 19.7407 128.672 21.447C129.303 23.1533 129.618 25.3419 129.618 28.0126C129.618 29.9044 129.432 31.518 129.062 32.8534C128.691 34.1888 128.19 35.283 127.559 36.1362C126.966 36.9894 126.279 37.6756 125.5 38.1949C124.722 38.7142 123.924 39.1408 123.108 39.4747L130.786 56H122.385L115.763 40.7544C115.318 40.7544 114.799 40.7544 114.205 40.7544C113.649 40.7173 113.074 40.6988 112.481 40.6988C111.887 40.6988 111.294 40.6988 110.7 40.6988C110.107 40.6988 109.569 40.6802 109.086 40.6431V56H100.852ZM109.086 34.1331H116.431C117.173 34.1331 117.841 34.0404 118.434 33.8549C119.028 33.6695 119.547 33.3542 119.992 32.909C120.437 32.4268 120.771 31.7962 120.994 31.0172C121.253 30.2383 121.383 29.2367 121.383 28.0126C121.383 26.8627 121.253 25.9168 120.994 25.1749C120.771 24.396 120.437 23.8025 119.992 23.3944C119.547 22.9493 119.028 22.6526 118.434 22.5042C117.841 22.3187 117.173 22.226 116.431 22.226H109.086V34.1331ZM141.424 56.3338C139.161 56.3338 137.325 55.6662 135.916 54.3308C134.506 52.9954 133.801 51.1407 133.801 48.7667V46.0959C133.801 43.8332 134.599 41.9785 136.194 40.5318C137.789 39.0481 140.274 38.3062 143.65 38.3062H151.273V36.2475C151.273 35.3201 151.106 34.5597 150.772 33.9662C150.438 33.3356 149.807 32.8905 148.88 32.6308C147.99 32.3341 146.617 32.1857 144.763 32.1857H135.804V27.4006C137.251 26.9555 138.92 26.566 140.812 26.2321C142.741 25.8983 145.059 25.7314 147.767 25.7314C150.253 25.7314 152.367 26.0281 154.11 26.6216C155.891 27.2151 157.226 28.2352 158.116 29.6819C159.044 31.1285 159.508 33.1316 159.508 35.6911V56H152.998L151.662 52.8285C151.402 53.1252 150.957 53.4591 150.327 53.83C149.696 54.2009 148.917 54.5904 147.99 54.9985C147.1 55.3694 146.08 55.6847 144.93 55.9444C143.817 56.204 142.648 56.3338 141.424 56.3338ZM145.597 50.6028C145.968 50.6028 146.376 50.5657 146.821 50.4916C147.304 50.3803 147.786 50.269 148.268 50.1577C148.787 50.0093 149.251 49.8795 149.659 49.7682C150.104 49.6198 150.457 49.49 150.716 49.3787C151.013 49.2675 151.198 49.1933 151.273 49.1562V42.2011L146.265 42.5349C144.818 42.6462 143.743 43.0171 143.038 43.6477C142.37 44.2783 142.036 45.1315 142.036 46.2072V47.4313C142.036 48.1732 142.185 48.7852 142.481 49.2675C142.815 49.7497 143.242 50.1021 143.761 50.3246C144.318 50.5101 144.93 50.6028 145.597 50.6028ZM177.302 56C175.002 56 173.129 55.6662 171.682 54.9985C170.272 54.3308 169.252 53.218 168.622 51.66C167.991 50.1021 167.713 48.0063 167.787 45.3726L168.065 32.7421H163.391V27.4562L168.344 26.1208L169.456 17.7747H175.966V26.1208H182.977V32.7421H175.966V45.3169C175.966 46.133 176.041 46.8007 176.189 47.32C176.337 47.8393 176.541 48.2659 176.801 48.5998C177.098 48.8965 177.432 49.1191 177.802 49.2675C178.173 49.4158 178.544 49.5086 178.915 49.5457L182.699 49.8795V56H177.302ZM200.43 56.2782C197.129 56.2782 194.495 55.8516 192.529 54.9985C190.563 54.1082 189.135 52.5503 188.245 50.3246C187.392 48.099 186.965 45.0202 186.965 41.0882C186.965 37.045 187.373 33.9106 188.189 31.6849C189.005 29.4593 190.378 27.9013 192.307 27.0111C194.235 26.1208 196.851 25.6757 200.152 25.6757C203.119 25.6757 205.493 25.9725 207.274 26.566C209.054 27.1595 210.334 28.1981 211.113 29.6819C211.929 31.1656 212.337 33.2614 212.337 35.9693C212.337 37.9723 211.929 39.5674 211.113 40.7544C210.334 41.9043 209.221 42.7389 207.775 43.2582C206.328 43.7405 204.622 43.9816 202.656 43.9816H195.144C195.218 45.5024 195.441 46.7265 195.812 47.6539C196.22 48.5441 196.943 49.1933 197.982 49.6013C199.058 49.9722 200.597 50.1577 202.6 50.1577H211.336V54.9985C209.889 55.2952 208.294 55.592 206.551 55.8887C204.844 56.1484 202.804 56.2782 200.43 56.2782ZM195.033 39.0852H201.821C202.934 39.0852 203.75 38.8626 204.269 38.4175C204.789 37.9724 205.048 37.1748 205.048 36.0249C205.048 34.9492 204.881 34.096 204.548 33.4654C204.214 32.7977 203.694 32.3341 202.99 32.0744C202.285 31.7777 201.339 31.6293 200.152 31.6293C198.891 31.6293 197.889 31.8519 197.147 32.297C196.405 32.705 195.868 33.4469 195.534 34.5226C195.2 35.5983 195.033 37.1192 195.033 39.0852ZM218.408 56V24.229C218.408 22.4114 218.686 20.8906 219.243 19.6665C219.799 18.4424 220.541 17.478 221.468 16.7732C222.396 16.0684 223.416 15.5676 224.529 15.2709C225.641 14.9741 226.736 14.8257 227.811 14.8257C229.147 14.8257 230.798 14.8443 232.764 14.8814C234.767 14.8814 236.881 14.937 239.107 15.0483C241.369 15.1596 243.539 15.3265 245.617 15.5491V22.4485H230.093C228.943 22.4485 228.071 22.7638 227.478 23.3944C226.921 23.9879 226.643 24.7855 226.643 25.787V32.7977L242.946 33.2429V39.7529L226.643 40.198V56H218.408Z" fill="white"/>
<path d="M272.837 56V26.1208H279.625L281.072 29.1811C282.185 28.2537 283.576 27.4377 285.245 26.7329C286.952 25.991 288.695 25.6201 290.475 25.6201C292.924 25.6201 294.815 26.1023 296.151 27.0667C297.486 28.0312 298.414 29.3295 298.933 30.9616C299.489 32.5566 299.767 34.3371 299.767 36.3031V56H291.533V37.3603C291.533 36.3959 291.347 35.5983 290.976 34.9677C290.642 34.3371 290.16 33.8549 289.53 33.5211C288.899 33.1872 288.139 33.0203 287.248 33.0203C286.469 33.0203 285.709 33.113 284.967 33.2985C284.262 33.484 283.576 33.7436 282.908 34.0775C282.278 34.4113 281.666 34.8008 281.072 35.2459V56H272.837ZM315.999 56.3338C313.662 56.3338 311.697 55.8516 310.101 54.8872C308.506 53.8856 307.301 52.2906 306.485 50.1021C305.706 47.8764 305.316 44.9646 305.316 41.3664C305.316 37.6571 305.65 34.6524 306.318 32.3526C307.023 30.0528 308.191 28.365 309.823 27.2893C311.455 26.2136 313.7 25.6757 316.556 25.6757C317.928 25.6757 319.282 25.8241 320.618 26.1208C321.953 26.3805 323.14 26.6958 324.179 27.0667V13.546H332.469V56H325.514L324.179 53.1623C323.548 53.7558 322.769 54.2937 321.842 54.7759C320.951 55.2581 320.006 55.6476 319.004 55.9444C318.002 56.204 317.001 56.3338 315.999 56.3338ZM318.893 49.7126C320.006 49.7126 321.007 49.5271 321.897 49.1562C322.825 48.7852 323.585 48.4143 324.179 48.0434V33.0203C323.437 32.7607 322.658 32.501 321.842 32.2413C321.026 31.9817 320.154 31.8519 319.227 31.8519C317.854 31.8519 316.741 32.093 315.888 32.5752C315.072 33.0574 314.479 33.9662 314.108 35.3016C313.737 36.5999 313.551 38.4917 313.551 40.977C313.551 43.2768 313.718 45.0758 314.052 46.3741C314.423 47.6353 314.998 48.507 315.777 48.9892C316.556 49.4715 317.594 49.7126 318.893 49.7126ZM351.499 56.2782C348.197 56.2782 345.564 55.8516 343.598 54.9985C341.632 54.1082 340.204 52.5503 339.313 50.3246C338.46 48.099 338.034 45.0202 338.034 41.0882C338.034 37.045 338.442 33.9106 339.258 31.6849C340.074 29.4593 341.446 27.9013 343.375 27.0111C345.304 26.1208 347.919 25.6757 351.221 25.6757C354.188 25.6757 356.562 25.9725 358.343 26.566C360.123 27.1595 361.403 28.1981 362.182 29.6819C362.998 31.1656 363.406 33.2614 363.406 35.9693C363.406 37.9723 362.998 39.5674 362.182 40.7544C361.403 41.9043 360.29 42.7389 358.843 43.2582C357.397 43.7405 355.69 43.9816 353.724 43.9816H346.213C346.287 45.5024 346.51 46.7265 346.881 47.6539C347.289 48.5441 348.012 49.1933 349.051 49.6013C350.126 49.9722 351.666 50.1577 353.669 50.1577H362.404V54.9985C360.958 55.2952 359.363 55.592 357.619 55.8887C355.913 56.1484 353.873 56.2782 351.499 56.2782ZM346.102 39.0852H352.89C354.003 39.0852 354.819 38.8626 355.338 38.4175C355.857 37.9724 356.117 37.1748 356.117 36.0249C356.117 34.9492 355.95 34.096 355.616 33.4654C355.282 32.7977 354.763 32.3341 354.058 32.0744C353.353 31.7777 352.408 31.6293 351.221 31.6293C349.959 31.6293 348.958 31.8519 348.216 32.297C347.474 32.705 346.936 33.4469 346.602 34.5226C346.268 35.5983 346.102 37.1192 346.102 39.0852ZM369.087 56V26.1208H375.43L377.322 30.6834C378.398 29.3109 379.603 28.1425 380.939 27.178C382.311 26.2136 383.925 25.7314 385.78 25.7314C386.188 25.7314 386.596 25.7499 387.004 25.787C387.449 25.8241 387.857 25.8983 388.228 26.0096V34.467C387.671 34.3928 387.078 34.3371 386.447 34.3001C385.854 34.2259 385.279 34.1888 384.722 34.1888C383.647 34.1888 382.664 34.3186 381.773 34.5783C380.92 34.8008 380.123 35.1532 379.381 35.6354C378.676 36.0806 377.99 36.6741 377.322 37.4159V56H369.087Z" fill="#8000FF"/>
<circle cx="257.556" cy="32.7061" r="7.84301" stroke="#8000FF" stroke-width="4.90188"/>
<line x1="260.44" y1="41.7841" x2="266.535" y2="56.578" stroke="#8000FF" stroke-width="5"/>
</svg>
