<svg width="389" height="74" viewBox="0 0 389 74" fill="none" xmlns="http://www.w3.org/2000/svg">
<path d="M12.4538 56V22.226H1.15872V14.8257H32.0394V22.226H20.6887V56H12.4538ZM36.3746 56V13.6016H44.6095V29.1811C45.6852 28.2908 47.0762 27.4748 48.7825 26.7329C50.526 25.991 52.3065 25.6201 54.1241 25.6201C56.3868 25.6201 58.1859 26.0652 59.5212 26.9555C60.8566 27.8457 61.8211 29.0884 62.4146 30.6834C63.0081 32.2784 63.3048 34.1331 63.3048 36.2475V56H55.07V37.3047C55.07 36.3402 54.8845 35.5427 54.5136 34.9121C54.1426 34.2815 53.6418 33.8178 53.0112 33.5211C52.3807 33.1872 51.6388 33.0203 50.7856 33.0203C50.0066 33.0203 49.2462 33.1316 48.5043 33.3542C47.7996 33.5396 47.1133 33.7993 46.4456 34.1331C45.815 34.467 45.203 34.8379 44.6095 35.2459V56H36.3746ZM82.3188 56.2782C79.0174 56.2782 76.3838 55.8516 74.4178 54.9985C72.4518 54.1082 71.0237 52.5503 70.1334 50.3246C69.2803 48.099 68.8537 45.0202 68.8537 41.0882C68.8537 37.045 69.2617 33.9106 70.0778 31.6849C70.8939 29.4593 72.2663 27.9013 74.1952 27.0111C76.1241 26.1208 78.7392 25.6757 82.0406 25.6757C85.0081 25.6757 87.3821 25.9725 89.1626 26.566C90.9431 27.1595 92.2229 28.1981 93.0018 29.6819C93.8179 31.1656 94.2259 33.2614 94.2259 35.9693C94.2259 37.9723 93.8179 39.5674 93.0018 40.7544C92.2229 41.9043 91.11 42.7389 89.6634 43.2582C88.2167 43.7405 86.5104 43.9816 84.5444 43.9816H77.0329C77.1071 45.5024 77.3297 46.7265 77.7006 47.6539C78.1086 48.5441 78.832 49.1933 79.8706 49.6013C80.9463 49.9722 82.4857 50.1577 84.4888 50.1577H93.2244V54.9985C91.7777 55.2952 90.1827 55.592 88.4393 55.8887C86.733 56.1484 84.6928 56.2782 82.3188 56.2782ZM76.9216 39.0852H83.7098C84.8226 39.0852 85.6387 38.8626 86.158 38.4175C86.6773 37.9724 86.937 37.1748 86.937 36.0249C86.937 34.9492 86.7701 34.096 86.4362 33.4654C86.1024 32.7977 85.583 32.3341 84.8783 32.0744C84.1735 31.7777 83.2276 31.6293 82.0406 31.6293C80.7794 31.6293 79.7778 31.8519 79.036 32.297C78.2941 32.705 77.7562 33.4469 77.4224 34.5226C77.0885 35.5983 76.9216 37.1192 76.9216 39.0852ZM100.297 56V14.8257H117.323C118.955 14.8257 120.476 15.0298 121.886 15.4378C123.295 15.8087 124.538 16.4764 125.613 17.4409C126.689 18.4053 127.524 19.7407 128.117 21.447C128.748 23.1533 129.063 25.3419 129.063 28.0126C129.063 29.9044 128.878 31.518 128.507 32.8534C128.136 34.1888 127.635 35.283 127.005 36.1362C126.411 36.9894 125.725 37.6756 124.946 38.1949C124.167 38.7142 123.369 39.1408 122.553 39.4747L130.232 56H121.83L115.209 40.7544C114.764 40.7544 114.244 40.7544 113.651 40.7544C113.094 40.7173 112.519 40.6988 111.926 40.6988C111.332 40.6988 110.739 40.6988 110.145 40.6988C109.552 40.6988 109.014 40.6802 108.532 40.6431V56H100.297ZM108.532 34.1331H115.876C116.618 34.1331 117.286 34.0404 117.879 33.8549C118.473 33.6695 118.992 33.3542 119.437 32.909C119.882 32.4268 120.216 31.7962 120.439 31.0172C120.699 30.2383 120.828 29.2367 120.828 28.0126C120.828 26.8627 120.699 25.9168 120.439 25.1749C120.216 24.396 119.882 23.8025 119.437 23.3944C118.992 22.9493 118.473 22.6526 117.879 22.5042C117.286 22.3187 116.618 22.226 115.876 22.226H108.532V34.1331ZM140.87 56.3338C138.607 56.3338 136.771 55.6662 135.361 54.3308C133.952 52.9954 133.247 51.1407 133.247 48.7667V46.0959C133.247 43.8332 134.044 41.9785 135.639 40.5318C137.234 39.0481 139.72 38.3062 143.095 38.3062H150.718V36.2475C150.718 35.3201 150.551 34.5597 150.217 33.9662C149.883 33.3356 149.253 32.8905 148.325 32.6308C147.435 32.3341 146.063 32.1857 144.208 32.1857H135.25V27.4006C136.696 26.9555 138.366 26.566 140.257 26.2321C142.186 25.8983 144.505 25.7314 147.213 25.7314C149.698 25.7314 151.812 26.0281 153.556 26.6216C155.336 27.2151 156.672 28.2352 157.562 29.6819C158.489 31.1285 158.953 33.1316 158.953 35.6911V56H152.443L151.107 52.8285C150.848 53.1252 150.403 53.4591 149.772 53.83C149.141 54.2009 148.363 54.5904 147.435 54.9985C146.545 55.3694 145.525 55.6847 144.375 55.9444C143.262 56.204 142.094 56.3338 140.87 56.3338ZM145.043 50.6028C145.414 50.6028 145.822 50.5657 146.267 50.4916C146.749 50.3803 147.231 50.269 147.713 50.1577C148.233 50.0093 148.696 49.8795 149.104 49.7682C149.55 49.6198 149.902 49.49 150.162 49.3787C150.458 49.2675 150.644 49.1933 150.718 49.1562V42.2011L145.71 42.5349C144.264 42.6462 143.188 43.0171 142.483 43.6477C141.815 44.2783 141.482 45.1315 141.482 46.2072V47.4313C141.482 48.1732 141.63 48.7852 141.927 49.2675C142.261 49.7497 142.687 50.1021 143.206 50.3246C143.763 50.5101 144.375 50.6028 145.043 50.6028ZM176.747 56C174.447 56 172.574 55.6662 171.127 54.9985C169.718 54.3308 168.698 53.218 168.067 51.66C167.436 50.1021 167.158 48.0063 167.232 45.3726L167.511 32.7421H162.837V27.4562L167.789 26.1208L168.902 17.7747H175.412V26.1208H182.422V32.7421H175.412V45.3169C175.412 46.133 175.486 46.8007 175.634 47.32C175.783 47.8393 175.987 48.2659 176.246 48.5998C176.543 48.8965 176.877 49.1191 177.248 49.2675C177.619 49.4158 177.99 49.5086 178.361 49.5457L182.144 49.8795V56H176.747ZM199.875 56.2782C196.574 56.2782 193.94 55.8516 191.974 54.9985C190.008 54.1082 188.58 52.5503 187.69 50.3246C186.837 48.099 186.41 45.0202 186.41 41.0882C186.41 37.045 186.818 33.9106 187.634 31.6849C188.45 29.4593 189.823 27.9013 191.752 27.0111C193.681 26.1208 196.296 25.6757 199.597 25.6757C202.565 25.6757 204.939 25.9725 206.719 26.566C208.5 27.1595 209.779 28.1981 210.558 29.6819C211.375 31.1656 211.783 33.2614 211.783 35.9693C211.783 37.9723 211.375 39.5674 210.558 40.7544C209.779 41.9043 208.667 42.7389 207.22 43.2582C205.773 43.7405 204.067 43.9816 202.101 43.9816H194.59C194.664 45.5024 194.886 46.7265 195.257 47.6539C195.665 48.5441 196.389 49.1933 197.427 49.6013C198.503 49.9722 200.042 50.1577 202.045 50.1577H210.781V54.9985C209.334 55.2952 207.739 55.592 205.996 55.8887C204.29 56.1484 202.249 56.2782 199.875 56.2782ZM194.478 39.0852H201.266C202.379 39.0852 203.195 38.8626 203.715 38.4175C204.234 37.9724 204.494 37.1748 204.494 36.0249C204.494 34.9492 204.327 34.096 203.993 33.4654C203.659 32.7977 203.14 32.3341 202.435 32.0744C201.73 31.7777 200.784 31.6293 199.597 31.6293C198.336 31.6293 197.334 31.8519 196.593 32.297C195.851 32.705 195.313 33.4469 194.979 34.5226C194.645 35.5983 194.478 37.1192 194.478 39.0852ZM217.853 56V24.229C217.853 22.4114 218.132 20.8906 218.688 19.6665C219.244 18.4424 219.986 17.478 220.914 16.7732C221.841 16.0684 222.861 15.5676 223.974 15.2709C225.087 14.9741 226.181 14.8257 227.257 14.8257C228.592 14.8257 230.243 14.8443 232.209 14.8814C234.212 14.8814 236.326 14.937 238.552 15.0483C240.815 15.1596 242.985 15.3265 245.062 15.5491V22.4485H229.538C228.388 22.4485 227.516 22.7638 226.923 23.3944C226.367 23.9879 226.088 24.7855 226.088 25.787V32.7977L242.391 33.2429V39.7529L226.088 40.198V56H217.853Z" fill="black"/>
<path d="M272.283 56V26.1208H279.071L280.517 29.1811C281.63 28.2537 283.021 27.4377 284.691 26.7329C286.397 25.991 288.14 25.6201 289.921 25.6201C292.369 25.6201 294.261 26.1023 295.596 27.0667C296.932 28.0312 297.859 29.3295 298.378 30.9616C298.935 32.5566 299.213 34.3371 299.213 36.3031V56H290.978V37.3603C290.978 36.3959 290.792 35.5983 290.422 34.9677C290.088 34.3371 289.605 33.8549 288.975 33.5211C288.344 33.1872 287.584 33.0203 286.694 33.0203C285.915 33.0203 285.154 33.113 284.412 33.2985C283.708 33.484 283.021 33.7436 282.354 34.0775C281.723 34.4113 281.111 34.8008 280.517 35.2459V56H272.283ZM315.445 56.3338C313.108 56.3338 311.142 55.8516 309.547 54.8872C307.952 53.8856 306.746 52.2906 305.93 50.1021C305.151 47.8764 304.762 44.9646 304.762 41.3664C304.762 37.6571 305.096 34.6524 305.763 32.3526C306.468 30.0528 307.636 28.365 309.269 27.2893C310.901 26.2136 313.145 25.6757 316.001 25.6757C317.374 25.6757 318.728 25.8241 320.063 26.1208C321.398 26.3805 322.585 26.6958 323.624 27.0667V13.546H331.914V56H324.959L323.624 53.1623C322.993 53.7558 322.214 54.2937 321.287 54.7759C320.397 55.2581 319.451 55.6476 318.449 55.9444C317.448 56.204 316.446 56.3338 315.445 56.3338ZM318.338 49.7126C319.451 49.7126 320.452 49.5271 321.343 49.1562C322.27 48.7852 323.03 48.4143 323.624 48.0434V33.0203C322.882 32.7607 322.103 32.501 321.287 32.2413C320.471 31.9817 319.599 31.8519 318.672 31.8519C317.299 31.8519 316.187 32.093 315.333 32.5752C314.517 33.0574 313.924 33.9662 313.553 35.3016C313.182 36.5999 312.997 38.4917 312.997 40.977C312.997 43.2768 313.163 45.0758 313.497 46.3741C313.868 47.6353 314.443 48.507 315.222 48.9892C316.001 49.4715 317.04 49.7126 318.338 49.7126ZM350.944 56.2782C347.643 56.2782 345.009 55.8516 343.043 54.9985C341.077 54.1082 339.649 52.5503 338.759 50.3246C337.906 48.099 337.479 45.0202 337.479 41.0882C337.479 37.045 337.887 33.9106 338.703 31.6849C339.519 29.4593 340.892 27.9013 342.82 27.0111C344.749 26.1208 347.364 25.6757 350.666 25.6757C353.633 25.6757 356.007 25.9725 357.788 26.566C359.568 27.1595 360.848 28.1981 361.627 29.6819C362.443 31.1656 362.851 33.2614 362.851 35.9693C362.851 37.9723 362.443 39.5674 361.627 40.7544C360.848 41.9043 359.735 42.7389 358.289 43.2582C356.842 43.7405 355.136 43.9816 353.17 43.9816H345.658C345.732 45.5024 345.955 46.7265 346.326 47.6539C346.734 48.5441 347.457 49.1933 348.496 49.6013C349.572 49.9722 351.111 50.1577 353.114 50.1577H361.85V54.9985C360.403 55.2952 358.808 55.592 357.065 55.8887C355.358 56.1484 353.318 56.2782 350.944 56.2782ZM345.547 39.0852H352.335C353.448 39.0852 354.264 38.8626 354.783 38.4175C355.303 37.9724 355.562 37.1748 355.562 36.0249C355.562 34.9492 355.395 34.096 355.061 33.4654C354.728 32.7977 354.208 32.3341 353.504 32.0744C352.799 31.7777 351.853 31.6293 350.666 31.6293C349.405 31.6293 348.403 31.8519 347.661 32.297C346.919 32.705 346.381 33.4469 346.048 34.5226C345.714 35.5983 345.547 37.1192 345.547 39.0852ZM368.533 56V26.1208H374.876L376.767 30.6834C377.843 29.3109 379.049 28.1425 380.384 27.178C381.757 26.2136 383.37 25.7314 385.225 25.7314C385.633 25.7314 386.041 25.7499 386.449 25.787C386.894 25.8241 387.302 25.8983 387.673 26.0096V34.467C387.117 34.3928 386.523 34.3371 385.893 34.3001C385.299 34.2259 384.724 34.1888 384.168 34.1888C383.092 34.1888 382.109 34.3186 381.219 34.5783C380.366 34.8008 379.568 35.1532 378.826 35.6354C378.121 36.0806 377.435 36.6741 376.767 37.4159V56H368.533Z" fill="#8000FF"/>
<circle cx="257.001" cy="32.7061" r="7.84301" stroke="#8000FF" stroke-width="4.90188"/>
<line x1="259.886" y1="41.7841" x2="265.98" y2="56.578" stroke="#8000FF" stroke-width="5"/>
</svg>
