<svg width="50" height="49" viewBox="0 0 50 49" fill="none" xmlns="http://www.w3.org/2000/svg">
<path d="M25.0719 0C11.6052 0 0.675781 10.9761 0.675781 24.5002C0.675781 38.0243 11.6052 49.0003 25.0719 49.0003C38.5385 49.0003 49.4679 38.0243 49.4679 24.5002C49.4679 10.9761 38.5385 0 25.0719 0Z" fill="#ED1C24"/>
<path d="M24.3241 17.0196L20.0955 11.4662C19.9003 11.2376 19.6401 11.1069 19.3473 11.1069C19.0546 11.1069 18.7943 11.2376 18.6317 11.4662L13.5898 17.8363V27.8323L18.6317 21.3643C18.957 20.9396 19.575 20.8743 19.9979 21.201C20.0629 21.2336 20.128 21.299 20.1605 21.3643L24.4217 26.9503C24.5843 27.179 24.8446 27.277 25.1048 27.3097C25.365 27.3097 25.6252 27.179 25.7879 26.9503L30.0491 21.3643C30.2442 21.1356 30.537 20.9723 30.8297 20.9723C31.1225 20.9723 31.4152 21.103 31.5779 21.3316L36.5872 27.7997V17.8036L31.5128 11.4336C31.3177 11.2049 31.0574 11.0742 30.7972 11.0742C30.5045 11.0742 30.2117 11.2049 30.0491 11.4336L25.8529 16.9869C25.4951 17.4116 24.8771 17.4443 24.4868 17.1176C24.3566 17.0849 24.3241 17.0523 24.3241 17.0196Z" fill="white"/>
<path d="M36.5885 35.1514H13.5586V27.834H36.5885V35.1514Z" fill="white"/>
</svg>
