<svg width="51" height="51" viewBox="0 0 51 51" fill="none" xmlns="http://www.w3.org/2000/svg">
<path d="M25.0048 0C23.8029 0 22.6346 0.391167 21.6732 1.11256L2.77812 15.2806C1.03019 16.5918 0 18.6522 0 20.8373V43.064C0 46.8835 3.12604 50.0095 6.94554 50.0095H13.8916C16.1766 50.0095 18.059 48.1272 18.059 45.8421V31.9503C18.059 31.1666 18.6641 30.5615 19.4478 30.5615H30.5608C31.3445 30.5615 31.9501 31.167 31.9501 31.9508V45.8426C31.9501 48.1276 33.8324 50.01 36.1175 50.01H43.063C46.8825 50.01 50.0086 46.884 50.0086 43.0644V20.8378C50.0091 18.6523 48.9788 16.5918 47.2309 15.2806L28.3359 1.11256C27.3745 0.391167 26.2061 0 25.0043 0H25.0048ZM25.0048 2.77812C25.6062 2.77812 26.1894 2.97068 26.6708 3.3316L45.5647 17.5056C46.6149 18.2935 47.2307 19.5247 47.2307 20.8376V43.0643C47.2307 45.3824 45.3814 47.2317 43.0633 47.2317H36.1173C35.3335 47.2317 34.728 46.6261 34.728 45.8424V31.9506C34.7284 29.6655 32.8461 27.7832 30.561 27.7832H19.448C17.163 27.7832 15.2806 29.6655 15.2806 31.9506V45.8424C15.2802 46.6261 14.6751 47.2317 13.8913 47.2317H6.94531C4.62715 47.2317 2.77788 45.3824 2.77788 43.0643V20.8376C2.77788 19.5247 3.3937 18.2935 4.4439 17.5061L23.3378 3.33208C23.8192 2.97162 24.4024 2.7786 25.0038 2.7786L25.0048 2.77812Z" fill="#7101E0"/>
</svg>
