<svg width="192" height="25" viewBox="0 0 192 25" fill="none" xmlns="http://www.w3.org/2000/svg">
<g clip-path="url(#clip0_1686_2226)">
<path d="M191.017 13.355C190.686 13.4151 190.596 13.4155 190.523 13.3563C190.446 13.2956 190.392 13.3041 190.185 13.4082C189.897 13.5538 189.616 13.5373 189.607 13.3747C189.603 13.3131 189.482 13.2507 189.331 13.2323C188.994 13.1921 188.38 13.2233 188.278 13.2859C188.235 13.3125 188.078 13.3304 187.931 13.3253C187.745 13.3188 187.635 13.3484 187.571 13.4226C187.455 13.5569 187.583 13.5909 187.861 13.4992C188.005 13.4515 188.072 13.4455 188.074 13.4804C188.075 13.5067 188.01 13.5346 187.936 13.5387C187.861 13.5429 187.813 13.5721 187.833 13.6021C187.852 13.632 187.757 13.6717 187.624 13.689C187.444 13.7118 187.376 13.6898 187.371 13.6061C187.362 13.4478 187.01 13.3773 186.821 13.4958C186.682 13.583 186.666 13.5842 186.526 13.517C186.315 13.416 186.099 13.4393 186.101 13.5627C186.103 13.6636 186.086 13.6629 185.741 13.5499C185.466 13.4595 185.354 13.4474 185.269 13.4993C185.164 13.5633 184.468 13.6237 183.799 13.6272C183.587 13.6284 183.477 13.6705 183.351 13.8014C183.197 13.9617 183.11 13.9339 183.127 13.73C183.129 13.6988 183.074 13.6755 183.005 13.6793C182.936 13.6832 182.881 13.7261 182.884 13.7743C182.891 13.8933 182.538 14.0094 182.386 13.9392C182.304 13.902 182.247 13.914 182.173 13.9842C182.075 14.0763 182.067 14.0761 181.973 13.9801C181.894 13.9005 181.811 13.8898 181.575 13.9272C181.411 13.9534 181.089 13.9816 180.863 13.9898C180.222 14.0127 180.182 14.0152 179.876 14.055C179.724 14.0746 179.182 14.09 178.686 14.0884C177.683 14.085 177.01 14.1198 176.751 14.1886C176.662 14.2122 176.492 14.2159 176.396 14.1961C176.292 14.1742 176.093 14.1631 175.933 14.1701C174.21 14.2466 172.482 14.3031 172.059 14.2968C171.764 14.2924 171.492 14.3084 171.452 14.3325C171.412 14.3573 171.247 14.3685 171.072 14.359C170.494 14.3268 168.724 14.4657 168.546 14.5574C168.401 14.6325 168.13 14.65 165.966 14.7222C163.829 14.7935 163.52 14.8125 163.306 14.8869C163.173 14.9329 162.81 14.9883 162.503 15.0088C161.129 15.1013 160.264 15.1328 160.178 15.0932C160.113 15.0639 159.99 15.075 159.792 15.1283C159.562 15.1902 159.408 15.2005 159.045 15.178C158.59 15.1497 157.922 15.1901 157.125 15.2947C156.859 15.3295 156.699 15.3323 156.697 15.302C156.694 15.2447 156.235 15.2541 156.082 15.3147C155.937 15.3719 155.525 15.4064 155.363 15.3747C155.281 15.3587 154.834 15.3681 154.367 15.3953C153.899 15.4228 153.453 15.4348 153.371 15.4224C153.289 15.41 152.522 15.4351 151.654 15.479C150.786 15.5228 150.055 15.5433 150.017 15.5245C149.978 15.5054 149.855 15.5054 149.735 15.5246C149.046 15.6342 149.046 15.6342 149.262 15.6675C149.415 15.6913 149.39 15.7008 149.164 15.707C149.003 15.7114 148.874 15.6928 148.887 15.6673C148.9 15.6401 148.79 15.6188 148.629 15.6177C148.469 15.6166 148.249 15.5927 148.118 15.5615C147.807 15.4881 147.467 15.564 147.372 15.7282C147.287 15.8742 147.121 15.9201 146.954 15.8445C146.902 15.8209 146.925 15.7974 147.005 15.7929C147.252 15.779 147.169 15.6075 146.915 15.6058C146.785 15.6049 146.516 15.6609 146.333 15.7271L145.991 15.8498L145.745 15.7424C145.565 15.6643 145.475 15.6536 145.414 15.7034C145.351 15.7557 145.311 15.7589 145.247 15.7171C145.204 15.6888 145.101 15.6789 145.032 15.6968C144.887 15.735 144.396 15.8015 143.996 15.8376C143.836 15.8522 143.633 15.8411 143.52 15.8121C143.371 15.7737 143.298 15.7765 143.219 15.8247C143.139 15.874 143.061 15.8734 142.871 15.8224C142.586 15.7459 142.458 15.7442 142.609 15.8194C142.691 15.8599 142.672 15.8613 142.523 15.8265C142.376 15.792 142.293 15.8019 142.151 15.8716C141.98 15.9554 141.952 15.9557 141.696 15.873C141.476 15.8013 141.41 15.7989 141.348 15.8595C141.249 15.9569 141.006 15.9653 140.653 15.8835C140.463 15.8396 140.352 15.836 140.318 15.8732C140.288 15.9066 140.132 15.8925 139.929 15.8376C139.738 15.7865 139.498 15.763 139.383 15.7842C139.264 15.8063 139.138 15.8032 139.082 15.7769C139.033 15.7529 138.92 15.735 138.847 15.7392C138.767 15.7436 138.739 15.7622 138.783 15.7826C138.824 15.8022 138.704 15.8177 138.517 15.8175C138.33 15.8172 138.204 15.7971 138.24 15.7735C138.279 15.7475 138.251 15.7226 138.17 15.7115C138.096 15.7012 137.966 15.7405 137.884 15.7981C137.73 15.9061 137.435 15.9073 137.546 15.7994C137.585 15.7619 137.476 15.7426 137.262 15.749C137.021 15.7563 136.936 15.7774 136.985 15.8175C137.024 15.849 136.957 15.908 136.839 15.947C136.655 16.008 136.597 16.0112 136.452 15.9687C136.339 15.9352 136.336 15.9252 136.444 15.9381C136.53 15.9483 136.644 15.9203 136.688 15.878C136.756 15.8131 136.704 15.8065 136.412 15.8428C136.213 15.8674 136.022 15.8713 135.984 15.8515C135.944 15.8309 135.829 15.8314 135.709 15.8538C135.59 15.8759 135.416 15.8736 135.294 15.8484C135.171 15.8233 135.015 15.8239 134.919 15.8495C134.803 15.8809 134.779 15.8705 134.836 15.8143C134.949 15.7041 134.802 15.7146 134.569 15.8335C134.424 15.9077 134.393 15.9111 134.384 15.8528C134.378 15.8152 134.212 15.7673 134.023 15.7495C133.727 15.7213 133.66 15.731 133.592 15.8113C133.521 15.8931 133.422 15.9077 132.889 15.9168C132.541 15.9229 132.148 15.9136 131.997 15.8962C131.85 15.879 131.627 15.8837 131.503 15.9063C131.325 15.9392 131.295 15.9223 131.358 15.8262C131.413 15.7438 131.372 15.7 131.229 15.69C131.104 15.681 130.996 15.7119 130.958 15.767C130.892 15.8635 130.255 15.9352 130.102 15.8634C130.06 15.8439 129.814 15.8554 129.548 15.8903C129.283 15.9248 128.986 15.9398 128.881 15.9241C128.543 15.8738 128.186 15.921 128.077 16.03L127.969 16.1377L127.883 16.0344C127.827 15.967 127.723 15.9453 127.585 15.9717C127.466 15.9944 127.334 15.9933 127.284 15.9687C127.232 15.9432 127.129 15.9467 127.036 15.9767C126.839 16.041 126.386 16.0675 126.383 16.015C126.382 15.9925 126.32 15.979 126.24 15.9835C126.162 15.9879 126.102 16.0265 126.105 16.0705C126.108 16.137 126.055 16.1364 125.77 16.0674L125.431 15.9848L125.282 16.0968C125.157 16.192 125.133 16.1963 125.123 16.1256C125.115 16.0637 125.039 16.0545 124.827 16.0893C124.668 16.1156 124.449 16.1161 124.332 16.0906C124.176 16.0566 124.036 16.0628 123.784 16.1148C123.532 16.1669 123.433 16.1712 123.391 16.1327C123.352 16.0973 123.243 16.1125 123.046 16.1808C122.769 16.2764 122.759 16.2766 122.825 16.1867C122.862 16.1362 122.831 16.0834 122.758 16.0728C122.561 16.044 122.187 16.1189 122.14 16.1963C122.105 16.2555 122.046 16.2585 121.695 16.2168C121.467 16.1897 121.173 16.1755 121.017 16.1842C120.863 16.1929 120.609 16.183 120.434 16.1617C119.962 16.1039 119.319 16.1554 119.04 16.2734C118.895 16.3344 118.745 16.3628 118.69 16.3394C118.638 16.3165 118.381 16.3064 118.114 16.3165C117.847 16.3266 117.585 16.3119 117.524 16.2836C117.462 16.255 117.16 16.2456 116.84 16.2619C116.2 16.2946 115.898 16.22 116.169 16.095C116.307 16.0314 116.286 16.027 116.033 16.0673C115.835 16.099 115.706 16.0932 115.649 16.049C115.513 15.9455 115.273 15.9907 115.28 16.1184C115.285 16.2064 115.35 16.2302 115.533 16.2101C115.666 16.1955 115.789 16.2029 115.801 16.2261C115.814 16.2506 115.764 16.2667 115.683 16.2637C115.606 16.2609 115.457 16.2879 115.352 16.3242C115.207 16.3742 115.16 16.3761 115.158 16.3328C115.156 16.2996 115.068 16.2914 114.95 16.3134C114.83 16.3355 114.707 16.3343 114.655 16.31C114.604 16.2864 114.512 16.2831 114.44 16.3022C114.372 16.3204 114.314 16.3135 114.313 16.2871C114.311 16.262 114.237 16.243 114.157 16.2475C114.077 16.252 114.044 16.2747 114.088 16.2955C114.224 16.3585 113.932 16.4049 113.728 16.3526C113.621 16.3253 113.444 16.3124 113.324 16.3227C113.205 16.333 113.038 16.3482 112.945 16.3574C112.853 16.3661 112.751 16.4212 112.718 16.4806C112.663 16.5755 112.658 16.5744 112.673 16.472C112.69 16.3432 112.535 16.2457 112.33 16.2572C112.258 16.2613 112.214 16.2902 112.234 16.3202C112.255 16.3523 112.183 16.373 112.062 16.3697C111.95 16.3665 111.614 16.3772 111.334 16.3929C111 16.4117 110.846 16.402 110.904 16.3664C110.954 16.3355 110.889 16.344 110.757 16.3857C110.626 16.4274 110.557 16.4774 110.603 16.498C110.653 16.5204 110.632 16.5382 110.552 16.5427C110.477 16.5469 110.382 16.5212 110.335 16.4843C110.285 16.4453 110.078 16.4281 109.824 16.4424C109.584 16.4559 109.396 16.451 109.395 16.4312C109.393 16.4002 109.126 16.4119 108.153 16.4855C107.899 16.5047 107.843 16.5291 107.918 16.587C107.997 16.6488 107.984 16.6542 107.846 16.6152C107.716 16.5787 107.638 16.587 107.515 16.6514C107.357 16.7335 106.957 16.7269 107.093 16.6441C107.193 16.5832 106.646 16.5639 106.314 16.6165C106.15 16.6424 105.941 16.6346 105.765 16.5954C105.426 16.5204 104.879 16.5272 104.745 16.6082C104.685 16.6449 104.537 16.65 104.268 16.6239C103.928 16.5911 103.824 16.6024 103.469 16.7106C103.246 16.7787 103.096 16.8132 103.14 16.7863C103.232 16.7284 102.637 16.6603 102.237 16.6827C102.089 16.691 101.965 16.6721 101.96 16.6411C101.954 16.6077 101.897 16.6181 101.82 16.6666C101.728 16.7253 101.531 16.754 101.13 16.7671C100.729 16.7801 100.57 16.8037 100.573 16.849C100.574 16.8842 100.511 16.9293 100.431 16.9494C100.352 16.9696 100.295 16.9689 100.304 16.9477C100.315 16.9246 100.308 16.8959 100.288 16.8758C100.267 16.8564 100.243 16.8208 100.229 16.7908C100.217 16.7625 100.119 16.7343 100.012 16.7282C99.8912 16.7213 99.8594 16.7364 99.9276 16.7682C100.113 16.8539 99.7079 16.9175 99.3429 16.8599C99.1538 16.83 98.9709 16.8203 98.9272 16.8375C98.8826 16.855 98.754 16.8429 98.6312 16.81C98.5094 16.7769 98.3773 16.771 98.3291 16.7959C98.2829 16.8204 98.0366 16.8303 97.7811 16.8178C97.5266 16.8053 97.3625 16.7779 97.4168 16.7566C97.474 16.7341 97.4486 16.7218 97.3547 16.7271C97.2618 16.7323 97.1957 16.7562 97.1973 16.7843C97.2005 16.8416 96.2568 16.8946 96.1458 16.8433C96.0919 16.8185 95.9278 16.8278 95.7031 16.8681C95.2791 16.9442 95.0461 16.9609 95.1304 16.9091C95.1649 16.8879 94.8338 16.8872 94.4066 16.9073C93.2419 16.9622 92.2015 16.9892 92.0517 16.9689C91.9857 16.9602 91.7362 16.948 91.5079 16.9429C91.2806 16.9377 91.0505 16.9173 91.0098 16.898C90.8896 16.842 89.8963 16.9647 89.9002 17.0351C89.9044 17.11 89.384 17.1468 89.3058 17.0773C89.2443 17.0236 89.0296 17.0131 88.1736 17.0229C87.7456 17.028 87.6513 17.0431 87.65 17.1085C87.648 17.1615 87.5739 17.1827 87.4255 17.1718C87.3041 17.1629 87.1798 17.1568 87.1502 17.1585C87.1205 17.1601 87.095 17.1285 87.0927 17.0888C87.0903 17.0448 87.0082 17.0311 86.8836 17.0541C86.7649 17.0762 86.6429 17.0755 86.5931 17.0528C86.4689 16.9954 85.7103 17.0452 85.6478 17.1147C85.6114 17.155 85.5036 17.1591 85.2611 17.1299C84.9776 17.0958 84.8977 17.1032 84.762 17.1755C84.6417 17.2395 84.5797 17.2475 84.5228 17.2066C84.4639 17.1638 84.4127 17.1687 84.297 17.2281C84.2103 17.2728 84.1456 17.2847 84.143 17.2567C84.1388 17.1994 82.6665 17.1612 82.4691 17.2131C82.3969 17.2322 82.3677 17.2064 82.4055 17.1559C82.4709 17.0676 82.234 17.0688 81.2222 17.1628C81.1285 17.1714 81.0516 17.2319 81.055 17.2935C81.0627 17.4296 80.8422 17.457 80.7301 17.3336C80.6847 17.2832 80.553 17.251 80.4236 17.2583C80.1567 17.2733 80.1438 17.3253 80.3907 17.3968C80.5348 17.4387 80.5015 17.4464 80.2195 17.4374C80.0219 17.4312 79.7175 17.431 79.5166 17.4373C79.3029 17.4441 79.1316 17.4135 79.084 17.36C79.0258 17.295 78.9061 17.2814 78.6261 17.3086C78.4131 17.329 78.2452 17.3231 78.2436 17.2948C78.2419 17.2641 77.9605 17.2659 77.5341 17.2993C77.1482 17.3295 76.7938 17.3382 76.752 17.319C76.6156 17.2551 76.4259 17.355 76.4333 17.4869C76.4375 17.5615 76.3753 17.6359 76.2893 17.6581C76.1906 17.6835 76.1506 17.6417 76.1755 17.5386C76.2132 17.38 76.2132 17.38 75.5862 17.4064C75.239 17.421 74.8939 17.4541 74.8141 17.4804C74.6301 17.5411 73.5616 17.5619 73.497 17.506C73.4689 17.4824 73.3896 17.4813 73.3105 17.5034C73.2344 17.5247 73.114 17.5167 73.0419 17.4855C72.9433 17.4426 72.9126 17.4427 72.915 17.4861C72.9171 17.5239 72.7047 17.5551 72.2907 17.5783C71.9043 17.6 71.66 17.5925 71.6541 17.5588C71.6485 17.53 71.5614 17.5487 71.469 17.598C71.3708 17.6502 70.9879 17.7341 70.6033 17.7877C69.9658 17.8765 69.9094 17.8774 69.8633 17.7986C69.804 17.696 69.4103 17.7103 69.4152 17.8149C69.4174 17.8547 69.3501 17.8748 69.2631 17.861C69.1741 17.8471 69.0611 17.8658 68.9979 17.9047C68.9059 17.9615 68.8476 17.9638 68.6438 17.92C68.4542 17.879 68.3869 17.8811 68.3429 17.928C68.299 17.975 68.2385 17.9757 68.0755 17.9319C67.9145 17.889 67.7986 17.8906 67.5872 17.9394C67.4286 17.9761 67.3509 18.022 67.4058 18.0467C67.4709 18.076 67.4146 18.0785 67.2259 18.0545C67.0241 18.0286 66.9076 18.0364 66.7922 18.0831C66.675 18.1312 66.6323 18.1296 66.6244 18.0771C66.6182 18.0376 66.6737 17.9845 66.7514 17.9553C66.8397 17.9219 66.8404 17.882 66.752 17.8429C66.6422 17.7944 66.6149 17.8019 66.6134 17.8814C66.6122 17.9487 66.4999 17.9962 66.2599 18.0293C66.0602 18.0569 65.9463 18.0946 65.9971 18.1169C66.0479 18.1389 65.9729 18.1624 65.8266 18.1706C65.6794 18.1789 65.5037 18.21 65.4222 18.242C65.2117 18.3248 64.5627 18.2949 64.475 18.1981C64.4222 18.14 64.2983 18.1231 64.0724 18.1436C63.8722 18.1617 63.7604 18.149 63.7831 18.1115C63.8103 18.0662 63.7538 18.0654 63.5688 18.1085C63.2381 18.1859 62.5267 18.2467 62.3168 18.2157C62.2228 18.2017 62.1195 18.214 62.0706 18.2449C62.0237 18.2746 61.8934 18.3026 61.7728 18.308C61.6531 18.3134 61.6014 18.2931 61.6562 18.2616C61.7272 18.2207 61.6739 18.224 61.4626 18.2738C61.1192 18.3548 60.3191 18.4063 60.3158 18.348C60.3146 18.3268 60.1412 18.3294 59.9414 18.3536C59.7021 18.3828 59.6018 18.3789 59.6592 18.343C59.7062 18.3139 59.6783 18.2766 59.6013 18.2646C59.5173 18.252 59.4202 18.2881 59.3789 18.3476C59.3238 18.4256 59.272 18.4389 59.1815 18.3986C59.0901 18.3583 59.0597 18.3656 59.0632 18.4275C59.0669 18.4936 59.0003 18.5081 58.7459 18.4972C58.4041 18.4828 58.3833 18.4839 57.7322 18.5574C57.1845 18.6192 56.3465 18.6666 55.5571 18.6802C54.3389 18.7009 53.7448 18.7479 52.7976 18.8995C52.5461 18.9397 52.3456 18.9533 52.3443 18.9298C52.343 18.9067 52.0951 18.9049 51.7889 18.9257C51.4818 18.9466 51.2665 18.9783 51.3042 18.9971C51.3439 19.0164 51.2529 19.0375 51.0928 19.0465C50.9327 19.0555 50.7805 19.0461 50.7367 19.0247C50.6939 19.0035 50.3683 19.014 49.9955 19.0486C49.6267 19.0827 48.6435 19.1566 47.7902 19.2143C46.9369 19.272 46.218 19.3221 46.1766 19.3271C46.1372 19.3316 45.7905 19.353 45.4169 19.374C44.9228 19.4017 44.6934 19.394 44.5985 19.347C44.5271 19.3112 44.374 19.2858 44.2603 19.2909C44.1407 19.2963 44.0822 19.3143 44.122 19.3339C44.1617 19.3529 44.0905 19.3743 43.9572 19.3831C43.8268 19.3917 43.4849 19.4282 43.1787 19.4666C42.8598 19.5064 42.664 19.5164 42.7052 19.4909C42.7992 19.4337 38.8925 19.6501 38.6414 19.7161C38.5359 19.744 38.3755 19.7467 38.2671 19.7224C38.1265 19.6911 38.0557 19.7013 37.9947 19.7619C37.9168 19.8395 37.899 19.8405 37.6549 19.7833C37.5192 19.7514 37.3018 19.7283 37.1971 19.7341C37.037 19.7431 37.0345 19.7514 37.1855 19.775C37.4925 19.8231 36.9377 19.8827 36.1478 19.8862C35.7603 19.888 35.3938 19.9109 35.321 19.9378C35.1306 20.008 35.0175 20.0065 34.7317 19.9301C34.5002 19.8679 34.4923 19.8687 34.5847 19.9426C34.6687 20.0094 34.6159 20.0225 34.2288 20.0309C33.9743 20.0366 33.7311 20.013 33.6766 19.9782C33.5954 19.9259 33.5787 19.9285 33.5745 19.995C33.5683 20.0967 33.3553 20.1172 33.2382 20.027C33.1916 19.991 32.9862 19.9706 32.7856 19.9818C32.5316 19.9961 32.4526 20.0182 32.5289 20.0534C32.6002 20.0867 32.5506 20.0862 32.3881 20.0525C32.2386 20.0217 32.0998 20.0203 32.0439 20.0496C31.9505 20.099 30.6174 20.1915 30.6979 20.1428C30.7852 20.0902 30.5323 20.0178 30.2647 20.0188C30.1041 20.0193 29.9083 20.009 29.8083 19.9944C29.7144 19.9807 29.6335 19.9892 29.6339 20.013C29.6359 20.0835 29.0869 20.0878 28.9967 20.0181C28.9542 19.9851 28.8547 19.9783 28.7639 20.002C28.5655 20.054 26.9132 20.1814 25.4591 20.2569C24.7385 20.294 24.3016 20.3343 24.3072 20.3627C24.3126 20.3889 24.1961 20.4154 24.036 20.4243C23.8759 20.4333 23.7542 20.4186 23.7525 20.3896C23.7507 20.3567 23.5764 20.3596 23.2573 20.3975C22.8979 20.4402 22.764 20.4399 22.7616 20.3965C22.7591 20.3516 22.7285 20.3543 22.6353 20.4079C22.5623 20.4499 22.3913 20.4748 22.2174 20.4689C22.0565 20.4636 21.9237 20.4808 21.9252 20.5076C21.9269 20.5375 21.6466 20.5604 21.192 20.568C20.0708 20.5862 20.0016 20.5901 18.456 20.7108C17.1501 20.8129 17.0293 20.8154 17.0192 20.7411C17.0092 20.6679 16.9855 20.6702 16.7728 20.7661C16.6384 20.8266 16.4172 20.8772 16.258 20.8842C15.7101 20.9081 14.786 20.8874 14.784 20.8513C14.782 20.8161 14.2754 20.8517 12.9305 20.9818C12.5312 21.0206 12.2432 21.0279 12.1891 21.0012C12.1392 20.9766 12.0065 20.9628 11.886 20.9695C11.7664 20.9762 11.7061 20.997 11.7498 21.017C11.8394 21.0578 11.0267 21.1684 10.8388 21.1411C10.7738 21.1307 10.7212 21.0947 10.719 21.055C10.7168 21.0152 10.6282 20.9918 10.5086 20.9985C10.3891 21.0052 10.3022 21.0294 10.3037 21.0564C10.3052 21.0828 10.246 21.106 10.166 21.1105C10.0909 21.1148 10.0227 21.0656 10.0192 21.0041C10.0158 20.9425 10.077 20.8861 10.1531 20.8818C10.2282 20.8776 10.2949 20.9004 10.2967 20.931C10.2991 20.975 10.3238 20.9736 10.4034 20.925C10.4619 20.8894 10.6933 20.8443 10.9329 20.8217C11.5059 20.768 11.6785 20.7181 11.6782 20.6064C11.6782 20.5534 11.6213 20.5282 11.5461 20.5478C11.4776 20.5653 11.3683 20.56 11.3184 20.5364C11.2512 20.5048 11.1231 20.5189 10.8996 20.5821C10.5961 20.6674 10.5634 20.6673 10.3504 20.5819C10.1963 20.5199 10.1255 20.5128 10.1281 20.5591C10.1313 20.6161 10.1085 20.6174 9.98774 20.5669C9.86794 20.5168 9.84432 20.5198 9.84803 20.5859C9.8505 20.6299 9.80515 20.6697 9.74598 20.6753C8.94722 20.7505 8.17852 20.7963 8.23424 20.7647C8.27074 20.7437 8.20949 20.7299 8.10268 20.7345C7.99588 20.7392 7.93757 20.7602 7.97829 20.7791C8.02005 20.799 7.69386 20.8336 7.24021 20.8581C6.62643 20.891 6.49435 20.8869 6.70397 20.8418C6.93807 20.7914 6.91507 20.7878 6.55599 20.8194C6.15645 20.8543 6.13229 20.8478 6.16837 20.7134C6.19875 20.6012 6.17615 20.5871 6.06461 20.6486C5.98383 20.693 5.92305 20.7582 5.92329 20.7977C5.92601 20.8992 5.37703 20.9385 5.35258 20.8386C5.34212 20.7934 5.29453 20.8112 5.23992 20.8802C5.15396 20.9913 5.08817 21.0025 4.24695 21.0455C3.70031 21.0735 3.35523 21.072 3.37039 21.0417C3.38371 21.0142 3.20707 20.9934 2.98016 20.9953C2.75227 20.9973 2.56582 21.0137 2.56683 21.0316C2.56785 21.0499 2.38312 21.0968 2.15832 21.1362C1.83925 21.1917 1.7096 21.1958 1.5833 21.1532C1.49337 21.1229 1.45607 21.0766 1.50115 21.0496C1.63158 20.9714 2.14423 20.9736 2.15166 21.053C2.15669 21.1073 2.2107 21.098 2.3923 21.013C2.55938 20.9343 2.76752 20.8981 3.11482 20.8865C3.42156 20.8761 3.65751 20.841 3.75187 20.7912C3.86451 20.7316 4.11479 20.7045 4.76975 20.6811C5.37127 20.6595 5.65619 20.6314 5.69843 20.5891C5.77912 20.5078 5.97776 20.4966 6.22216 20.5591C6.48569 20.6266 6.83069 20.5916 6.8018 20.5007C6.78747 20.4574 6.83886 20.4192 6.91693 20.4148C6.99895 20.4102 7.02365 20.4618 6.97744 20.5392L6.89765 20.6718L7.09072 20.544C7.26564 20.4283 7.29412 20.4234 7.3893 20.4942C7.46687 20.5516 7.5405 20.5563 7.6718 20.5113C7.76323 20.4801 7.92033 20.4529 7.99681 20.4555C8.07627 20.4582 8.22472 20.4185 8.32009 20.3691C8.41738 20.3185 8.66875 20.258 8.88154 20.2339C9.2007 20.1977 9.26759 20.2061 9.27188 20.2826C9.27485 20.3354 9.33734 20.3714 9.41739 20.3669C9.4925 20.3627 9.55538 20.3174 9.55265 20.2688C9.54793 20.1848 9.57452 20.1816 9.93872 20.2236C10.4376 20.2812 10.6777 20.2658 10.6727 20.1772C10.6696 20.1215 10.7296 20.1139 10.9582 20.1412C11.1198 20.1606 11.3237 20.154 11.4193 20.1268C11.6223 20.069 12.3646 20.0299 12.6074 20.0646C12.7154 20.0801 12.7822 20.0692 12.7803 20.0366C12.7787 20.0083 12.858 19.9895 12.9516 19.9963C13.0451 20.0028 13.2846 19.9773 13.4699 19.9407C13.6552 19.9042 13.925 19.8717 14.0548 19.8703C14.1866 19.8688 14.3642 19.8199 14.4472 19.7623C14.6266 19.6375 14.888 19.614 14.8379 19.7273C14.8114 19.7857 14.8817 19.8017 15.081 19.7843C15.2339 19.7708 15.8339 19.7234 16.4064 19.6791C16.976 19.6351 17.9317 19.5484 18.5034 19.4889C20.2331 19.3087 20.4875 19.2843 21.5118 19.201C22.0447 19.1577 22.737 19.0937 23.0434 19.0595C23.3488 19.0253 23.6444 18.9937 23.6948 18.9896C23.8812 18.9739 23.9767 18.9084 23.88 18.8625C23.8158 18.8321 23.7198 18.8352 23.6147 18.8708C23.5087 18.9069 23.3763 18.9149 23.2413 18.8941C23.1293 18.8769 22.8584 18.8715 22.6588 18.8827C22.4048 18.8969 22.2539 18.875 22.186 18.8145C22.1307 18.7646 22.0168 18.7321 21.9271 18.7407C21.581 18.7746 21.3952 18.766 21.4729 18.7198C21.682 18.596 21.3817 18.5612 20.6088 18.6203C20.0619 18.6621 19.8518 18.6631 19.92 18.624C19.9767 18.5914 19.9306 18.5839 19.8119 18.6059C19.6922 18.628 19.5662 18.6249 19.5102 18.5987C19.4602 18.575 19.3568 18.5681 19.2952 18.5843C19.2278 18.6021 19.1383 18.5976 19.0874 18.574C19.0396 18.5519 18.8714 18.5397 18.7241 18.548C18.5769 18.5563 18.4494 18.5451 18.4482 18.5236C18.4461 18.4858 17.6563 18.474 17.0016 18.5022C16.8681 18.5081 16.7598 18.4861 16.7579 18.4532C16.756 18.4193 16.5137 18.394 16.1925 18.3944C15.6573 18.395 15.63 18.3871 15.6209 18.2235C15.6095 18.0212 15.4061 17.948 14.9247 17.9727C14.6845 17.9853 14.6123 17.9697 14.6668 17.9173C14.7111 17.8749 14.6591 17.8494 14.5425 17.856C14.4357 17.862 14.2651 17.8251 14.1762 17.7772C14.0433 17.7052 13.9875 17.7012 13.8936 17.7578C13.8034 17.8122 13.7753 17.8062 13.7692 17.7317C13.7598 17.6176 14.1578 17.4501 14.1808 17.5586C14.1877 17.5935 14.2403 17.5772 14.3016 17.5211C14.3639 17.4647 14.4644 17.4192 14.5365 17.4151C14.6047 17.4113 14.7421 17.3863 14.8349 17.3608C14.9266 17.3354 15.0068 17.3341 15.0082 17.3576C15.0115 17.4166 17.251 17.2582 17.4343 17.1861C17.5128 17.1552 17.7923 17.1173 18.0452 17.1031C18.6589 17.0686 19.0581 16.9747 19.056 16.8656C19.0545 16.7866 18.6934 16.7298 18.4009 16.7629C18.1083 16.796 18.0663 16.7712 18.2758 16.6888C18.4455 16.6218 18.4559 16.5947 18.3159 16.5742C18.222 16.5602 18.0929 16.5576 18.048 16.5693C18.0001 16.5818 17.9882 16.5285 18.0213 16.4472C18.0797 16.3044 18.0737 16.3035 17.5005 16.353C17.0072 16.3957 16.9207 16.3907 16.9167 16.3194C16.9142 16.2754 16.8466 16.2531 16.7733 16.2722C16.6981 16.2921 16.6321 16.2648 16.6291 16.212C16.6262 16.1592 16.7057 16.1106 16.8036 16.1051C16.9004 16.0997 17.1074 16.0087 17.2505 15.9078C17.5586 15.6918 17.6991 15.617 18.0204 15.4947C18.2815 15.3954 18.1298 15.2892 17.7552 15.3102C17.608 15.3185 17.59 15.2976 17.6873 15.23C17.8467 15.1198 17.6679 15.0252 17.3941 15.0756C17.2754 15.0973 17.1362 15.0734 17.0498 15.0165C16.9335 14.9403 16.7571 14.9244 16.1819 14.9374C15.3264 14.957 15.1104 14.9231 15.6278 14.8502C16.2091 14.7686 16.0838 14.6387 15.414 14.6273C15.0925 14.6218 14.8546 14.6041 14.8764 14.5868C14.8973 14.57 14.7913 14.5187 14.6431 14.4741C14.3829 14.3959 14.3631 14.3964 14.1954 14.4816C14.0392 14.561 14.0185 14.5625 14.0087 14.4944C14.0007 14.4396 13.7971 14.4154 13.2882 14.409C12.8993 14.4044 12.4761 14.4062 12.3516 14.4132C12.231 14.42 11.9685 14.387 11.7925 14.343C11.509 14.2723 11.4624 14.272 11.4662 14.3397C11.4718 14.4404 11.3026 14.446 11.0704 14.3531C10.9304 14.2973 10.707 14.2902 10.1329 14.3241C9.71992 14.3486 9.33538 14.3858 9.28107 14.4072C9.22869 14.4278 9.05535 14.4303 8.90666 14.4128C8.75893 14.395 8.66712 14.3665 8.70888 14.3511C8.75261 14.3352 8.6769 14.2757 8.53977 14.2171C7.95993 13.9715 7.70443 13.5349 8.04642 13.3755C8.1324 13.3354 8.15242 13.3035 8.08818 13.3071C8.01901 13.311 8.0535 13.2898 8.17255 13.256C8.31696 13.2149 8.32412 13.2011 8.19663 13.2082C8.09682 13.2138 7.97823 13.2558 7.9303 13.3026C7.75366 13.4759 7.56055 13.5149 7.22653 13.4454C6.80423 13.3573 6.83143 13.3297 7.35329 13.3193C7.59392 13.3146 7.80646 13.2864 7.83838 13.2545C7.87411 13.2198 8.25531 13.1762 8.84213 13.14C10.3497 13.0472 13.0654 12.8421 14.0129 12.7497C14.4921 12.7028 14.9565 12.6764 15.0535 12.6906C15.1474 12.7043 15.2958 12.6982 15.3739 12.6772C15.6513 12.6031 16.5664 12.5517 16.5726 12.6096C16.577 12.6518 16.6066 12.6495 16.6881 12.6008C16.7648 12.555 17.3052 12.5027 18.4648 12.4282C26.0797 11.9405 28.3802 11.7918 30.1471 11.6736C34.2409 11.4 36.1459 11.2878 36.0855 11.3242C35.9494 11.4067 36.3664 11.4003 36.5263 11.3171C36.6495 11.2527 36.7871 11.2306 36.9624 11.2462C37.0969 11.2583 37.3194 11.2647 37.4311 11.2594C37.5507 11.254 37.6893 11.2685 37.7472 11.2924C37.8132 11.32 37.9953 11.298 38.2592 11.2309C38.7342 11.1098 39.2484 11.0682 39.2481 11.1509C39.2475 11.1928 39.5011 11.19 40.1942 11.1396C40.7145 11.1019 41.2064 11.0514 41.2853 11.0274C41.5085 10.9599 42.4701 10.9063 42.4732 10.9607C42.4746 10.9858 42.5482 10.9901 42.6273 10.9697C42.7114 10.948 42.8377 10.9556 42.9098 10.9868C43.0226 11.036 43.0572 11.0338 43.1666 10.9701C43.302 10.8916 43.9526 10.8427 44.6889 10.8556C44.9697 10.8604 45.2173 10.839 45.3351 10.7997C45.4664 10.7557 45.5424 10.7501 45.5789 10.7817C45.6362 10.8305 47.9475 10.7151 50.8401 10.5194C51.7734 10.4562 52.5779 10.412 52.6151 10.422C52.6524 10.432 54.3709 10.3525 56.4397 10.2449C58.5115 10.1371 62.0516 9.95988 64.3344 9.8497C69.6999 9.59063 70.2833 9.56376 70.3679 9.56914C70.4932 9.57713 74.2136 9.41565 74.4937 9.39012C74.9948 9.34434 76.0011 9.2934 78.1375 9.20516C80.621 9.10266 81.4746 9.08644 81.5916 9.13968C81.6801 9.17981 82.5648 9.15171 83.4035 9.08207C83.6759 9.05959 84.5241 9.01785 85.2987 8.9894C86.9954 8.92682 90.4165 8.78476 91.1469 8.74669C91.4405 8.73119 91.7082 8.73119 91.7427 8.74625C91.7762 8.76103 92.1637 8.74026 92.5898 8.70098C93.8284 8.58634 95.3106 8.57012 95.5551 8.66914C95.7853 8.7621 96.5744 8.74427 96.8432 8.63997C96.9353 8.6044 97.015 8.59306 97.0163 8.61554C97.0175 8.63802 97.1121 8.61016 97.2201 8.55541C97.358 8.4859 97.4561 8.46765 97.5311 8.4984C97.592 8.52309 97.7817 8.54675 97.9555 8.5517C98.1838 8.55816 98.271 8.53922 98.2728 8.48323C98.2745 8.42562 98.3074 8.42835 98.4003 8.49372C98.5117 8.57178 98.7261 8.57674 100.33 8.53768C101.319 8.51353 102.768 8.46521 103.536 8.43057C104.306 8.39582 105.759 8.33419 106.761 8.29362C107.766 8.25289 109.431 8.18324 110.473 8.13818C111.514 8.09311 112.536 8.05861 112.751 8.06096C112.965 8.06363 113.138 8.04377 113.137 8.01705C113.135 7.99034 112.96 7.96812 112.745 7.96778C112.306 7.96695 116.028 7.79787 116.777 7.78459C117.048 7.77981 118.126 7.73791 119.168 7.69121C121.223 7.59932 122.54 7.55974 123.083 7.5737C123.584 7.5864 124.02 7.57991 125.062 7.54462C126.572 7.49318 127.584 7.48502 127.665 7.52331C127.707 7.54352 127.873 7.55217 128.046 7.54377C128.215 7.53558 128.983 7.54639 129.76 7.5681C131.258 7.61013 132.278 7.59344 133.839 7.50122C134.506 7.46181 134.923 7.46126 135.164 7.49904C135.407 7.53735 135.531 7.53726 135.566 7.49872C135.595 7.46599 135.684 7.45318 135.778 7.46751C135.987 7.49925 136.261 7.49528 137.757 7.43974C138.452 7.41415 139.048 7.41137 139.074 7.43409C139.138 7.48804 139.525 7.46629 139.522 7.40896C139.519 7.34966 140.093 7.31678 140.562 7.34923C140.765 7.36332 141.145 7.36683 141.426 7.35727C141.706 7.34775 141.958 7.35489 141.996 7.37396C142.037 7.39422 142.118 7.39358 142.198 7.3728C142.298 7.34623 145.678 7.13721 145.866 7.14595C145.888 7.14701 146.847 7.10394 148.008 7.0495C149.169 6.99544 150.266 6.95574 150.459 6.96159C150.77 6.97061 152.238 6.93134 152.878 6.89701C153.012 6.88985 153.158 6.90157 153.208 6.92328C153.259 6.94559 153.51 6.93704 153.789 6.90407C154.134 6.8631 154.32 6.86249 154.411 6.90213C154.521 6.94957 154.562 6.94658 154.671 6.88298C154.746 6.83891 154.804 6.82385 154.81 6.84643C154.815 6.86902 154.904 6.8568 155.022 6.81686C155.185 6.76198 155.287 6.76181 155.531 6.81706C155.748 6.866 155.853 6.86859 155.893 6.82548C155.964 6.7509 156.628 6.7058 156.632 6.77519C156.633 6.80027 156.754 6.81245 156.914 6.80346C157.074 6.79448 157.193 6.76686 157.192 6.73917C157.19 6.71278 157.253 6.70011 157.331 6.71141C157.412 6.72321 157.448 6.74766 157.414 6.76849C157.383 6.78824 157.557 6.79906 157.797 6.79209C159.201 6.75121 159.927 6.75458 159.862 6.80103C159.824 6.82833 159.735 6.84576 159.654 6.84146C159.577 6.83731 158.979 6.85747 158.325 6.88665C157.003 6.94519 156.092 6.96235 155.982 6.93093C155.946 6.92055 155.739 6.94002 155.513 6.97493C155.288 7.00979 155.078 7.02351 155.04 7.00607C154.976 6.97634 153.464 7.06644 152.998 7.12721C152.719 7.16382 152.443 7.24011 152.445 7.27953C152.446 7.29647 153.153 7.26853 154.021 7.21754C154.888 7.16654 155.74 7.13343 155.917 7.14408C156.118 7.15633 156.238 7.14631 156.236 7.11731C156.235 7.0906 156.542 7.06031 156.968 7.04552C157.57 7.02449 157.695 7.03444 157.662 7.10132C157.621 7.18271 157.672 7.18542 158.54 7.15105C158.775 7.14181 159.395 7.12689 159.917 7.11818C160.666 7.10555 160.86 7.11819 160.838 7.17664C160.822 7.21674 160.922 7.25294 161.056 7.2549C161.19 7.25686 161.303 7.23549 161.301 7.20813C161.3 7.18174 161.225 7.16174 161.145 7.16623C161.065 7.17072 161.033 7.15132 161.077 7.12597C161.128 7.09631 161.282 7.08603 161.47 7.09965C161.642 7.11188 162.154 7.11355 162.621 7.10332C163.089 7.09304 163.589 7.08658 163.744 7.08895C163.903 7.09115 164.179 7.08642 164.379 7.07749C164.687 7.06415 164.701 7.07021 164.489 7.12428C164.357 7.15783 164.183 7.17775 164.11 7.16746C164.029 7.15599 163.945 7.16625 163.902 7.19253C163.82 7.24122 164.584 7.2699 164.984 7.2331C165.11 7.22144 165.345 7.2262 165.48 7.24282C165.623 7.26063 166.077 7.2616 166.504 7.2448C166.931 7.22833 167.46 7.23459 167.696 7.25961C167.925 7.28366 168.313 7.28934 168.54 7.27169L168.959 7.23931L168.61 7.33182C168.412 7.38408 168.352 7.4113 168.472 7.39476C168.591 7.37827 168.768 7.38762 168.875 7.41627C169.12 7.48195 170.168 7.42308 170.104 7.34725C170.08 7.3179 170.087 7.30703 170.121 7.32442C170.155 7.34181 170.249 7.3385 170.328 7.31739C170.409 7.29552 170.43 7.3051 170.376 7.33889C170.319 7.37409 170.413 7.40835 170.601 7.42099C171 7.44761 171.351 7.41749 171.96 7.30387C172.291 7.24212 172.37 7.20928 172.235 7.18973C171.958 7.14907 172.176 7.09043 172.539 7.10797C172.766 7.11905 172.808 7.1386 172.697 7.18212C172.618 7.213 172.547 7.26337 172.549 7.28748C172.55 7.31386 172.588 7.31827 172.637 7.29791C172.683 7.2783 172.924 7.30006 173.168 7.34554C173.912 7.48447 174.099 7.47888 174.09 7.31762C174.085 7.2251 174.015 7.18489 173.876 7.19271C173.756 7.19942 173.668 7.18313 173.666 7.15381C173.665 7.12286 173.757 7.11015 173.905 7.12046C174.038 7.13002 174.602 7.12907 175.151 7.11886C175.699 7.10865 176.239 7.11332 176.343 7.12906C176.451 7.14554 176.651 7.15356 176.813 7.14744C177.601 7.11723 177.744 7.1213 177.661 7.16972C177.613 7.19791 177.665 7.20252 177.784 7.18049C177.896 7.15983 178.271 7.15314 178.606 7.16572C179.438 7.19714 179.541 7.19691 180.306 7.16309C180.68 7.14668 180.974 7.15105 180.976 7.1732C180.977 7.19568 181.099 7.20618 181.259 7.19719C181.445 7.1867 181.527 7.20925 181.503 7.26515C181.475 7.33078 181.575 7.34282 181.961 7.32113C182.228 7.30615 182.466 7.31113 182.478 7.33202C182.519 7.40191 183.31 7.49577 183.737 7.48158C183.965 7.47403 184.389 7.42536 184.681 7.37402C185.158 7.28972 185.225 7.28758 185.356 7.3515C185.436 7.39109 185.589 7.41779 185.7 7.41157C185.807 7.40558 185.901 7.42382 185.902 7.45086C185.904 7.4779 185.998 7.48507 186.104 7.46604C186.236 7.44259 186.279 7.45389 186.232 7.50064C186.195 7.53804 186.23 7.5936 186.306 7.62001C186.473 7.67731 186.466 7.77447 186.285 7.88165C186.193 7.93617 186.23 7.93607 186.468 7.88024C186.731 7.81873 186.766 7.82363 186.772 7.92494C186.775 7.98651 186.718 8.05609 186.646 8.07545C186.575 8.09481 186.555 8.17341 186.602 8.24557C186.65 8.31773 186.635 8.37938 186.57 8.37907C186.115 8.3775 185.957 8.42363 185.965 8.5572C185.973 8.71552 186.056 8.72134 186.421 8.58939C186.675 8.4977 186.681 8.499 186.592 8.6367C186.541 8.71435 186.445 8.7887 186.38 8.80088C186.308 8.81406 186.288 8.83542 186.329 8.85438C186.366 8.87127 186.24 8.92312 186.055 8.96683C185.87 9.01055 185.71 9.0715 185.707 9.09876C185.705 9.12635 185.545 9.2226 185.357 9.30829L185.011 9.4666L185.227 9.30448C185.507 9.09466 185.509 9.01217 185.232 9.10454C185.114 9.14416 185.027 9.18792 185.035 9.2048C185.076 9.29532 185.002 9.34786 184.818 9.35818C184.698 9.3649 184.606 9.40111 184.608 9.44053C184.613 9.52426 184.383 9.54663 184.292 9.4717C184.185 9.38424 183.706 9.53104 183.676 9.66053C183.662 9.7231 183.684 9.74506 183.726 9.71064C183.77 9.67551 183.903 9.64516 184.037 9.64028C184.183 9.635 184.206 9.64317 184.098 9.66328C184.004 9.68066 183.929 9.75645 183.933 9.83137C183.941 9.96787 183.743 10.0254 183.615 9.92439C183.566 9.88503 183.482 9.89561 183.299 9.96506C183.056 10.0571 183.145 10.0845 183.544 10.0415C183.783 10.0156 183.629 10.1227 183.235 10.2556C182.998 10.3352 182.879 10.3939 182.961 10.3893C183.039 10.3849 183.073 10.4137 183.034 10.4511C182.934 10.548 182.461 10.5275 182.367 10.4226C182.245 10.2857 181.946 10.3357 182.05 10.4757C182.12 10.5688 182.074 10.6168 181.858 10.674C181.7 10.7162 181.521 10.7417 181.453 10.7321C181.385 10.7222 181.298 10.7473 181.256 10.7895C181.192 10.8523 181.134 10.8516 180.894 10.7857C180.735 10.7417 180.502 10.7106 180.368 10.7156C179.833 10.7351 179.407 10.7878 179.311 10.8458C179.251 10.8819 179.209 10.8691 179.202 10.812C179.192 10.7332 179.166 10.7314 179.021 10.8C178.931 10.8423 178.744 10.8786 178.624 10.8769C178.335 10.8725 178.206 11.0444 178.39 11.1884C178.584 11.3409 178.557 11.3715 178.237 11.3623C178.009 11.3558 177.969 11.329 178.029 11.2243C178.08 11.1332 178.028 11.0796 177.851 11.0444C177.614 10.997 177.612 10.9984 177.813 11.0707C177.972 11.1278 177.981 11.1544 177.853 11.1767C177.76 11.1927 177.719 11.2234 177.763 11.2435C177.809 11.2641 177.719 11.2878 177.559 11.2968C177.399 11.3058 177.271 11.2894 177.27 11.2601C177.268 11.2239 177.201 11.2289 177.056 11.2763C176.883 11.3334 176.83 11.3331 176.755 11.2756C176.707 11.2384 176.699 11.1715 176.74 11.133C176.784 11.0906 176.738 11.0648 176.629 11.0709C176.501 11.0781 176.468 11.1198 176.523 11.2049L176.603 11.3282L176.278 11.254C176.075 11.2075 175.933 11.2005 175.899 11.2354C175.837 11.3006 175.303 11.2953 175.299 11.2292C175.297 11.2028 175.244 11.1987 175.165 11.2191C175.085 11.2396 175.013 11.2365 174.984 11.2116C174.957 11.189 174.34 11.1906 173.619 11.2154C172.723 11.246 172.233 11.2418 172.085 11.2021C171.955 11.167 171.708 11.1605 171.469 11.1857C171.003 11.2345 170.993 11.2262 171.338 11.081C171.496 11.0149 171.587 10.9559 171.549 10.9456C171.511 10.9356 171.39 10.9722 171.279 11.0271C171.168 11.0817 171.074 11.1011 171.069 11.0696C171.058 10.9866 170.789 11.0147 170.794 11.0981C170.799 11.1819 170.421 11.2099 170.325 11.1333C170.272 11.0912 170.219 11.0942 170.074 11.1477C169.786 11.2548 169.564 11.242 169.408 11.1096C169.271 10.9931 169.128 10.9796 168.433 11.0186C168.232 11.0299 168.111 11.0086 168.109 10.962C168.105 10.8955 168.078 10.8957 167.868 10.9644C167.71 11.0157 167.666 11.0205 167.735 10.9784C167.79 10.9445 167.77 10.9192 167.691 10.9236C167.612 10.9281 167.546 10.9582 167.548 10.9889C167.55 11.0296 167.516 11.0306 167.427 10.9914C167.321 10.9444 167.292 10.9461 167.221 11.003C167.155 11.0554 167.118 11.0581 167.047 11.017C166.996 10.9872 166.857 10.9705 166.724 10.978C166.523 10.9892 166.521 10.9962 166.707 11.0276C166.872 11.0553 166.823 11.0665 166.502 11.0744C166.194 11.0819 166.091 11.0628 166.116 11.0036C166.15 10.9268 166.125 10.9282 165.702 11.0222C165.425 11.0842 165.234 11.1057 165.204 11.079C165.175 11.0547 165.008 11.0524 164.822 11.074C164.635 11.0955 164.447 11.0917 164.393 11.065C164.323 11.0301 164.244 11.0351 164.099 11.0838C163.942 11.1367 163.901 11.1387 163.899 11.0928C163.897 11.0576 163.763 11.0514 163.55 11.0771C163.324 11.1041 163.203 11.0972 163.201 11.0568C163.198 11.0095 163.118 11.0095 162.853 11.0564C162.667 11.0893 162.359 11.1148 162.187 11.1114C162.013 11.1081 161.767 11.1065 161.651 11.1085C161.53 11.1104 161.396 11.0957 161.341 11.0752C161.283 11.0533 161.167 11.0644 161.048 11.1028C160.943 11.1368 160.8 11.1533 160.742 11.1376C160.582 11.0947 157.53 11.2781 157.419 11.3376C157.362 11.3676 156.943 11.4078 156.476 11.4281C156.008 11.4482 155.635 11.4809 155.636 11.5017C155.637 11.521 155.551 11.546 155.459 11.5535C155.362 11.5613 155.12 11.5902 154.934 11.616C154.509 11.6752 152.147 11.8048 151.972 11.7787C151.906 11.7687 151.852 11.7825 151.853 11.8089C151.855 11.8349 151.73 11.8655 151.583 11.8747C151.436 11.8843 151.273 11.9137 151.231 11.9386C151.189 11.9635 150.913 11.9862 150.631 11.9876C150.35 11.989 149.915 11.9994 149.689 12.0095C149.462 12.0199 149.227 12.0129 149.179 11.994C149.057 11.9463 148.773 12.0213 148.778 12.1005C148.781 12.1487 148.915 12.152 149.274 12.1125C149.7 12.0657 149.768 12.0711 149.772 12.1529C149.775 12.2056 149.716 12.2635 149.639 12.2839C149.563 12.3038 149.499 12.2983 149.497 12.2719C149.496 12.2452 149.288 12.2421 149.035 12.2648C148.781 12.2876 148.42 12.282 148.231 12.2528C148.042 12.2235 147.787 12.2048 147.667 12.2116C147.541 12.2186 147.444 12.1842 147.441 12.1317C147.437 12.0568 147.523 12.036 147.897 12.0222C148.151 12.0128 148.357 11.9852 148.356 11.9611C148.354 11.9377 148.227 11.9243 148.079 11.9325C147.932 11.9408 147.78 11.9239 147.749 11.8958C147.713 11.8619 147.601 11.862 147.428 11.8959C147.129 11.9545 146.749 11.9758 145.893 11.9814C145.585 11.9837 145.136 11.9932 144.897 12.003C144.657 12.0129 144.367 12.0004 144.246 11.9755C144.124 11.95 143.992 11.945 143.944 11.9637C143.9 11.9816 143.751 11.9742 143.629 11.9484C143.44 11.908 143.378 11.9125 143.283 11.9724C143.186 12.0331 143.15 12.0328 143.068 11.971C142.992 11.9136 142.837 11.9079 142.371 11.9461C141.744 11.9973 140.981 11.9519 140.637 11.8428C140.531 11.8089 140.487 11.8058 140.538 11.8353C140.6 11.872 140.507 11.8942 140.228 11.9099C139.866 11.9302 139.833 11.9187 139.88 11.7928C139.929 11.6623 139.892 11.652 139.329 11.6339C138.952 11.6221 138.487 11.6423 138.088 11.6882C137.733 11.7291 137.076 11.7836 136.609 11.8111C135.928 11.851 135.76 11.8761 135.726 11.9424C135.695 12.0013 135.745 12.0132 135.903 11.9854C136.022 11.9643 136.123 11.9685 136.124 11.9952C136.129 12.0812 135.371 12.1777 133.798 12.2908C133.252 12.3303 132.73 12.3809 132.647 12.4022C132.568 12.4227 132.494 12.4173 132.492 12.3909C132.491 12.3593 132.263 12.3584 131.89 12.3878C131.223 12.4406 131.092 12.5304 131.697 12.5199C131.923 12.516 132.046 12.5356 131.994 12.567C131.934 12.602 132.003 12.604 132.188 12.5737C132.429 12.534 132.463 12.5429 132.406 12.6298C132.355 12.7075 132.265 12.7295 132.036 12.7188C131.875 12.7115 131.619 12.7112 131.487 12.7186C131.353 12.7261 131.272 12.7124 131.312 12.6886C131.352 12.6638 131.322 12.6361 131.241 12.6243C131.168 12.6137 131.094 12.6325 131.089 12.6638C131.083 12.6972 131.071 12.7531 131.062 12.7889C131.053 12.8257 130.833 12.8727 130.553 12.8975C129.701 12.9735 129.133 13.0348 129.076 13.0569C128.967 13.0996 129.205 13.2216 129.379 13.2118C129.486 13.2058 129.599 13.225 129.642 13.2565C129.69 13.2911 129.752 13.2703 129.807 13.2009C129.854 13.1407 129.968 13.0843 130.055 13.0775C131.081 12.9979 131.131 12.9984 131.069 13.0901C131.038 13.136 131.048 13.1626 131.089 13.1465C131.13 13.1305 131.256 13.1339 131.351 13.1541C131.48 13.1811 131.626 13.1703 131.85 13.1172C132.088 13.0607 132.182 13.0551 132.224 13.0939C132.266 13.1334 132.326 13.1307 132.471 13.0824C132.577 13.047 132.789 13.0224 132.949 13.0267C133.124 13.0316 133.236 13.0129 133.234 12.98C133.233 12.9487 133.352 12.9182 133.512 12.9092C133.685 12.8995 133.793 12.9254 133.796 12.9772C133.801 13.0652 134.01 13.0747 134.144 12.993C134.252 12.9271 134.795 12.8992 135.279 12.9345C135.503 12.951 136.089 12.9364 136.596 12.9018C137.102 12.8671 137.758 12.8225 138.069 12.8014C138.496 12.7725 138.623 12.7455 138.605 12.6873C138.589 12.6398 138.652 12.6163 138.775 12.6248C138.878 12.6321 138.972 12.669 138.974 12.7042C138.977 12.7677 139.379 12.7684 140.139 12.7061C140.418 12.6833 140.526 12.6952 140.529 12.7493C140.532 12.8027 140.612 12.8112 140.812 12.7798C141.011 12.748 141.092 12.7555 141.095 12.8057C141.1 12.9038 141.544 12.9488 141.996 12.8969C142.209 12.8726 142.454 12.8679 142.544 12.8871C142.883 12.9586 145.061 12.8928 145.284 12.8045C145.324 12.7885 145.274 12.7606 145.18 12.7463C145.042 12.7256 145.057 12.7081 145.243 12.6744C145.376 12.6503 145.535 12.6525 145.591 12.6791C145.658 12.711 146.048 12.7061 146.688 12.6659C147.315 12.6264 147.683 12.6221 147.685 12.654C147.687 12.6876 147.92 12.682 148.387 12.6369C148.972 12.5798 149.086 12.5809 149.09 12.6438C149.093 12.692 149.167 12.7052 149.299 12.6804C149.418 12.6584 149.54 12.659 149.589 12.6818C149.715 12.7404 149.964 12.6607 149.873 12.591C149.831 12.5581 149.857 12.5258 149.933 12.5216C150.013 12.5171 150.074 12.5401 150.076 12.5753C150.081 12.6652 150.62 12.7157 151.57 12.7147C152.025 12.7143 152.494 12.7148 152.607 12.7156C152.721 12.7164 153.069 12.7197 153.377 12.723C153.685 12.7263 154.003 12.7401 154.082 12.7541C154.159 12.7677 154.451 12.7804 154.719 12.7817C155.245 12.7845 155.536 12.7868 156.191 12.7941C156.427 12.7969 157.194 12.7777 157.902 12.7513C158.609 12.725 159.304 12.7043 159.452 12.7049C159.898 12.7073 160.056 12.637 159.924 12.4944C159.85 12.4149 159.769 12.391 159.704 12.4296C159.647 12.4635 159.631 12.5043 159.67 12.522C159.788 12.5762 159.179 12.613 158.603 12.5865C158.32 12.5736 158.078 12.5425 158.076 12.5187C158.075 12.4933 157.988 12.4907 157.869 12.5127C157.75 12.5347 157.663 12.5341 157.662 12.5112C157.659 12.4731 156.975 12.4527 156.495 12.4767C156.361 12.4833 156.218 12.4711 156.172 12.4491C156.127 12.4275 155.903 12.4201 155.676 12.4328C155.449 12.4456 155.261 12.4362 155.26 12.4121C155.258 12.3759 155.872 12.348 156.942 12.3356C158.253 12.3205 158.647 12.3327 158.766 12.3917C158.886 12.4513 158.903 12.4504 158.903 12.384C158.904 12.3134 159.334 12.2585 159.338 12.3289C159.339 12.3625 159.473 12.3618 160.221 12.3251C160.488 12.3121 160.657 12.3362 160.767 12.4029C160.854 12.4552 161.009 12.4851 161.106 12.4675C161.208 12.4494 161.364 12.4707 161.47 12.5177C161.62 12.5841 161.694 12.5872 161.859 12.5334C162.017 12.4818 162.04 12.4811 161.959 12.5301C161.892 12.5708 161.936 12.5886 162.082 12.5804C162.202 12.5736 162.274 12.552 162.233 12.5343C162.191 12.5161 162.444 12.481 162.791 12.4566C163.191 12.4286 163.392 12.432 163.337 12.4658C163.204 12.5481 163.414 12.6148 163.606 12.5507C163.957 12.4336 164.937 12.4162 165.397 12.5188C165.514 12.5446 165.741 12.5671 165.889 12.567C166.04 12.567 166.418 12.5759 166.727 12.586C167.039 12.5966 167.571 12.6 167.919 12.5942C168.266 12.5884 168.705 12.5831 168.901 12.5832C169.097 12.583 169.651 12.5767 170.132 12.5693C170.613 12.5616 171.045 12.5723 171.09 12.5927C171.134 12.6124 171.325 12.6079 171.498 12.5828C171.67 12.5581 171.868 12.5571 171.919 12.5814C171.969 12.6051 172.069 12.6132 172.127 12.5985C172.189 12.5829 172.775 12.5631 173.416 12.5549C174.058 12.5466 174.815 12.5342 175.081 12.5277C175.349 12.5212 175.76 12.5151 175.991 12.5143C176.218 12.5133 176.597 12.5034 176.812 12.4923C177.093 12.4782 177.236 12.4992 177.291 12.5625C177.364 12.6466 177.383 12.6465 177.566 12.5605C177.748 12.4741 177.757 12.4768 177.709 12.5989C177.646 12.7556 177.67 12.7608 178.419 12.7456C178.739 12.739 179.122 12.7502 179.283 12.7706C179.446 12.7912 179.793 12.7939 180.074 12.7769C180.421 12.7558 180.575 12.768 180.578 12.8169C180.58 12.8566 180.628 12.8866 180.689 12.8855C180.746 12.8845 181.07 12.8788 181.391 12.8725C181.819 12.8645 181.987 12.8436 181.989 12.7991C181.991 12.7555 182.044 12.7561 182.167 12.8025C182.358 12.8738 184.009 12.9017 185.573 12.8603C186.107 12.8463 186.567 12.8505 186.59 12.8695C186.613 12.8885 186.791 12.8857 186.979 12.8631C187.165 12.8409 187.439 12.8314 187.573 12.8428C187.711 12.8547 188.102 12.8559 188.45 12.8455C189.185 12.8238 190.204 12.8516 190.689 12.9064C190.916 12.9322 191.045 12.992 191.088 13.0909C191.122 13.173 191.209 13.2468 191.284 13.2586C191.361 13.2723 191.243 13.3139 191.017 13.355ZM186.057 8.78243C185.91 8.79064 185.853 8.88275 185.983 8.90192C186.064 8.91372 186.129 8.89078 186.127 8.85136C186.125 8.81162 186.092 8.78043 186.057 8.78243ZM184.732 9.15906C184.657 9.14823 184.592 9.17345 184.595 9.2132C184.597 9.25294 184.664 9.27073 184.738 9.25158C184.817 9.2308 184.876 9.20754 184.875 9.19744C184.875 9.18734 184.813 9.17085 184.732 9.15906ZM183.378 9.71812C183.205 9.72783 183.087 9.79199 183.17 9.83142C183.26 9.87312 183.503 9.81728 183.5 9.75571C183.499 9.72894 183.45 9.71407 183.378 9.71812ZM175.845 7.13182C175.817 7.13343 175.757 7.16977 175.716 7.21196C175.675 7.25415 175.699 7.27301 175.772 7.2536C175.904 7.21841 175.96 7.12539 175.845 7.13182ZM175.347 7.18433C175.268 7.17275 175.207 7.20556 175.21 7.25834C175.213 7.31111 175.277 7.34932 175.356 7.34493C175.431 7.34072 175.494 7.30643 175.492 7.27092C175.489 7.2358 175.421 7.19548 175.347 7.18433ZM174.379 7.23734C174.3 7.25812 174.236 7.29735 174.237 7.32374C174.239 7.35404 174.319 7.34563 174.45 7.30198C174.673 7.22705 174.616 7.17467 174.379 7.23734ZM167.264 7.33582C167.157 7.34181 167.064 7.36859 167.066 7.39335C167.067 7.41908 167.195 7.4325 167.355 7.42352C167.515 7.41453 167.602 7.38907 167.552 7.36605C167.506 7.34379 167.37 7.32983 167.264 7.33582ZM163.452 7.1462C163.404 7.16396 163.239 7.16601 163.104 7.15037C162.943 7.13166 162.817 7.13936 162.765 7.17173C162.717 7.20089 162.729 7.22016 162.794 7.21649C162.855 7.21305 163.055 7.21493 163.229 7.22081C163.444 7.22804 163.55 7.21163 163.548 7.17221C163.546 7.14093 163.5 7.1285 163.452 7.1462ZM162.111 7.22149C162.004 7.2422 162.039 7.25166 162.2 7.24528C162.346 7.23935 162.427 7.22405 162.378 7.21107C162.333 7.19858 162.204 7.20352 162.111 7.22149ZM160.471 7.18843C160.399 7.17809 160.184 7.198 160.011 7.2309C159.786 7.27423 159.759 7.28984 159.921 7.28238C160.054 7.27619 160.253 7.27845 160.383 7.28747C160.611 7.30376 160.685 7.22021 160.471 7.18843ZM158.827 7.23921C158.708 7.26156 158.645 7.28667 158.683 7.29694C158.721 7.30694 158.817 7.29759 158.896 7.27649C159.123 7.21638 159.078 7.19211 158.827 7.23921ZM158.497 12.4607C158.417 12.4652 158.358 12.4771 158.358 12.4885C158.359 12.4999 158.42 12.517 158.501 12.5288C158.578 12.5402 158.642 12.5275 158.64 12.5011C158.639 12.4747 158.573 12.4565 158.497 12.4607ZM155.141 11.4446C154.963 11.4072 154.925 11.4126 154.929 11.4741C154.931 11.5139 155.034 11.5431 155.146 11.5368C155.266 11.53 155.359 11.517 155.359 11.5072C155.358 11.4974 155.264 11.47 155.141 11.4446ZM132.923 15.6017C132.819 15.6429 132.813 15.6632 132.907 15.6579C133.094 15.6474 133.253 15.5819 133.156 15.5557C133.117 15.5455 133.015 15.5656 132.923 15.6017ZM130.741 12.616C130.665 12.6177 130.59 12.653 130.566 12.6985C130.537 12.753 130.594 12.7652 130.748 12.7369C130.987 12.6938 130.982 12.611 130.741 12.616ZM130.768 13.091C130.555 13.103 130.149 13.2267 130.218 13.2588C130.331 13.311 130.856 13.223 130.852 13.1527C130.85 13.1171 130.811 13.0886 130.768 13.091ZM128.309 13.1451C127.99 13.1983 127.843 13.2052 127.768 13.1709C127.712 13.1449 127.377 13.1311 127.029 13.1395C126.522 13.152 126.345 13.1763 126.146 13.2597C126.012 13.3155 125.941 13.376 125.993 13.3895C126.098 13.4179 128.451 13.3084 128.649 13.2658C128.709 13.253 128.753 13.2058 128.75 13.1572C128.746 13.0826 128.693 13.0811 128.309 13.1451ZM127.285 15.7882C127.251 15.7902 127.19 15.8135 127.141 15.8427C127.095 15.8705 127.123 15.8901 127.203 15.8856C127.284 15.8811 127.349 15.8566 127.347 15.8311C127.347 15.8044 127.32 15.7863 127.285 15.7882ZM124.406 13.2629C124.33 13.2671 124.194 13.3012 124.09 13.3424C123.962 13.3927 123.599 13.4272 122.892 13.4561C122.077 13.4894 121.878 13.5111 121.881 13.5658C121.883 13.6036 121.992 13.6445 122.127 13.6579C122.516 13.6964 124.033 13.5891 124.096 13.5186C124.126 13.4842 124.228 13.4307 124.333 13.3941C124.557 13.3159 124.592 13.2524 124.406 13.2629ZM116.188 15.8671C115.787 15.8782 115.577 15.9701 115.9 15.9927C116.156 16.0107 116.54 15.9503 116.537 15.8926C116.536 15.874 116.375 15.8622 116.188 15.8671ZM114.177 13.559C114.114 13.5626 113.992 13.5936 113.9 13.6298C113.776 13.6787 113.691 13.6769 113.552 13.6229C113.401 13.5647 113.12 13.5632 112.025 13.6138C111.291 13.6479 110.617 13.6658 110.536 13.6534C110.455 13.6409 110.222 13.6612 110.023 13.6975C109.77 13.7437 109.575 13.7527 109.389 13.7266C109.173 13.6962 109.077 13.7029 108.909 13.7597C108.611 13.8598 108.784 13.9246 109.195 13.8668C109.434 13.8335 109.529 13.8399 109.532 13.8908C109.535 13.9458 109.656 13.9501 110.082 13.9105C110.389 13.8822 110.67 13.871 110.723 13.885C110.875 13.9248 112.741 13.825 113.112 13.7571C113.377 13.7086 113.522 13.7059 113.673 13.7465C113.937 13.8173 114.302 13.7553 114.296 13.6409C114.293 13.5924 114.241 13.5555 114.177 13.559ZM109.19 13.993C108.826 13.968 108.62 14.0851 108.956 14.1251C109.226 14.157 109.411 14.125 109.407 14.0475C109.405 14.0253 109.311 14.0015 109.19 13.993ZM107.733 14.0176C107.424 13.9931 107.265 14.005 106.967 14.074C106.623 14.1537 106.61 14.1669 106.821 14.2233C107.026 14.2785 107.305 14.2628 107.956 14.1606C108.249 14.1144 108.149 14.0508 107.733 14.0176ZM105.948 14.1694C105.732 14.1423 105.06 14.2448 105.06 14.3049C105.06 14.3193 105.314 14.3201 105.621 14.3061C106.195 14.2801 106.341 14.2186 105.948 14.1694ZM105.435 16.3662C105.195 16.3797 105.052 16.4076 105.103 16.4313C105.151 16.4534 105.387 16.4618 105.613 16.4491C105.853 16.4356 105.995 16.4077 105.944 16.384C105.896 16.3616 105.662 16.3535 105.435 16.3662ZM102.838 13.9793C102.784 13.9993 102.632 13.9896 102.496 13.9567C102.324 13.915 102.072 13.9148 101.646 13.9557C101.313 13.9878 100.975 14.0189 100.894 14.0251C100.748 14.0362 100.644 14.3185 100.79 14.3103C100.835 14.3078 100.959 14.2701 101.072 14.2239C101.201 14.1718 101.542 14.1269 102.009 14.1007C102.689 14.0625 102.942 14.0254 102.939 13.9648C102.937 13.9519 102.897 13.9577 102.838 13.9793ZM99.1561 14.3096C98.8327 14.2712 98.7695 14.1692 99.083 14.1908C99.3547 14.2095 99.3458 14.1577 99.0587 14.0415C98.8853 13.9712 98.7419 13.9606 98.4763 13.9971C98.2776 14.0246 98.0329 14.0269 97.9145 14.0021C97.745 13.9669 97.6521 13.9727 97.4274 14.0318C97.2125 14.0886 97.0436 14.0987 96.6667 14.079C96.3983 14.0647 96.0951 14.069 95.9842 14.0886C95.8723 14.1086 95.6174 14.1053 95.4019 14.0814C95.1495 14.0534 94.6782 14.0626 94.0244 14.1081C93.4774 14.146 92.8737 14.1652 92.6816 14.1505C92.4884 14.1358 91.8386 14.1445 91.2234 14.1706C90.6093 14.1966 90.0304 14.1983 89.925 14.1752C89.8146 14.1507 89.6489 14.1488 89.5302 14.1709C89.4115 14.1929 89.2906 14.1931 89.2428 14.1716C89.194 14.1499 89.021 14.1596 88.8228 14.1952C88.6108 14.2336 88.4516 14.2416 88.3967 14.2169C88.3062 14.1768 87.9468 14.2016 87.6956 14.2654C87.6233 14.2838 87.0211 14.2934 86.3654 14.2868C85.6562 14.2795 85.0722 14.2963 84.9352 14.3272C84.7893 14.3602 84.6854 14.3628 84.654 14.3342C84.6269 14.3092 84.3842 14.2957 84.1171 14.3048C83.8499 14.314 83.5503 14.3095 83.4543 14.2956C83.3464 14.2801 83.2806 14.2923 83.2826 14.3275C83.2843 14.3581 83.2416 14.3729 83.1902 14.3592C83.1389 14.3454 83.1815 14.2913 83.2837 14.2415C83.386 14.1916 83.4154 14.1678 83.3482 14.1892C83.2771 14.2121 83.1423 14.2122 83.034 14.1892C82.8985 14.1605 82.8453 14.1654 82.8476 14.2062C82.8494 14.2394 82.7632 14.2573 82.6427 14.2487C82.5213 14.2402 82.4079 14.2501 82.3705 14.2728C82.265 14.3366 79.9142 14.4372 79.725 14.3861C79.6364 14.3623 79.1291 14.3666 78.6093 14.3957C77.8889 14.4362 77.6349 14.4338 77.5718 14.3857C77.5272 14.3519 77.3812 14.3281 77.2606 14.3349C77.0877 14.3446 77.0756 14.3586 77.2104 14.3949C77.4933 14.4708 77.4169 14.4885 76.6428 14.5264C75.1075 14.6018 75.0005 14.6019 74.9963 14.528C74.9941 14.4883 74.9107 14.4681 74.8194 14.485C74.7262 14.5023 74.5322 14.4907 74.3967 14.4604C74.226 14.4219 73.765 14.4203 72.9511 14.4556C72.2964 14.4838 71.6955 14.4986 71.6215 14.4884C71.5406 14.4769 71.4845 14.4846 71.4818 14.5073C71.479 14.5281 70.637 14.5923 69.6231 14.6493C68.6092 14.7062 67.4311 14.7883 67.023 14.8305C66.5568 14.8786 66.2097 14.8932 66.0953 14.8692C65.9669 14.8421 65.74 14.8614 65.3297 14.9341C64.9449 15.0021 64.6638 15.0277 64.5041 15.0086C64.2077 14.9732 62.9164 15.017 62.7142 15.0692C62.635 15.0896 62.0037 15.1627 61.3244 15.2296C60.6451 15.2964 59.8565 15.376 59.5874 15.4042C59.3194 15.4323 58.682 15.4867 58.1884 15.5233C56.8684 15.6209 56.3775 15.6873 56.382 15.7675C56.3848 15.8177 56.4655 15.8252 56.665 15.7934C56.8242 15.7682 56.9452 15.7699 56.9467 15.7975C56.9483 15.8246 56.6561 15.8642 56.2827 15.8878C55.3965 15.9434 54.3899 16.0244 53.4444 16.1167C53.0185 16.1583 52.3345 16.213 51.9186 16.2387C51.4385 16.2686 51.1424 16.309 51.1021 16.3505C51.0515 16.403 51.4789 16.3872 53.2924 16.2694C54.533 16.1889 55.5766 16.1313 55.6139 16.1413C55.6531 16.1519 55.6522 16.1879 55.6116 16.2254C55.5599 16.2744 55.4544 16.2853 55.1987 16.2686C54.9977 16.2553 54.8574 16.2632 54.8587 16.2877C54.86 16.3108 54.7543 16.3353 54.6209 16.3428C53.1 16.4282 51.275 16.5882 51.1179 16.6496C50.8608 16.7507 52.911 16.645 65.1702 15.9248C72.1876 15.5125 74.4834 15.4035 74.4879 15.4834C74.4905 15.5299 74.6104 15.5297 74.9835 15.482C75.3693 15.4326 75.5021 15.4329 75.5991 15.4827C75.7073 15.5384 75.7625 15.5317 76.0383 15.4296C76.4452 15.2787 76.551 15.2734 76.6175 15.3991C76.6586 15.4782 76.7517 15.4948 77.018 15.4704C77.4569 15.4304 77.5109 15.4032 77.2937 15.3301C77.1472 15.2808 77.1534 15.2674 77.3273 15.2576C77.4449 15.251 77.5819 15.2897 77.6335 15.344C77.7242 15.4406 77.7301 15.4402 77.9345 15.3382C78.0782 15.2661 78.3098 15.2247 78.6834 15.2037C78.9769 15.1872 79.1914 15.1935 79.1521 15.2172C79.1118 15.2421 79.1622 15.2732 79.2702 15.29C79.5811 15.3376 79.7116 15.3126 79.6311 15.2214C79.5432 15.1205 79.6938 15.0672 80.0083 15.0881C80.1824 15.0999 80.1985 15.1212 80.0768 15.1787C79.8334 15.2934 80.0078 15.3084 80.9007 15.2508C82.7142 15.1333 84.0548 15.0861 84.3873 15.1282C84.5581 15.15 84.7498 15.1386 84.9614 15.0944C85.1858 15.0475 85.3381 15.0412 85.4817 15.073C85.7286 15.1274 86.7013 15.0954 87.7397 14.9985C88.1657 14.9586 88.5532 14.9388 88.5869 14.9549C88.6215 14.9712 88.8812 14.9537 89.1735 14.9154C89.4658 14.8768 89.7252 14.8534 89.7594 14.8626C89.7946 14.872 89.8996 14.8528 90.0047 14.8181C90.1488 14.7701 90.1894 14.7701 90.1921 14.8187C90.1948 14.8669 90.2324 14.8658 90.3653 14.8132C90.5486 14.7412 90.985 14.7082 91.0563 14.7613C91.1174 14.8066 92.1581 14.8024 92.1555 14.7568C92.1533 14.7174 92.3131 14.7035 93.7004 14.6221C95.1677 14.5361 95.662 14.5289 95.7944 14.5924C95.8627 14.6252 96.0097 14.6297 96.1549 14.6032C96.3443 14.5687 96.3793 14.5223 96.3109 14.398C96.237 14.2653 96.2623 14.2383 96.4558 14.2422C96.5898 14.2448 96.6774 14.2699 96.6614 14.3012C96.6058 14.4057 97.079 14.6592 97.3155 14.6518C97.743 14.6382 97.9701 14.6049 98.2053 14.5204C98.3637 14.4635 98.5756 14.4408 98.9375 14.4427C99.4987 14.4439 99.6291 14.366 99.1561 14.3096ZM93.1866 16.6833C93.148 16.6854 93.0839 16.709 93.036 16.7381C92.9919 16.7648 93.0248 16.7852 93.1048 16.7807C93.1849 16.7762 93.2567 16.7499 93.2554 16.7258C93.2539 16.6994 93.2241 16.6812 93.1866 16.6833ZM92.438 16.6988C92.3148 16.7473 92.5543 16.8626 92.6998 16.8243C92.7965 16.799 92.7878 16.7674 92.6747 16.7297C92.5828 16.6995 92.4729 16.6851 92.438 16.6988ZM67.0622 17.8941C67.0195 17.9108 67.0652 17.9468 67.1598 17.9726C67.2997 18.0101 67.3162 18.0037 67.2383 17.9417C67.1874 17.9001 67.1029 17.8777 67.0622 17.8941ZM64.8727 14.6513C64.4192 14.6797 64.3208 14.6741 64.4699 14.6291C64.6132 14.5858 64.5209 14.5844 64.1345 14.6237C63.7885 14.6588 63.5774 14.6593 63.5318 14.6246C63.4832 14.5874 63.1157 14.5927 62.3155 14.6422C61.6881 14.681 61.0648 14.702 60.9391 14.6888C60.8035 14.6741 60.5917 14.6988 60.42 14.7486C60.262 14.7947 60.048 14.8329 59.9499 14.8325C59.8468 14.8321 59.7716 14.8713 59.7746 14.9241C59.7779 14.983 59.8937 15.0148 60.0938 15.012C60.2671 15.0095 60.4089 15.0273 60.4103 15.0518C60.4116 15.0759 60.5867 15.086 60.8001 15.074C61.0136 15.062 61.2795 15.0481 61.3942 15.0429C61.5109 15.0377 61.787 15.0111 62.0262 14.982C62.5067 14.9236 62.3842 14.9315 63.9335 14.8576C64.8006 14.8161 65.1931 14.7787 65.3446 14.7228C65.6291 14.6173 65.5661 14.6077 64.8727 14.6513ZM63.3081 18.0208C63.1894 18.0425 63.1264 18.0673 63.1646 18.0776C63.2018 18.0876 63.2985 18.0786 63.3776 18.0581C63.6043 17.999 63.5603 17.975 63.3081 18.0208ZM52.8654 18.3228C52.7884 18.3114 52.7247 18.3242 52.7262 18.3505C52.7277 18.3769 52.7921 18.3952 52.8692 18.3909C52.9493 18.3864 53.0091 18.3745 53.0084 18.3631C53.0078 18.3517 52.9463 18.3346 52.8654 18.3228ZM49.5435 16.7181C49.3832 16.7232 49.1942 16.7292 49.1031 16.7317C49.0091 16.7344 48.9193 16.7597 48.8854 16.7923C48.8488 16.8287 49.002 16.8371 49.322 16.8158C49.8415 16.7817 50.0205 16.7027 49.5435 16.7181ZM20.8581 16.422C20.5788 16.4615 20.5141 16.5096 20.6781 16.5536C20.806 16.588 21.3064 16.4609 21.2138 16.4177C21.17 16.3976 21.0174 16.3993 20.8581 16.422ZM11.8269 20.7644C11.7526 20.7842 11.6964 20.8236 11.6981 20.8546C11.7 20.8891 11.7511 20.8804 11.8346 20.8316C12.0006 20.7337 11.9998 20.7184 11.8269 20.7644ZM8.83155 20.3325C8.67204 20.3519 8.50037 20.3841 8.45388 20.4037C8.40837 20.4229 8.48155 20.4198 8.6141 20.397C8.77316 20.3694 8.88858 20.377 8.94344 20.4184C8.99212 20.4555 9.07714 20.469 9.14551 20.4508C9.3731 20.3903 9.124 20.2971 8.83155 20.3325ZM4.94563 20.8474C4.86558 20.8519 4.80583 20.8647 4.80655 20.8774C4.80726 20.8901 4.86875 20.9083 4.94971 20.9201C5.02368 20.9309 5.0903 20.9167 5.0888 20.89C5.0873 20.8633 5.01876 20.8433 4.94563 20.8474Z" fill="#7101E0" fill-opacity="0.4"/>
<path d="M189.317 13.417C189.238 13.4215 189.205 13.4011 189.248 13.3745C189.296 13.3453 189.36 13.3218 189.398 13.3197C189.436 13.3175 189.465 13.3358 189.466 13.3622C189.47 13.3862 189.397 13.4125 189.317 13.417Z" fill="#7101E0" fill-opacity="0.4"/>
<path d="M189.133 12.4916C188.933 12.5029 188.857 12.4976 188.958 12.4795C189.05 12.4629 189.221 12.4533 189.312 12.4597C189.411 12.4662 189.334 12.4803 189.133 12.4916Z" fill="#7101E0" fill-opacity="0.4"/>
<path d="M188.839 13.9151C188.796 13.8822 188.799 13.8432 188.847 13.8241C188.892 13.8062 188.928 13.8326 188.923 13.8816C188.919 13.9351 188.884 13.9488 188.839 13.9151Z" fill="#7101E0" fill-opacity="0.4"/>
<path d="M188.468 13.9197C188.358 13.9566 188.223 13.9651 188.088 13.9443C187.899 13.915 187.899 13.9066 188.083 13.8563C188.215 13.8205 188.305 13.8161 188.336 13.8444C188.364 13.8693 188.442 13.8731 188.517 13.8532C188.715 13.8016 188.679 13.8494 188.468 13.9197Z" fill="#7101E0" fill-opacity="0.4"/>
<path d="M187.316 12.5097C187.236 12.5142 187.175 12.4977 187.173 12.4713C187.172 12.4449 187.231 12.4217 187.311 12.4172C187.391 12.4127 187.452 12.4292 187.454 12.4556C187.455 12.4819 187.396 12.5052 187.316 12.5097Z" fill="#7101E0" fill-opacity="0.4"/>
<path d="M186.543 12.505C186.436 12.511 186.304 12.4988 186.26 12.4791C186.213 12.4579 186.298 12.4381 186.457 12.4327C186.779 12.4222 186.855 12.4875 186.543 12.505Z" fill="#7101E0" fill-opacity="0.4"/>
<path d="M186.075 7.3529C186.034 7.32443 186.039 7.28169 186.083 7.26417C186.13 7.24588 186.165 7.27072 186.159 7.31937C186.154 7.37297 186.12 7.3863 186.075 7.3529Z" fill="#7101E0" fill-opacity="0.4"/>
<path d="M185.486 12.5192C185.411 12.5234 185.386 12.4937 185.429 12.4518C185.472 12.4095 185.528 12.3756 185.558 12.374C185.587 12.3723 185.613 12.4019 185.615 12.4413C185.617 12.4808 185.561 12.515 185.486 12.5192Z" fill="#7101E0" fill-opacity="0.4"/>
<path d="M184.808 10.5624C184.729 10.5669 184.666 10.5394 184.664 10.4999C184.662 10.4605 184.722 10.4385 184.802 10.4504C184.883 10.4622 184.945 10.4891 184.946 10.5129C184.947 10.5367 184.888 10.5579 184.808 10.5624Z" fill="#7101E0" fill-opacity="0.4"/>
<path d="M184.082 10.1412C183.868 10.1532 183.805 10.0753 183.982 10.0171C184.11 9.97455 184.158 9.98231 184.178 10.0476C184.19 10.0952 184.148 10.1375 184.082 10.1412Z" fill="#7101E0" fill-opacity="0.4"/>
<path d="M184.027 13.9921C183.951 13.9964 183.885 13.9782 183.884 13.9518C183.883 13.9254 183.945 13.9127 184.023 13.924C184.104 13.9358 184.166 13.9533 184.166 13.9647C184.167 13.9758 184.107 13.9876 184.027 13.9921Z" fill="#7101E0" fill-opacity="0.4"/>
<path d="M183.945 12.5382C183.865 12.559 183.805 12.5549 183.803 12.5285C183.802 12.5021 183.86 12.4668 183.939 12.4457C184.018 12.4249 184.079 12.429 184.081 12.4554C184.082 12.4821 184.024 12.5175 183.945 12.5382Z" fill="#7101E0" fill-opacity="0.4"/>
<path d="M182.851 10.6984C182.772 10.7192 182.711 10.7151 182.709 10.6887C182.708 10.6623 182.766 10.627 182.846 10.6062C182.925 10.5854 182.985 10.5895 182.987 10.6159C182.988 10.6423 182.93 10.6776 182.851 10.6984Z" fill="#7101E0" fill-opacity="0.4"/>
<path d="M181.974 7.19363C181.886 7.24559 181.8 7.23641 181.606 7.15482C181.357 7.0495 181.358 7.04782 181.673 7.04418C182.034 7.03989 182.142 7.09336 181.974 7.19363Z" fill="#7101E0" fill-opacity="0.4"/>
<path d="M180.284 12.5677C180.124 12.5806 180.003 12.571 180.002 12.5459C180 12.5209 180.119 12.4952 180.279 12.4863C180.439 12.4773 180.561 12.4865 180.562 12.508C180.563 12.5295 180.443 12.5551 180.284 12.5677Z" fill="#7101E0" fill-opacity="0.4"/>
<path d="M179.827 11.3257C179.761 11.3431 179.515 11.3658 179.274 11.377C178.981 11.3905 178.861 11.3766 178.904 11.3337C178.939 11.2991 179.155 11.2621 179.381 11.2517C179.795 11.2324 180.031 11.2718 179.827 11.3257Z" fill="#7101E0" fill-opacity="0.4"/>
<path d="M178.274 0.735688C178.114 0.743373 178.078 0.73462 178.186 0.714183C178.292 0.694509 178.41 0.688558 178.46 0.701096C178.507 0.712496 178.421 0.728454 178.274 0.735688Z" fill="#7101E0" fill-opacity="0.4"/>
<path d="M178.737 11.2302C178.616 11.237 178.522 11.222 178.521 11.1959C178.519 11.1699 178.611 11.1445 178.732 11.1377C178.851 11.131 178.946 11.1459 178.948 11.172C178.949 11.198 178.856 11.2235 178.737 11.2302Z" fill="#7101E0" fill-opacity="0.4"/>
<path d="M178.6 12.5805C178.346 12.5947 178.306 12.5836 178.43 12.5348C178.561 12.4833 178.627 12.4796 178.763 12.5161C178.893 12.5506 178.853 12.5663 178.6 12.5805Z" fill="#7101E0" fill-opacity="0.4"/>
<path d="M172.835 3.24262C172.7 3.23219 172.619 3.21062 172.659 3.19532C172.698 3.18007 172.812 3.189 172.908 3.21435C173.051 3.25306 173.037 3.25839 172.835 3.24262Z" fill="#7101E0" fill-opacity="0.4"/>
<path d="M170.2 7.12045C170.04 7.12814 170.004 7.11906 170.112 7.09895C170.218 7.07927 170.335 7.07332 170.386 7.08586C170.433 7.09726 170.348 7.11316 170.2 7.12045Z" fill="#7101E0" fill-opacity="0.4"/>
<path d="M169.638 7.10457C169.478 7.11095 169.441 7.10127 169.55 7.08078C169.656 7.06111 169.773 7.05613 169.824 7.06997C169.871 7.08268 169.786 7.09858 169.638 7.10457Z" fill="#7101E0" fill-opacity="0.4"/>
<path d="M166.529 7.13772C166.392 7.1431 166.113 7.14045 165.927 7.13166C165.61 7.11743 165.624 7.11269 166.091 7.08058C166.372 7.06124 166.645 7.06385 166.694 7.08659C166.74 7.1082 166.662 7.13252 166.529 7.13772Z" fill="#7101E0" fill-opacity="0.4"/>
<path d="M165.622 6.75198C165.242 6.73544 164.939 6.73841 164.324 6.76374C164.111 6.77247 163.936 6.76008 163.934 6.73565C163.933 6.71186 164.012 6.69629 164.107 6.70177C164.201 6.70725 164.596 6.70407 164.97 6.69515C165.344 6.68623 165.729 6.69891 165.814 6.72292C165.936 6.75693 165.891 6.76371 165.622 6.75198Z" fill="#7101E0" fill-opacity="0.4"/>
<path d="M165.415 7.15821C165.35 7.16057 165.18 7.15111 165.019 7.13631C164.749 7.11128 164.75 7.10927 165.043 7.09084C165.216 7.07982 165.389 7.08939 165.439 7.11273C165.49 7.13635 165.48 7.15553 165.415 7.15821Z" fill="#7101E0" fill-opacity="0.4"/>
<path d="M162.465 6.75519C162.278 6.76926 162.151 6.76105 162.189 6.73765C162.276 6.68439 162.806 6.64678 162.809 6.69401C162.81 6.71291 162.651 6.74112 162.465 6.75519Z" fill="#7101E0" fill-opacity="0.4"/>
<path d="M161.189 6.79033C161.028 6.79802 160.992 6.78894 161.1 6.76883C161.206 6.74915 161.324 6.7432 161.374 6.75574C161.421 6.76714 161.335 6.78343 161.189 6.79033Z" fill="#7101E0" fill-opacity="0.4"/>
<path d="M155.011 12.4717C154.811 12.4836 154.348 12.3766 154.441 12.3396C154.469 12.3286 154.656 12.3518 154.845 12.3898C155.035 12.4279 155.111 12.4657 155.011 12.4717Z" fill="#7101E0" fill-opacity="0.4"/>
<path d="M153.73 12.4018C153.65 12.4063 153.552 12.3919 153.5 12.3683C153.449 12.3447 153.471 12.3235 153.551 12.319C153.631 12.3145 153.729 12.329 153.781 12.3525C153.832 12.3762 153.81 12.3973 153.73 12.4018Z" fill="#7101E0" fill-opacity="0.4"/>
<path d="M151.835 12.4147C151.648 12.4252 151.464 12.4055 151.417 12.3699C151.368 12.3328 151.383 12.3035 151.453 12.2995C151.518 12.2959 151.602 12.3177 151.637 12.3465C151.688 12.3893 151.746 12.3848 151.93 12.3235C152.126 12.2575 152.16 12.2573 152.164 12.3214C152.167 12.3693 152.048 12.4028 151.835 12.4147Z" fill="#7101E0" fill-opacity="0.4"/>
<path d="M150.502 12.5598C150.423 12.5809 150.337 12.5798 150.287 12.5575C150.241 12.5366 150.298 12.5029 150.417 12.4809C150.643 12.4388 150.713 12.5042 150.502 12.5598Z" fill="#7101E0" fill-opacity="0.4"/>
<path d="M146.927 12.2425C146.83 12.2591 146.573 12.266 146.346 12.2578C146.116 12.2498 145.696 12.2515 145.389 12.2622C144.814 12.282 144.705 12.2447 145.075 12.155C145.222 12.1196 145.48 12.1048 145.749 12.1168C145.992 12.128 146.385 12.1262 146.639 12.1129C147.093 12.0898 147.292 12.1796 146.927 12.2425Z" fill="#7101E0" fill-opacity="0.4"/>
<path d="M144.079 12.7835C143.865 12.7857 143.548 12.7941 143.371 12.8024C142.92 12.8231 142.992 12.7272 143.445 12.7027C143.952 12.6753 144.462 12.6937 144.464 12.74C144.467 12.7614 144.294 12.7809 144.079 12.7835Z" fill="#7101E0" fill-opacity="0.4"/>
<path d="M138.882 15.9454C138.801 15.9336 138.74 15.9161 138.739 15.905C138.738 15.894 138.798 15.8818 138.878 15.8773C138.954 15.873 139.02 15.8916 139.021 15.918C139.023 15.944 138.959 15.9568 138.882 15.9454Z" fill="#7101E0" fill-opacity="0.4"/>
<path d="M137.81 12.6954C137.703 12.7014 137.53 12.6804 137.439 12.6499C137.3 12.6035 137.322 12.595 137.563 12.6024C137.912 12.6129 138.088 12.6798 137.81 12.6954Z" fill="#7101E0" fill-opacity="0.4"/>
<path d="M136.953 12.0847C136.499 12.1004 136.333 12.0846 136.294 12.0224C136.25 11.951 136.282 11.9443 136.525 11.9741C136.687 11.9941 136.928 12.0021 137.088 11.9931C137.248 11.9841 137.409 11.996 137.464 12.0207C137.528 12.0491 137.354 12.071 136.953 12.0847Z" fill="#7101E0" fill-opacity="0.4"/>
<path d="M137.015 12.6913C136.935 12.6958 136.874 12.6793 136.872 12.653C136.871 12.6266 136.93 12.6033 137.01 12.5988C137.09 12.5943 137.152 12.6108 137.153 12.6372C137.155 12.6636 137.095 12.6868 137.015 12.6913Z" fill="#7101E0" fill-opacity="0.4"/>
<path d="M130.712 16.0076C130.563 15.9898 130.449 15.9665 130.448 15.9541C130.447 15.9417 130.56 15.9259 130.707 15.9177C130.854 15.9094 130.968 15.9327 130.97 15.9712C130.973 16.0233 130.913 16.0319 130.712 16.0076Z" fill="#7101E0" fill-opacity="0.4"/>
<path d="M128.676 16.2163C128.53 16.2245 128.485 16.2136 128.567 16.1894C128.646 16.166 128.75 16.1271 128.81 16.0986C128.87 16.0701 128.916 16.0815 128.919 16.1255C128.921 16.1672 128.809 16.2088 128.676 16.2163Z" fill="#7101E0" fill-opacity="0.4"/>
<path d="M111.59 8.00384C111.513 8.00811 111.448 7.98989 111.446 7.96318C111.445 7.93679 111.508 7.92412 111.586 7.93543C111.667 7.94722 111.728 7.96469 111.729 7.97609C111.729 7.98749 111.67 7.99935 111.59 8.00384Z" fill="#7101E0" fill-opacity="0.4"/>
<path d="M110.346 8.0288C110.266 8.0333 110.168 8.01886 110.117 7.99525C110.066 7.97164 110.088 7.95049 110.168 7.94599C110.248 7.9415 110.346 7.95593 110.397 7.97955C110.448 8.00316 110.426 8.02431 110.346 8.0288Z" fill="#7101E0" fill-opacity="0.4"/>
<path d="M109.547 16.6913C109.47 16.6956 109.405 16.6771 109.404 16.651C109.402 16.6249 109.465 16.6119 109.543 16.6233C109.624 16.635 109.685 16.6525 109.686 16.6636C109.685 16.675 109.627 16.6868 109.547 16.6913Z" fill="#7101E0" fill-opacity="0.4"/>
<path d="M108.859 16.6649C108.271 16.6767 108.132 16.6286 108.668 16.5985C108.908 16.5851 109.148 16.5925 109.197 16.6152C109.251 16.6397 109.113 16.6598 108.859 16.6649Z" fill="#7101E0" fill-opacity="0.4"/>
<path d="M107.907 8.11692C107.693 8.12891 107.518 8.11913 107.517 8.09469C107.514 8.0354 107.794 8.01899 108.077 8.06226C108.249 8.08855 108.213 8.09972 107.907 8.11692Z" fill="#7101E0" fill-opacity="0.4"/>
<path d="M106.394 16.7755C106.273 16.7823 106.186 16.7685 106.185 16.7431C106.184 16.7177 106.27 16.7053 106.391 16.7139C106.511 16.7225 106.599 16.7362 106.6 16.7463C106.601 16.7564 106.515 16.7687 106.394 16.7755Z" fill="#7101E0" fill-opacity="0.4"/>
<path d="M100.286 8.35678C100.126 8.36447 100.09 8.35571 100.198 8.33528C100.304 8.3156 100.421 8.30965 100.472 8.32219C100.519 8.33359 100.433 8.34955 100.286 8.35678Z" fill="#7101E0" fill-opacity="0.4"/>
<path d="M75.8783 17.7231C75.8031 17.7431 75.7377 17.7265 75.7355 17.687C75.7333 17.6476 75.7947 17.6108 75.8718 17.6065C75.9518 17.602 76.0132 17.6175 76.0146 17.6426C76.015 17.6681 75.9574 17.7024 75.8783 17.7231Z" fill="#7101E0" fill-opacity="0.4"/>
<path d="M74.8816 17.7074C74.666 17.6812 74.5456 17.6906 74.3753 17.7472C74.1913 17.8085 74.1626 17.8092 74.213 17.7521C74.3266 17.6222 74.6929 17.5598 74.9435 17.6271C75.2615 17.7122 75.2319 17.7498 74.8816 17.7074Z" fill="#7101E0" fill-opacity="0.4"/>
<path d="M19.2499 19.2575C19.1303 19.2642 19.0728 19.2472 19.1208 19.2184C19.1687 19.1892 19.2631 19.1757 19.3401 19.1871C19.528 19.2145 19.49 19.244 19.2499 19.2575Z" fill="#7101E0" fill-opacity="0.4"/>
<path d="M17.9368 19.3564C17.8645 19.3755 17.7967 19.3685 17.7952 19.3421C17.7938 19.3157 17.8596 19.2879 17.9327 19.2837C18.0128 19.2793 18.0736 19.2853 18.0743 19.298C18.075 19.3107 18.016 19.3356 17.9368 19.3564Z" fill="#7101E0" fill-opacity="0.4"/>
<path d="M13.31 14.6811C13.056 14.6954 12.9117 14.6842 12.9606 14.6543C13.0085 14.6255 13.1586 14.5968 13.3048 14.5886C13.4521 14.5803 13.6044 14.5921 13.6543 14.6154C13.7062 14.6396 13.563 14.6669 13.31 14.6811Z" fill="#7101E0" fill-opacity="0.4"/>
<path d="M9.67717 21.1228C9.45249 21.1645 9.18245 21.1397 9.17894 21.0772C9.17775 21.056 9.33623 21.0184 9.52235 20.9962C9.90838 20.9503 10.0373 21.0561 9.67717 21.1228Z" fill="#7101E0" fill-opacity="0.4"/>
<path d="M7.91587 21.2322C7.72909 21.2427 7.64843 21.2361 7.74059 21.2179C7.83374 21.1996 7.99383 21.1906 8.08746 21.1984C8.18108 21.2062 8.10265 21.2217 7.91587 21.2322Z" fill="#7101E0" fill-opacity="0.4"/>
<path d="M7.22206 13.7016C7.1411 13.6898 7.07906 13.6619 7.07765 13.6369C7.07624 13.6118 7.13547 13.5895 7.21551 13.585C7.29161 13.5807 7.35769 13.61 7.35992 13.6498C7.36215 13.6895 7.29903 13.713 7.22206 13.7016Z" fill="#7101E0" fill-opacity="0.4"/>
<path d="M6.7962 13.7744C6.72391 13.7934 6.6561 13.7865 6.65464 13.7604C6.65316 13.734 6.71901 13.7061 6.79214 13.702C6.87218 13.6975 6.933 13.7036 6.93369 13.716C6.93439 13.7284 6.87533 13.7536 6.7962 13.7744Z" fill="#7101E0" fill-opacity="0.4"/>
<path d="M1.16738 21.1772C0.956353 21.2325 0.875429 21.2037 1.00958 21.121C1.08047 21.0772 1.15433 21.0684 1.21637 21.0963C1.26924 21.1198 1.24653 21.1567 1.16738 21.1772Z" fill="#7101E0" fill-opacity="0.4"/>
<path d="M95.0813 14.3282C95.0003 14.3164 94.9389 14.2989 94.9383 14.2879C94.9376 14.2765 94.9974 14.2646 95.0775 14.2601C95.1536 14.2558 95.2191 14.2744 95.2205 14.3008C95.222 14.3268 95.1593 14.3395 95.0813 14.3282Z" fill="#7101E0" fill-opacity="0.4"/>
<path d="M94.0592 14.39C93.9572 14.4091 93.7194 14.4127 93.5312 14.3978C93.2146 14.3727 93.2282 14.3684 93.7083 14.3385C94.2418 14.3053 94.3927 14.3272 94.0592 14.39Z" fill="#7101E0" fill-opacity="0.4"/>
<path d="M92.629 14.4393C92.1358 14.465 92.1068 14.4611 92.3932 14.4061C92.5913 14.3678 92.8087 14.3566 92.9536 14.3769C93.1335 14.4021 93.056 14.4169 92.629 14.4393Z" fill="#7101E0" fill-opacity="0.4"/>
<path d="M89.6204 14.5411C89.5394 14.5293 89.478 14.5119 89.4773 14.5005C89.4767 14.489 89.5365 14.4772 89.6165 14.4727C89.6926 14.4684 89.7581 14.487 89.7596 14.513C89.7611 14.5397 89.6983 14.5524 89.6204 14.5411Z" fill="#7101E0" fill-opacity="0.4"/>
<path d="M64.0349 15.6841C63.9457 15.7192 63.2606 15.7188 63.2586 15.6836C63.2577 15.6666 63.4436 15.6399 63.6697 15.6242C64.0706 15.5968 64.2017 15.6185 64.0349 15.6841Z" fill="#7101E0" fill-opacity="0.4"/>
<path d="M62.8991 15.7376C62.7389 15.7453 62.7037 15.7368 62.8106 15.7161C62.9038 15.6985 63.0323 15.6922 63.0776 15.7034C63.1258 15.7151 63.0454 15.7307 62.8991 15.7376Z" fill="#7101E0" fill-opacity="0.4"/>
<path d="M61.9216 15.7865C61.6143 15.8038 61.5061 15.8007 61.6804 15.7801C61.8537 15.7596 62.1096 15.7452 62.2407 15.7487C62.3727 15.752 62.229 15.7692 61.9216 15.7865Z" fill="#7101E0" fill-opacity="0.4"/>
<path d="M60.5222 15.8854C60.3223 15.909 60.1292 15.912 60.0874 15.8925C60.0447 15.8727 60.1989 15.8464 60.439 15.8329C60.9598 15.8036 60.9999 15.8288 60.5222 15.8854Z" fill="#7101E0" fill-opacity="0.4"/>
<path d="M59.5079 15.9514C59.0707 16.0217 57.8077 16.0929 57.6668 16.0551C57.5803 16.0319 57.9309 15.9909 58.6379 15.9421C59.7173 15.8674 60.0099 15.8706 59.5079 15.9514Z" fill="#7101E0" fill-opacity="0.4"/>
<path d="M57.2692 16.1156C57.185 16.134 56.6156 16.163 55.9208 16.1841C55.5438 16.1954 56.0508 16.1153 56.6637 16.0669C57.2776 16.018 57.5953 16.044 57.2692 16.1156Z" fill="#7101E0" fill-opacity="0.4"/>
</g>
<defs>
<clipPath id="clip0_1686_2226">
<rect width="190.508" height="13.8076" fill="white" transform="matrix(0.998428 -0.0560535 -0.0560535 -0.998428 1.12891 24.4746)"/>
</clipPath>
</defs>
</svg>
