<svg width="45" height="50" viewBox="0 0 45 50" fill="none" xmlns="http://www.w3.org/2000/svg">
<path d="M24.7439 3.03095L26.2886 1.78118C26.7198 1.43297 26.786 0.80228 26.4378 0.371978C26.091 -0.0578117 25.4589 -0.125402 25.0286 0.222812L21.5059 3.07141C21.312 3.22757 21.1964 3.44293 21.1549 3.67086C21.1549 3.67133 21.1544 3.67226 21.1544 3.67366C21.1451 3.72447 21.1404 3.77528 21.139 3.82655C21.1386 3.8424 21.1344 3.85778 21.1344 3.8741C21.1344 3.88762 21.1376 3.9002 21.1386 3.91372C21.14 3.93237 21.1418 3.95101 21.1446 3.96966C21.1689 4.22417 21.2854 4.44932 21.4649 4.61247L24.2071 8.00319C24.4048 8.24792 24.6943 8.37564 24.987 8.37564C25.2084 8.37564 25.4313 8.30292 25.6163 8.15329C26.0466 7.80508 26.1137 7.17439 25.7655 6.74325L24.3582 5.00219C34.4176 6.11161 42.27 14.6588 42.27 25.0083C42.27 33.3262 37.0455 40.894 29.2699 43.8403C28.7525 44.0361 28.4915 44.6155 28.6877 45.1329C28.8392 45.5338 29.2205 45.7804 29.6247 45.7804C29.7431 45.7804 29.8624 45.7589 29.9794 45.7151C38.5298 42.4755 44.2755 34.1543 44.2755 25.0073C44.2732 13.6841 35.7255 4.32568 24.7443 3.02972L24.7439 3.03095ZM23.1255 46.0099C23.1194 45.9703 23.1134 45.9325 23.104 45.8948C23.0989 45.8752 23.0929 45.8565 23.0868 45.8388C23.0719 45.7913 23.0542 45.7451 23.0318 45.7004C23.0271 45.6911 23.0215 45.6822 23.0169 45.6729C22.988 45.6193 22.9553 45.5694 22.9185 45.5218C22.9171 45.5214 22.9171 45.5191 22.9157 45.5186L20.0671 41.9959C19.7203 41.5661 19.0882 41.4999 18.6579 41.8467C18.2277 42.1949 18.1605 42.8256 18.5088 43.2567L19.9324 45.0169C9.86559 43.9149 2.00501 35.3639 2.00501 25.0084C2.00501 16.6318 7.27892 9.04519 15.128 6.12989C15.6464 5.9369 15.9112 5.35982 15.7187 4.84097C15.5261 4.32168 14.9486 4.05925 14.4297 4.25037C5.7991 7.45601 0 15.7982 0 25.0083C0 36.3254 8.53791 45.6804 19.5097 46.9835L17.9836 48.2183C17.5524 48.5666 17.4862 49.1972 17.8344 49.6276C18.0321 49.8723 18.3215 50 18.6143 50C18.8357 50 19.0585 49.9273 19.2436 49.7767L22.7663 46.9281C22.7929 46.9062 22.8143 46.8806 22.8376 46.8568C22.8418 46.8535 22.8455 46.8493 22.8488 46.8461C22.8903 46.8046 22.9257 46.7612 22.9579 46.7137C22.963 46.7058 22.9686 46.6983 22.9733 46.6904C23.0022 46.6461 23.0269 46.6009 23.0474 46.5543C23.0539 46.5389 23.0609 46.5235 23.066 46.5081C23.0819 46.4662 23.0954 46.4238 23.1061 46.3799C23.1122 46.3566 23.1168 46.3333 23.1201 46.3096C23.1266 46.2709 23.1308 46.2322 23.1322 46.1935C23.1336 46.1767 23.1373 46.1609 23.1373 46.1441C23.1373 46.1301 23.1331 46.1166 23.1331 46.1035C23.1327 46.07 23.1285 46.0392 23.1248 46.0089L23.1255 46.0099Z" fill="#7101E0"/>
</svg>
