<svg width="43" height="29" viewBox="0 0 43 29" fill="none" xmlns="http://www.w3.org/2000/svg">
<path d="M16.4932 0H13.1591C11.896 0 10.7683 0.791081 10.3383 1.97868L2.01068 24.9787C1.30252 26.9346 2.75135 29 4.83148 29H12.5277C13.9878 29 15.236 27.9487 15.484 26.5097L19.4496 3.50972C19.7657 1.67616 18.3538 0 16.4932 0Z" fill="#8000FF"/>
<path d="M38.4932 0H35.1591C33.896 0 32.7683 0.791081 32.3383 1.97868L24.0107 24.9787C23.3025 26.9346 24.7513 29 26.8315 29H34.5277C35.9878 29 37.236 27.9487 37.484 26.5097L41.4496 3.50972C41.7657 1.67616 40.3538 0 38.4932 0Z" fill="#8000FF"/>
</svg>
