<svg width="652" height="416" viewBox="0 0 652 416" fill="none" xmlns="http://www.w3.org/2000/svg">
<path d="M396.793 85.3809H255.219L184.432 207.988L255.219 330.595H396.793L467.581 207.988L396.793 85.3809Z" fill="#1ED2FF"/>
<path d="M413.684 120.529L391.349 81.8438H288.895" stroke="#333333" stroke-width="2.7226" stroke-miterlimit="10" stroke-linecap="round"/>
<path d="M381.703 327.058H391.349L462.136 204.451L451.395 185.846" stroke="#333333" stroke-width="2.7226" stroke-miterlimit="10" stroke-linecap="round"/>
<path d="M366.93 327.059H374.021" stroke="#333333" stroke-width="2.7226" stroke-miterlimit="10" stroke-linecap="round"/>
<path d="M332.807 327.059H350.829" stroke="#333333" stroke-width="2.7226" stroke-miterlimit="10" stroke-linecap="round"/>
<path d="M233.084 298.15L249.775 327.058H324.535" stroke="#333333" stroke-width="2.7226" stroke-miterlimit="10" stroke-linecap="round"/>
<path d="M267.697 81.8438H249.774L178.986 204.451L195.373 232.833" stroke="#333333" stroke-width="2.7226" stroke-miterlimit="10" stroke-linecap="round"/>
<path d="M278.895 81.8438H275.775" stroke="#333333" stroke-width="2.7226" stroke-miterlimit="10" stroke-linecap="round"/>
<path d="M259.742 161.805C260.546 162.207 261.01 162.841 261.134 163.707C261.288 164.573 261.072 165.361 260.484 166.073C260.082 166.629 259.557 166.939 258.907 167C258.289 167.062 257.655 166.939 257.005 166.629C256.263 166.289 255.475 166.026 254.64 165.841C253.836 165.655 252.985 165.562 252.088 165.562C250.418 165.562 248.918 165.825 247.589 166.351C246.29 166.877 245.176 167.634 244.249 168.624C243.321 169.583 242.61 170.727 242.115 172.057C241.651 173.387 241.419 174.855 241.419 176.464C241.419 178.35 241.682 179.989 242.208 181.381C242.764 182.772 243.522 183.932 244.481 184.86C245.439 185.787 246.568 186.483 247.867 186.947C249.166 187.38 250.573 187.597 252.088 187.597C252.923 187.597 253.758 187.519 254.593 187.365C255.428 187.21 256.232 186.932 257.005 186.53C257.655 186.22 258.289 186.112 258.907 186.205C259.557 186.298 260.098 186.622 260.531 187.179C261.149 187.952 261.366 188.756 261.18 189.591C261.026 190.395 260.562 190.983 259.789 191.354C258.985 191.756 258.15 192.096 257.284 192.375C256.449 192.622 255.598 192.807 254.732 192.931C253.866 193.086 252.985 193.163 252.088 193.163C249.862 193.163 247.743 192.807 245.733 192.096C243.754 191.385 241.976 190.333 240.399 188.942C238.852 187.55 237.631 185.818 236.734 183.746C235.837 181.644 235.389 179.216 235.389 176.464C235.389 174.082 235.791 171.887 236.595 169.877C237.43 167.866 238.589 166.135 240.074 164.681C241.589 163.197 243.367 162.052 245.408 161.248C247.449 160.413 249.676 159.996 252.088 159.996C253.449 159.996 254.779 160.151 256.078 160.46C257.376 160.769 258.598 161.217 259.742 161.805ZM295.969 176.464C295.969 178.783 295.582 180.948 294.809 182.958C294.036 184.968 292.938 186.746 291.516 188.292C290.124 189.808 288.454 190.998 286.506 191.864C284.588 192.73 282.485 193.163 280.197 193.163C277.909 193.163 275.806 192.73 273.888 191.864C271.971 190.998 270.301 189.808 268.878 188.292C267.487 186.746 266.404 184.968 265.631 182.958C264.858 180.948 264.472 178.783 264.472 176.464C264.472 174.144 264.858 171.979 265.631 169.969C266.404 167.959 267.487 166.196 268.878 164.681C270.301 163.135 271.971 161.929 273.888 161.063C275.806 160.197 277.909 159.764 280.197 159.764C282.485 159.764 284.588 160.197 286.506 161.063C288.454 161.929 290.124 163.135 291.516 164.681C292.938 166.196 294.036 167.959 294.809 169.969C295.582 171.979 295.969 174.144 295.969 176.464ZM289.938 176.464C289.938 174.392 289.521 172.521 288.686 170.851C287.851 169.15 286.707 167.805 285.253 166.815C283.8 165.825 282.114 165.331 280.197 165.331C278.28 165.331 276.594 165.825 275.141 166.815C273.687 167.805 272.543 169.134 271.708 170.804C270.904 172.474 270.502 174.361 270.502 176.464C270.502 178.536 270.904 180.422 271.708 182.123C272.543 183.793 273.687 185.123 275.141 186.112C276.594 187.102 278.28 187.597 280.197 187.597C282.114 187.597 283.8 187.102 285.253 186.112C286.707 185.123 287.851 183.793 288.686 182.123C289.521 180.422 289.938 178.536 289.938 176.464ZM304.216 160.182C304.649 160.182 305.097 160.305 305.561 160.553C306.056 160.769 306.427 161.063 306.674 161.434L317.947 178.783L315.627 178.69L327.178 161.434C327.765 160.599 328.523 160.182 329.451 160.182C330.193 160.182 330.858 160.444 331.445 160.97C332.033 161.496 332.327 162.176 332.327 163.011V189.87C332.327 190.674 332.064 191.354 331.538 191.911C331.013 192.436 330.317 192.699 329.451 192.699C328.585 192.699 327.874 192.436 327.317 191.911C326.791 191.354 326.528 190.674 326.528 189.87V168.021L328.337 168.439L318.874 182.865C318.596 183.205 318.24 183.499 317.808 183.746C317.405 183.994 316.988 184.102 316.555 184.071C316.153 184.102 315.736 183.994 315.303 183.746C314.901 183.499 314.56 183.205 314.282 182.865L305.422 168.856L306.628 166.397V189.87C306.628 190.674 306.381 191.354 305.886 191.911C305.391 192.436 304.742 192.699 303.938 192.699C303.164 192.699 302.531 192.436 302.036 191.911C301.541 191.354 301.294 190.674 301.294 189.87V163.011C301.294 162.238 301.572 161.573 302.129 161.016C302.716 160.46 303.412 160.182 304.216 160.182ZM345.099 189.87C345.099 190.674 344.805 191.354 344.218 191.911C343.63 192.436 342.95 192.699 342.177 192.699C341.311 192.699 340.615 192.436 340.089 191.911C339.563 191.354 339.301 190.674 339.301 189.87V163.058C339.301 162.253 339.579 161.589 340.136 161.063C340.692 160.506 341.403 160.228 342.269 160.228C343.012 160.228 343.661 160.506 344.218 161.063C344.805 161.589 345.099 162.253 345.099 163.058V189.87ZM376.707 160.228C377.449 160.228 378.052 160.475 378.516 160.97C378.98 161.465 379.212 162.083 379.212 162.826V189.87C379.212 190.674 378.934 191.354 378.377 191.911C377.851 192.436 377.186 192.699 376.382 192.699C375.98 192.699 375.563 192.637 375.13 192.514C374.728 192.359 374.419 192.158 374.202 191.911L355.972 168.763L357.178 168.021V190.102C357.178 190.844 356.93 191.462 356.436 191.957C355.972 192.452 355.353 192.699 354.58 192.699C353.838 192.699 353.235 192.452 352.771 191.957C352.307 191.462 352.075 190.844 352.075 190.102V163.058C352.075 162.253 352.338 161.589 352.864 161.063C353.421 160.506 354.101 160.228 354.905 160.228C355.338 160.228 355.786 160.321 356.25 160.506C356.714 160.661 357.054 160.908 357.271 161.248L374.944 183.793L374.156 184.349V162.826C374.156 162.083 374.388 161.465 374.852 160.97C375.315 160.475 375.934 160.228 376.707 160.228ZM401.494 193.163C399.144 193.163 396.948 192.73 394.907 191.864C392.866 190.998 391.073 189.808 389.526 188.292C387.98 186.746 386.759 184.968 385.862 182.958C384.996 180.948 384.563 178.783 384.563 176.464C384.563 174.144 384.996 171.979 385.862 169.969C386.759 167.959 387.98 166.196 389.526 164.681C391.073 163.135 392.866 161.929 394.907 161.063C396.948 160.197 399.144 159.764 401.494 159.764C402.948 159.764 404.355 159.919 405.716 160.228C407.076 160.537 408.329 161.001 409.473 161.62C409.937 161.867 410.277 162.207 410.494 162.64C410.741 163.042 410.865 163.46 410.865 163.893C410.865 164.635 410.617 165.3 410.122 165.887C409.628 166.475 408.994 166.769 408.221 166.769C407.973 166.769 407.71 166.738 407.432 166.676C407.185 166.614 406.937 166.521 406.69 166.397C405.917 166.057 405.097 165.794 404.231 165.609C403.365 165.423 402.453 165.331 401.494 165.331C399.484 165.331 397.644 165.841 395.974 166.861C394.335 167.851 393.021 169.196 392.031 170.897C391.073 172.567 390.593 174.423 390.593 176.464C390.593 178.474 391.073 180.329 392.031 182.03C393.021 183.731 394.335 185.092 395.974 186.112C397.644 187.102 399.484 187.597 401.494 187.597C402.422 187.597 403.443 187.504 404.556 187.318C405.669 187.133 406.582 186.885 407.293 186.576L406.875 187.968V180.035L407.664 180.731H402.515C401.711 180.731 401.03 180.468 400.474 179.943C399.948 179.417 399.685 178.752 399.685 177.948C399.685 177.144 399.948 176.479 400.474 175.953C401.03 175.428 401.711 175.165 402.515 175.165H410.122C410.927 175.165 411.591 175.443 412.117 176C412.643 176.525 412.906 177.19 412.906 177.994V187.829C412.906 188.447 412.751 188.957 412.442 189.359C412.164 189.761 411.839 190.086 411.468 190.333C410.045 191.199 408.483 191.895 406.783 192.421C405.113 192.916 403.35 193.163 401.494 193.163Z" fill="#1778FF"/>
<path d="M266.743 230.622C264.704 230.622 262.869 230.375 261.238 229.88C259.606 229.355 258.048 228.452 256.562 227.171C256.184 226.85 255.892 226.486 255.688 226.078C255.484 225.671 255.383 225.263 255.383 224.855C255.383 224.185 255.616 223.602 256.082 223.107C256.577 222.583 257.189 222.321 257.917 222.321C258.47 222.321 258.965 222.495 259.402 222.845C260.509 223.748 261.602 224.433 262.679 224.899C263.786 225.365 265.141 225.598 266.743 225.598C267.821 225.598 268.811 225.437 269.714 225.117C270.617 224.768 271.345 224.316 271.899 223.763C272.452 223.18 272.729 222.525 272.729 221.796C272.729 220.922 272.467 220.18 271.943 219.568C271.418 218.956 270.617 218.446 269.539 218.039C268.462 217.602 267.092 217.267 265.432 217.034C263.859 216.801 262.475 216.451 261.281 215.985C260.087 215.49 259.082 214.878 258.266 214.15C257.48 213.393 256.883 212.519 256.475 211.528C256.067 210.509 255.863 209.373 255.863 208.12C255.863 206.227 256.344 204.61 257.305 203.27C258.295 201.93 259.621 200.911 261.281 200.212C262.942 199.512 264.777 199.163 266.787 199.163C268.68 199.163 270.428 199.454 272.03 200.037C273.661 200.59 274.987 201.304 276.006 202.178C276.851 202.848 277.273 203.62 277.273 204.494C277.273 205.134 277.026 205.717 276.53 206.241C276.035 206.766 275.453 207.028 274.783 207.028C274.346 207.028 273.952 206.897 273.603 206.635C273.137 206.227 272.511 205.848 271.724 205.498C270.938 205.12 270.107 204.814 269.233 204.581C268.36 204.319 267.544 204.188 266.787 204.188C265.534 204.188 264.471 204.348 263.597 204.668C262.752 204.989 262.111 205.426 261.674 205.979C261.238 206.533 261.019 207.173 261.019 207.902C261.019 208.776 261.267 209.504 261.762 210.086C262.286 210.64 263.029 211.091 263.99 211.441C264.951 211.761 266.102 212.053 267.442 212.315C269.19 212.635 270.719 213.014 272.03 213.451C273.37 213.888 274.477 214.456 275.351 215.155C276.225 215.825 276.88 216.684 277.317 217.733C277.754 218.752 277.972 220.005 277.972 221.49C277.972 223.384 277.448 225.015 276.399 226.384C275.351 227.753 273.967 228.802 272.248 229.53C270.559 230.258 268.724 230.622 266.743 230.622ZM311.122 214.893C311.122 217.077 310.758 219.116 310.03 221.01C309.301 222.903 308.267 224.578 306.927 226.035C305.617 227.462 304.044 228.583 302.208 229.399C300.402 230.215 298.422 230.622 296.266 230.622C294.11 230.622 292.13 230.215 290.324 229.399C288.518 228.583 286.945 227.462 285.605 226.035C284.294 224.578 283.274 222.903 282.546 221.01C281.818 219.116 281.454 217.077 281.454 214.893C281.454 212.708 281.818 210.669 282.546 208.776C283.274 206.882 284.294 205.222 285.605 203.794C286.945 202.338 288.518 201.202 290.324 200.386C292.13 199.571 294.11 199.163 296.266 199.163C298.422 199.163 300.402 199.571 302.208 200.386C304.044 201.202 305.617 202.338 306.927 203.794C308.267 205.222 309.301 206.882 310.03 208.776C310.758 210.669 311.122 212.708 311.122 214.893ZM305.442 214.893C305.442 212.941 305.048 211.179 304.262 209.606C303.476 208.004 302.398 206.736 301.029 205.804C299.66 204.872 298.072 204.406 296.266 204.406C294.46 204.406 292.872 204.872 291.503 205.804C290.134 206.736 289.057 207.989 288.27 209.562C287.513 211.135 287.134 212.912 287.134 214.893C287.134 216.844 287.513 218.621 288.27 220.223C289.057 221.796 290.134 223.049 291.503 223.981C292.872 224.913 294.46 225.379 296.266 225.379C298.072 225.379 299.66 224.913 301.029 223.981C302.398 223.049 303.476 221.796 304.262 220.223C305.048 218.621 305.442 216.844 305.442 214.893ZM344.276 214.893C344.276 217.077 343.912 219.116 343.184 221.01C342.456 222.903 341.422 224.578 340.082 226.035C338.771 227.462 337.198 228.583 335.363 229.399C333.557 230.215 331.576 230.622 329.42 230.622C327.265 230.622 325.284 230.215 323.478 229.399C321.672 228.583 320.099 227.462 318.759 226.035C317.448 224.578 316.429 222.903 315.701 221.01C314.972 219.116 314.608 217.077 314.608 214.893C314.608 212.708 314.972 210.669 315.701 208.776C316.429 206.882 317.448 205.222 318.759 203.794C320.099 202.338 321.672 201.202 323.478 200.386C325.284 199.571 327.265 199.163 329.42 199.163C331.576 199.163 333.557 199.571 335.363 200.386C337.198 201.202 338.771 202.338 340.082 203.794C341.422 205.222 342.456 206.882 343.184 208.776C343.912 210.669 344.276 212.708 344.276 214.893ZM338.596 214.893C338.596 212.941 338.203 211.179 337.416 209.606C336.63 208.004 335.552 206.736 334.183 205.804C332.814 204.872 331.226 204.406 329.42 204.406C327.614 204.406 326.027 204.872 324.658 205.804C323.289 206.736 322.211 207.989 321.424 209.562C320.667 211.135 320.288 212.912 320.288 214.893C320.288 216.844 320.667 218.621 321.424 220.223C322.211 221.796 323.289 223.049 324.658 223.981C326.027 224.913 327.614 225.379 329.42 225.379C331.226 225.379 332.814 224.913 334.183 223.981C335.552 223.049 336.63 221.796 337.416 220.223C338.203 218.621 338.596 216.844 338.596 214.893ZM372.493 199.6C373.193 199.6 373.761 199.833 374.198 200.299C374.634 200.765 374.853 201.348 374.853 202.047V227.52C374.853 228.278 374.591 228.918 374.066 229.443C373.571 229.938 372.945 230.186 372.188 230.186C371.809 230.186 371.416 230.127 371.008 230.011C370.629 229.865 370.338 229.676 370.134 229.443L352.962 207.639L354.098 206.94V227.739C354.098 228.438 353.865 229.02 353.399 229.486C352.962 229.953 352.38 230.186 351.651 230.186C350.952 230.186 350.384 229.953 349.947 229.486C349.51 229.02 349.292 228.438 349.292 227.739V202.265C349.292 201.508 349.54 200.882 350.035 200.386C350.559 199.862 351.2 199.6 351.957 199.6C352.365 199.6 352.787 199.687 353.224 199.862C353.661 200.008 353.982 200.241 354.186 200.561L370.833 221.796L370.09 222.321V202.047C370.09 201.348 370.309 200.765 370.746 200.299C371.183 199.833 371.765 199.6 372.493 199.6Z" fill="#1778FF"/>
<path d="M261.238 229.88L260.947 230.784L260.954 230.786L260.962 230.789L261.238 229.88ZM256.562 227.171L257.183 226.451L257.176 226.446L256.562 227.171ZM256.082 223.107L255.391 222.455L255.39 222.456L256.082 223.107ZM259.402 222.845L260.003 222.109L259.996 222.103L259.402 222.845ZM262.679 224.899L262.302 225.77L262.311 225.774L262.679 224.899ZM269.714 225.117L270.032 226.012L270.044 226.008L270.057 226.003L269.714 225.117ZM271.899 223.763L272.57 224.434L272.579 224.426L272.587 224.417L271.899 223.763ZM271.943 219.568L272.664 218.95L272.664 218.95L271.943 219.568ZM269.539 218.039L269.182 218.919L269.193 218.923L269.203 218.927L269.539 218.039ZM265.432 217.034L265.293 217.973L265.3 217.974L265.432 217.034ZM261.281 215.985L260.917 216.862L260.927 216.866L260.936 216.87L261.281 215.985ZM258.266 214.15L257.607 214.834L257.62 214.846L257.634 214.858L258.266 214.15ZM256.475 211.528L255.593 211.881L255.597 211.89L256.475 211.528ZM257.305 203.27L256.541 202.705L256.533 202.716L257.305 203.27ZM261.281 200.212L261.65 201.087L261.65 201.087L261.281 200.212ZM272.03 200.037L271.705 200.929L271.715 200.933L271.725 200.936L272.03 200.037ZM276.006 202.178L275.388 202.899L275.402 202.911L275.416 202.922L276.006 202.178ZM276.53 206.241L277.221 206.893L277.221 206.893L276.53 206.241ZM273.603 206.635L272.977 207.349L273.004 207.373L273.033 207.394L273.603 206.635ZM271.724 205.498L271.312 206.354L271.325 206.361L271.338 206.366L271.724 205.498ZM269.233 204.581L268.961 205.491L268.975 205.495L268.989 205.499L269.233 204.581ZM263.597 204.668L263.27 203.776L263.26 203.78L263.597 204.668ZM261.762 210.086L261.038 210.702L261.055 210.721L261.072 210.74L261.762 210.086ZM263.99 211.441L263.666 212.334L263.678 212.338L263.69 212.342L263.99 211.441ZM267.442 212.315L267.26 213.247L267.271 213.249L267.442 212.315ZM272.03 213.451L271.73 214.352L271.735 214.354L272.03 213.451ZM275.351 215.155L274.757 215.897L274.765 215.903L274.773 215.909L275.351 215.155ZM277.317 217.733L276.44 218.098L276.444 218.107L277.317 217.733ZM276.399 226.384L275.645 225.807L275.645 225.807L276.399 226.384ZM272.248 229.53L271.878 228.656L271.872 228.658L272.248 229.53ZM266.743 229.673C264.78 229.673 263.04 229.434 261.513 228.971L260.962 230.789C262.698 231.316 264.628 231.572 266.743 231.572V229.673ZM261.528 228.975C260.034 228.495 258.586 227.662 257.183 226.451L255.942 227.89C257.51 229.243 259.178 230.215 260.947 230.784L261.528 228.975ZM257.176 226.446C256.887 226.201 256.679 225.937 256.538 225.654L254.839 226.503C255.105 227.036 255.481 227.5 255.949 227.896L257.176 226.446ZM256.538 225.654C256.392 225.362 256.332 225.099 256.332 224.855H254.433C254.433 225.427 254.577 225.979 254.839 226.503L256.538 225.654ZM256.332 224.855C256.332 224.431 256.47 224.08 256.773 223.758L255.39 222.456C254.761 223.125 254.433 223.939 254.433 224.855H256.332ZM256.772 223.759C257.086 223.427 257.447 223.27 257.917 223.27V221.371C256.93 221.371 256.068 221.739 255.391 222.455L256.772 223.759ZM257.917 223.27C258.252 223.27 258.538 223.37 258.809 223.587L259.996 222.103C259.392 221.621 258.688 221.371 257.917 221.371V223.27ZM258.802 223.581C259.963 224.528 261.129 225.263 262.302 225.77L263.056 224.027C262.074 223.602 261.056 222.968 260.003 222.109L258.802 223.581ZM262.311 225.774C263.566 226.303 265.054 226.548 266.743 226.548V224.648C265.227 224.648 264.006 224.427 263.048 224.023L262.311 225.774ZM266.743 226.548C267.916 226.548 269.015 226.373 270.032 226.012L269.396 224.222C268.607 224.502 267.726 224.648 266.743 224.648V226.548ZM270.057 226.003C271.055 225.617 271.904 225.101 272.57 224.434L271.227 223.091C270.787 223.531 270.179 223.918 269.371 224.231L270.057 226.003ZM272.587 224.417C273.29 223.678 273.679 222.794 273.679 221.796H271.779C271.779 222.255 271.615 222.682 271.21 223.108L272.587 224.417ZM273.679 221.796C273.679 220.716 273.349 219.749 272.664 218.95L271.221 220.186C271.585 220.611 271.779 221.128 271.779 221.796H273.679ZM272.664 218.95C272.001 218.176 271.042 217.592 269.875 217.15L269.203 218.927C270.192 219.301 270.836 219.736 271.221 220.186L272.664 218.95ZM269.896 217.158C268.722 216.682 267.271 216.333 265.564 216.093L265.3 217.974C266.914 218.201 268.201 218.521 269.182 218.919L269.896 217.158ZM265.571 216.094C264.053 215.869 262.741 215.535 261.627 215.1L260.936 216.87C262.21 217.367 263.665 217.732 265.293 217.973L265.571 216.094ZM261.645 215.108C260.532 214.646 259.622 214.087 258.899 213.441L257.634 214.858C258.542 215.669 259.642 216.334 260.917 216.862L261.645 215.108ZM258.925 213.466C258.231 212.798 257.71 212.033 257.353 211.167L255.597 211.89C256.055 213.004 256.728 213.987 257.607 214.834L258.925 213.466ZM257.357 211.175C257 210.283 256.813 209.269 256.813 208.12H254.913C254.913 209.477 255.134 210.735 255.593 211.881L257.357 211.175ZM256.813 208.12C256.813 206.395 257.248 204.979 258.077 203.824L256.533 202.716C255.44 204.241 254.913 206.059 254.913 208.12H256.813ZM258.069 203.835C258.95 202.643 260.133 201.725 261.65 201.087L260.913 199.336C259.108 200.096 257.641 201.217 256.541 202.706L258.069 203.835ZM261.65 201.087C263.181 200.442 264.889 200.113 266.787 200.113V198.213C264.665 198.213 262.702 198.583 260.913 199.336L261.65 201.087ZM266.787 200.113C268.582 200.113 270.218 200.389 271.705 200.929L272.355 199.144C270.637 198.52 268.779 198.213 266.787 198.213V200.113ZM271.725 200.936C273.272 201.461 274.482 202.123 275.388 202.899L276.624 201.457C275.491 200.485 274.05 199.719 272.335 199.137L271.725 200.936ZM275.416 202.922C276.092 203.458 276.323 203.977 276.323 204.494H278.223C278.223 203.262 277.61 202.237 276.596 201.434L275.416 202.922ZM276.323 204.494C276.323 204.861 276.191 205.217 275.84 205.589L277.221 206.893C277.86 206.217 278.223 205.408 278.223 204.494H276.323ZM275.84 205.589C275.509 205.94 275.17 206.078 274.783 206.078V207.978C275.735 207.978 276.562 207.592 277.221 206.893L275.84 205.589ZM274.783 206.078C274.551 206.078 274.358 206.014 274.173 205.875L273.033 207.394C273.547 207.78 274.14 207.978 274.783 207.978V206.078ZM274.228 205.92C273.669 205.43 272.952 205.005 272.11 204.631L271.338 206.366C272.069 206.691 272.605 207.023 272.977 207.349L274.228 205.92ZM272.136 204.643C271.294 204.237 270.408 203.911 269.478 203.663L268.989 205.499C269.807 205.717 270.581 206.002 271.312 206.354L272.136 204.643ZM269.506 203.671C268.561 203.388 267.653 203.238 266.787 203.238V205.138C267.435 205.138 268.158 205.25 268.961 205.491L269.506 203.671ZM266.787 203.238C265.459 203.238 264.278 203.407 263.27 203.777L263.924 205.56C264.664 205.289 265.61 205.138 266.787 205.138V203.238ZM263.26 203.78C262.299 204.145 261.499 204.669 260.929 205.391L262.42 206.568C262.724 206.182 263.205 205.833 263.934 205.556L263.26 203.78ZM260.929 205.391C260.355 206.117 260.069 206.967 260.069 207.902H261.969C261.969 207.379 262.12 206.948 262.42 206.568L260.929 205.391ZM260.069 207.902C260.069 208.967 260.376 209.923 261.038 210.702L262.486 209.471C262.157 209.085 261.969 208.584 261.969 207.902H260.069ZM261.072 210.74C261.727 211.43 262.611 211.95 263.666 212.334L264.315 210.548C263.447 210.233 262.846 209.849 262.451 209.433L261.072 210.74ZM263.69 212.342C264.7 212.679 265.892 212.979 267.26 213.247L267.624 211.383C266.312 211.126 265.203 210.844 264.291 210.54L263.69 212.342ZM267.271 213.249C268.986 213.564 270.471 213.932 271.73 214.352L272.33 212.55C270.967 212.095 269.393 211.707 267.613 211.38L267.271 213.249ZM271.735 214.354C272.994 214.764 273.992 215.285 274.757 215.897L275.944 214.413C274.961 213.627 273.746 213.011 272.324 212.548L271.735 214.354ZM274.773 215.909C275.51 216.474 276.065 217.198 276.44 218.098L278.194 217.367C277.695 216.17 276.939 215.175 275.929 214.401L274.773 215.909ZM276.444 218.107C276.816 218.975 277.022 220.092 277.022 221.49H278.922C278.922 219.917 278.692 218.529 278.19 217.359L276.444 218.107ZM277.022 221.49C277.022 223.197 276.554 224.62 275.645 225.807L277.153 226.962C278.342 225.411 278.922 223.571 278.922 221.49H277.022ZM275.645 225.807C274.705 227.035 273.458 227.986 271.878 228.656L272.619 230.405C274.476 229.618 275.997 228.472 277.153 226.962L275.645 225.807ZM271.872 228.658C270.311 229.331 268.604 229.673 266.743 229.673V231.572C268.843 231.572 270.807 231.186 272.624 230.402L271.872 228.658ZM310.03 221.01L309.143 220.669L309.143 220.669L310.03 221.01ZM306.927 226.035L306.228 225.392L306.228 225.392L306.927 226.035ZM302.208 229.399L301.823 228.531L301.817 228.533L302.208 229.399ZM290.324 229.399L290.715 228.533L290.715 228.533L290.324 229.399ZM285.605 226.035L284.899 226.67L284.905 226.677L284.912 226.685L285.605 226.035ZM282.546 221.01L283.433 220.669L283.433 220.669L282.546 221.01ZM282.546 208.776L283.433 209.117L283.433 209.117L282.546 208.776ZM285.605 203.794L284.906 203.151L284.905 203.152L285.605 203.794ZM290.324 200.386L290.715 201.252L290.715 201.252L290.324 200.386ZM302.208 200.386L301.817 201.252L301.823 201.254L302.208 200.386ZM306.927 203.794L306.221 204.43L306.228 204.437L306.235 204.445L306.927 203.794ZM310.03 208.776L309.143 209.117L309.143 209.117L310.03 208.776ZM304.262 209.606L303.409 210.024L303.412 210.031L304.262 209.606ZM301.029 205.804L301.563 205.019L301.563 205.019L301.029 205.804ZM291.503 205.804L292.038 206.589L292.038 206.589L291.503 205.804ZM288.27 209.562L287.42 209.137L287.417 209.144L287.414 209.15L288.27 209.562ZM288.27 220.223L287.411 220.629L287.416 220.639L287.42 220.648L288.27 220.223ZM291.503 223.981L292.038 223.196L292.038 223.196L291.503 223.981ZM301.029 223.981L301.563 224.766L301.563 224.766L301.029 223.981ZM304.262 220.223L305.112 220.648L305.115 220.642L304.262 220.223ZM310.172 214.893C310.172 216.97 309.826 218.892 309.143 220.669L310.916 221.351C311.689 219.34 312.072 217.185 312.072 214.893H310.172ZM309.143 220.669C308.457 222.453 307.485 224.025 306.228 225.392L307.626 226.678C309.049 225.131 310.146 223.353 310.916 221.351L309.143 220.669ZM306.228 225.392C305.008 226.72 303.543 227.766 301.823 228.531L302.594 230.267C304.544 229.401 306.225 228.204 307.627 226.677L306.228 225.392ZM301.817 228.533C300.145 229.289 298.299 229.673 296.266 229.673V231.572C298.544 231.572 300.66 231.141 302.599 230.265L301.817 228.533ZM296.266 229.673C294.233 229.673 292.387 229.289 290.715 228.533L289.933 230.265C291.872 231.141 293.988 231.572 296.266 231.572V229.673ZM290.715 228.533C289.021 227.768 287.551 226.72 286.297 225.385L284.912 226.685C286.339 228.204 288.014 229.398 289.933 230.265L290.715 228.533ZM286.311 225.399C285.08 224.032 284.121 222.458 283.433 220.669L281.66 221.351C282.428 223.349 283.507 225.124 284.899 226.67L286.311 225.399ZM283.433 220.669C282.749 218.892 282.404 216.97 282.404 214.893H280.504C280.504 217.185 280.886 219.34 281.66 221.351L283.433 220.669ZM282.404 214.893C282.404 212.816 282.749 210.893 283.433 209.117L281.66 208.435C280.886 210.445 280.504 212.6 280.504 214.893H282.404ZM283.433 209.117C284.12 207.329 285.078 205.772 286.304 204.437L284.905 203.152C283.51 204.671 282.429 206.435 281.66 208.435L283.433 209.117ZM286.304 204.438C287.557 203.075 289.025 202.015 290.715 201.252L289.933 199.521C288.01 200.389 286.332 201.601 284.906 203.151L286.304 204.438ZM290.715 201.252C292.387 200.497 294.233 200.113 296.266 200.113V198.213C293.988 198.213 291.872 198.645 289.933 199.521L290.715 201.252ZM296.266 200.113C298.299 200.113 300.145 200.497 301.817 201.252L302.599 199.521C300.66 198.645 298.544 198.213 296.266 198.213V200.113ZM301.823 201.254C303.539 202.017 305.002 203.075 306.221 204.43L307.633 203.159C306.231 201.601 304.548 200.387 302.594 199.518L301.823 201.254ZM306.235 204.445C307.488 205.779 308.457 207.333 309.143 209.117L310.916 208.435C310.145 206.431 309.047 204.664 307.62 203.144L306.235 204.445ZM309.143 209.117C309.826 210.893 310.172 212.816 310.172 214.893H312.072C312.072 212.6 311.689 210.445 310.916 208.435L309.143 209.117ZM306.392 214.893C306.392 212.81 305.971 210.9 305.112 209.181L303.412 210.031C304.126 211.458 304.492 213.072 304.492 214.893H306.392ZM305.115 209.187C304.261 207.449 303.079 206.051 301.563 205.019L300.494 206.589C301.717 207.422 302.69 208.558 303.409 210.024L305.115 209.187ZM301.563 205.019C300.022 203.97 298.245 203.456 296.266 203.456V205.356C297.899 205.356 299.297 205.774 300.494 206.589L301.563 205.019ZM296.266 203.456C294.287 203.456 292.51 203.97 290.969 205.019L292.038 206.589C293.235 205.774 294.633 205.356 296.266 205.356V203.456ZM290.969 205.019C289.457 206.048 288.275 207.428 287.42 209.137L289.12 209.987C289.838 208.55 290.811 207.425 292.038 206.589L290.969 205.019ZM287.414 209.15C286.587 210.868 286.184 212.788 286.184 214.893H288.084C288.084 213.035 288.438 211.402 289.126 209.974L287.414 209.15ZM286.184 214.893C286.184 216.97 286.588 218.888 287.411 220.629L289.129 219.817C288.437 218.355 288.084 216.718 288.084 214.893H286.184ZM287.42 220.648C288.275 222.357 289.457 223.737 290.969 224.766L292.038 223.196C290.811 222.361 289.838 221.236 289.12 219.799L287.42 220.648ZM290.969 224.766C292.51 225.815 294.287 226.329 296.266 226.329V224.429C294.633 224.429 293.235 224.011 292.038 223.196L290.969 224.766ZM296.266 226.329C298.245 226.329 300.022 225.815 301.563 224.766L300.494 223.196C299.297 224.011 297.899 224.429 296.266 224.429V226.329ZM301.563 224.766C303.075 223.737 304.257 222.357 305.112 220.648L303.412 219.799C302.694 221.236 301.721 222.361 300.494 223.196L301.563 224.766ZM305.115 220.642C305.971 218.898 306.392 216.976 306.392 214.893H304.492C304.492 216.713 304.126 218.345 303.409 219.805L305.115 220.642ZM343.184 221.01L342.298 220.669L342.298 220.669L343.184 221.01ZM340.082 226.035L339.383 225.392L339.382 225.392L340.082 226.035ZM335.363 229.399L334.977 228.531L334.972 228.533L335.363 229.399ZM323.478 229.399L323.869 228.533L323.869 228.533L323.478 229.399ZM318.759 226.035L318.053 226.67L318.06 226.677L318.067 226.685L318.759 226.035ZM315.701 221.01L316.587 220.669L316.587 220.669L315.701 221.01ZM315.701 208.776L316.587 209.117L316.587 209.117L315.701 208.776ZM318.759 203.794L318.06 203.151L318.06 203.152L318.759 203.794ZM323.478 200.386L323.869 201.252L323.869 201.252L323.478 200.386ZM335.363 200.386L334.972 201.252L334.977 201.254L335.363 200.386ZM340.082 203.794L339.376 204.43L339.382 204.437L339.389 204.445L340.082 203.794ZM343.184 208.776L342.298 209.117L342.298 209.117L343.184 208.776ZM337.416 209.606L336.564 210.024L336.567 210.031L337.416 209.606ZM334.183 205.804L334.718 205.019L334.718 205.019L334.183 205.804ZM324.658 205.804L325.192 206.589L325.192 206.589L324.658 205.804ZM321.424 209.562L320.575 209.137L320.572 209.144L320.569 209.15L321.424 209.562ZM321.424 220.223L320.566 220.629L320.57 220.639L320.575 220.648L321.424 220.223ZM324.658 223.981L325.192 223.196L325.192 223.196L324.658 223.981ZM334.183 223.981L334.718 224.766L334.718 224.766L334.183 223.981ZM337.416 220.223L338.266 220.648L338.269 220.642L337.416 220.223ZM343.327 214.893C343.327 216.97 342.981 218.892 342.298 220.669L344.071 221.351C344.844 219.34 345.226 217.185 345.226 214.893H343.327ZM342.298 220.669C341.611 222.453 340.64 224.025 339.383 225.392L340.781 226.678C342.204 225.131 343.301 223.353 344.071 221.351L342.298 220.669ZM339.382 225.392C338.163 226.72 336.698 227.766 334.977 228.531L335.749 230.267C337.698 229.401 339.379 228.204 340.781 226.677L339.382 225.392ZM334.972 228.533C333.299 229.289 331.453 229.673 329.42 229.673V231.572C331.699 231.572 333.814 231.141 335.754 230.265L334.972 228.533ZM329.42 229.673C327.388 229.673 325.542 229.289 323.869 228.533L323.087 230.265C325.026 231.141 327.142 231.572 329.42 231.572V229.673ZM323.869 228.533C322.175 227.768 320.705 226.72 319.452 225.385L318.067 226.685C319.493 228.204 321.169 229.398 323.087 230.265L323.869 228.533ZM319.465 225.399C318.235 224.032 317.275 222.458 316.587 220.669L314.814 221.351C315.582 223.349 316.662 225.124 318.053 226.67L319.465 225.399ZM316.587 220.669C315.904 218.892 315.558 216.97 315.558 214.893H313.658C313.658 217.185 314.041 219.34 314.814 221.351L316.587 220.669ZM315.558 214.893C315.558 212.816 315.904 210.893 316.587 209.117L314.814 208.435C314.041 210.445 313.658 212.6 313.658 214.893H315.558ZM316.587 209.117C317.275 207.329 318.232 205.772 319.459 204.437L318.06 203.152C316.664 204.671 315.583 206.435 314.814 208.435L316.587 209.117ZM319.458 204.438C320.711 203.075 322.18 202.015 323.869 201.252L323.087 199.521C321.165 200.389 319.487 201.601 318.06 203.151L319.458 204.438ZM323.869 201.252C325.542 200.497 327.388 200.113 329.42 200.113V198.213C327.142 198.213 325.026 198.645 323.087 199.521L323.869 201.252ZM329.42 200.113C331.453 200.113 333.299 200.497 334.972 201.252L335.754 199.521C333.814 198.645 331.699 198.213 329.42 198.213V200.113ZM334.977 201.254C336.693 202.017 338.156 203.075 339.376 204.43L340.788 203.159C339.385 201.601 337.703 200.387 335.749 199.518L334.977 201.254ZM339.389 204.445C340.642 205.779 341.612 207.333 342.298 209.117L344.071 208.435C343.3 206.431 342.201 204.664 340.774 203.144L339.389 204.445ZM342.298 209.117C342.981 210.893 343.327 212.816 343.327 214.893H345.226C345.226 212.6 344.844 210.445 344.071 208.435L342.298 209.117ZM339.546 214.893C339.546 212.81 339.125 210.9 338.266 209.181L336.567 210.031C337.28 211.458 337.646 213.072 337.646 214.893H339.546ZM338.269 209.187C337.416 207.449 336.233 206.051 334.718 205.019L333.649 206.589C334.871 207.422 335.844 208.558 336.564 210.024L338.269 209.187ZM334.718 205.019C333.177 203.97 331.399 203.456 329.42 203.456V205.356C331.054 205.356 332.451 205.774 333.649 206.589L334.718 205.019ZM329.42 203.456C327.442 203.456 325.664 203.97 324.123 205.019L325.192 206.589C326.39 205.774 327.787 205.356 329.42 205.356V203.456ZM324.123 205.019C322.612 206.048 321.429 207.428 320.575 209.137L322.274 209.987C322.993 208.55 323.966 207.425 325.192 206.589L324.123 205.019ZM320.569 209.15C319.742 210.868 319.339 212.788 319.339 214.893H321.238C321.238 213.035 321.593 211.402 322.28 209.974L320.569 209.15ZM319.339 214.893C319.339 216.97 319.743 218.888 320.566 220.629L322.283 219.817C321.592 218.355 321.238 216.718 321.238 214.893H319.339ZM320.575 220.648C321.429 222.357 322.612 223.737 324.123 224.766L325.192 223.196C323.966 222.361 322.993 221.236 322.274 219.799L320.575 220.648ZM324.123 224.766C325.664 225.815 327.442 226.329 329.42 226.329V224.429C327.787 224.429 326.39 224.011 325.192 223.196L324.123 224.766ZM329.42 226.329C331.399 226.329 333.177 225.815 334.718 224.766L333.649 223.196C332.451 224.011 331.054 224.429 329.42 224.429V226.329ZM334.718 224.766C336.229 223.737 337.412 222.357 338.266 220.648L336.567 219.799C335.848 221.236 334.875 222.361 333.649 223.196L334.718 224.766ZM338.269 220.642C339.125 218.898 339.546 216.976 339.546 214.893H337.646C337.646 216.713 337.281 218.345 336.564 219.805L338.269 220.642ZM374.198 200.299L373.505 200.949L373.505 200.949L374.198 200.299ZM374.066 229.443L374.738 230.114L374.738 230.114L374.066 229.443ZM371.008 230.011L370.667 230.897L370.706 230.912L370.747 230.924L371.008 230.011ZM370.134 229.443L369.388 230.03L369.403 230.05L369.419 230.068L370.134 229.443ZM352.962 207.639L352.464 206.831L351.556 207.389L352.216 208.227L352.962 207.639ZM354.098 206.94H355.048V205.241L353.6 206.131L354.098 206.94ZM353.399 229.486L352.728 228.815L352.717 228.826L352.706 228.837L353.399 229.486ZM350.035 200.386L349.363 199.715L349.363 199.715L350.035 200.386ZM353.224 199.862L352.872 200.744L352.898 200.754L352.924 200.763L353.224 199.862ZM354.186 200.561L353.384 201.071L353.409 201.11L353.438 201.147L354.186 200.561ZM370.833 221.796L371.381 222.572L372.197 221.996L371.581 221.21L370.833 221.796ZM370.09 222.321H369.14V224.154L370.638 223.097L370.09 222.321ZM370.746 200.299L371.439 200.949L371.439 200.949L370.746 200.299ZM372.493 200.55C372.958 200.55 373.265 200.693 373.505 200.949L374.89 199.649C374.256 198.972 373.428 198.65 372.493 198.65V200.55ZM373.505 200.949C373.76 201.221 373.903 201.564 373.903 202.047H375.803C375.803 201.131 375.509 200.309 374.89 199.649L373.505 200.949ZM373.903 202.047V227.52H375.803V202.047H373.903ZM373.903 227.52C373.903 228.032 373.737 228.429 373.395 228.771L374.738 230.114C375.445 229.408 375.803 228.523 375.803 227.52H373.903ZM373.395 228.771C373.093 229.073 372.716 229.236 372.188 229.236V231.135C373.174 231.135 374.049 230.803 374.738 230.114L373.395 228.771ZM372.188 229.236C371.907 229.236 371.602 229.193 371.269 229.097L370.747 230.924C371.23 231.062 371.711 231.135 372.188 231.135V229.236ZM371.349 229.124C371.071 229.017 370.925 228.904 370.849 228.817L369.419 230.068C369.751 230.448 370.187 230.713 370.667 230.897L371.349 229.124ZM370.88 228.855L353.708 207.052L352.216 208.227L369.388 230.03L370.88 228.855ZM353.46 208.448L354.596 207.749L353.6 206.131L352.464 206.831L353.46 208.448ZM353.148 206.94V227.739H355.048V206.94H353.148ZM353.148 227.739C353.148 228.203 353.004 228.539 352.728 228.815L354.071 230.158C354.727 229.502 355.048 228.673 355.048 227.739H353.148ZM352.706 228.837C352.475 229.084 352.157 229.236 351.651 229.236V231.135C352.602 231.135 353.45 230.821 354.092 230.136L352.706 228.837ZM351.651 229.236C351.187 229.236 350.88 229.092 350.64 228.837L349.254 230.136C349.889 230.813 350.717 231.135 351.651 231.135V229.236ZM350.64 228.837C350.385 228.564 350.242 228.221 350.242 227.739H348.342C348.342 228.654 348.636 229.477 349.254 230.136L350.64 228.837ZM350.242 227.739V202.265H348.342V227.739H350.242ZM350.242 202.265C350.242 201.737 350.405 201.36 350.706 201.058L349.363 199.715C348.674 200.403 348.342 201.279 348.342 202.265H350.242ZM350.706 201.058C351.048 200.716 351.446 200.55 351.957 200.55V198.65C350.954 198.65 350.07 199.008 349.363 199.715L350.706 201.058ZM351.957 200.55C352.227 200.55 352.53 200.607 352.872 200.744L353.577 198.98C353.045 198.767 352.503 198.65 351.957 198.65V200.55ZM352.924 200.763C353.2 200.855 353.321 200.971 353.384 201.071L354.987 200.051C354.643 199.51 354.123 199.16 353.525 198.961L352.924 200.763ZM353.438 201.147L370.086 222.382L371.581 221.21L354.933 199.975L353.438 201.147ZM370.285 221.02L369.543 221.545L370.638 223.097L371.381 222.572L370.285 221.02ZM371.04 222.321V202.047H369.14V222.321H371.04ZM371.04 202.047C371.04 201.564 371.183 201.221 371.439 200.949L370.053 199.649C369.435 200.309 369.14 201.131 369.14 202.047H371.04ZM371.439 200.949C371.67 200.702 371.987 200.55 372.493 200.55V198.65C371.543 198.65 370.695 198.964 370.053 199.649L371.439 200.949Z" fill="#1778FF"/>
<path d="M257.006 159.069C257.81 159.471 258.274 160.105 258.397 160.971C258.552 161.837 258.336 162.625 257.748 163.336C257.346 163.893 256.82 164.202 256.171 164.264C255.552 164.326 254.918 164.202 254.269 163.893C253.527 163.553 252.738 163.29 251.903 163.104C251.099 162.919 250.249 162.826 249.352 162.826C247.682 162.826 246.182 163.089 244.852 163.615C243.553 164.14 242.44 164.898 241.512 165.888C240.585 166.846 239.873 167.991 239.379 169.32C238.915 170.65 238.683 172.119 238.683 173.727C238.683 175.614 238.946 177.253 239.471 178.644C240.028 180.036 240.786 181.196 241.744 182.123C242.703 183.051 243.832 183.747 245.131 184.211C246.429 184.644 247.837 184.86 249.352 184.86C250.187 184.86 251.022 184.783 251.857 184.628C252.692 184.474 253.496 184.195 254.269 183.793C254.918 183.484 255.552 183.376 256.171 183.469C256.82 183.561 257.362 183.886 257.794 184.443C258.413 185.216 258.629 186.02 258.444 186.855C258.289 187.659 257.825 188.247 257.052 188.618C256.248 189.02 255.413 189.36 254.547 189.638C253.712 189.886 252.862 190.071 251.996 190.195C251.13 190.349 250.249 190.427 249.352 190.427C247.125 190.427 245.007 190.071 242.997 189.36C241.018 188.649 239.239 187.597 237.662 186.205C236.116 184.814 234.894 183.082 233.998 181.01C233.101 178.907 232.652 176.48 232.652 173.727C232.652 171.346 233.054 169.15 233.858 167.14C234.693 165.13 235.853 163.398 237.338 161.945C238.853 160.46 240.631 159.316 242.672 158.512C244.713 157.677 246.94 157.26 249.352 157.26C250.713 157.26 252.042 157.414 253.341 157.724C254.64 158.033 255.862 158.481 257.006 159.069ZM293.232 173.727C293.232 176.047 292.846 178.211 292.073 180.221C291.3 182.232 290.202 184.01 288.779 185.556C287.388 187.071 285.718 188.262 283.769 189.128C281.852 189.994 279.749 190.427 277.461 190.427C275.172 190.427 273.069 189.994 271.152 189.128C269.235 188.262 267.565 187.071 266.142 185.556C264.75 184.01 263.668 182.232 262.895 180.221C262.122 178.211 261.735 176.047 261.735 173.727C261.735 171.408 262.122 169.243 262.895 167.233C263.668 165.223 264.75 163.46 266.142 161.945C267.565 160.399 269.235 159.192 271.152 158.327C273.069 157.461 275.172 157.028 277.461 157.028C279.749 157.028 281.852 157.461 283.769 158.327C285.718 159.192 287.388 160.399 288.779 161.945C290.202 163.46 291.3 165.223 292.073 167.233C292.846 169.243 293.232 171.408 293.232 173.727ZM287.202 173.727C287.202 171.655 286.785 169.784 285.95 168.114C285.115 166.413 283.97 165.068 282.517 164.079C281.063 163.089 279.378 162.594 277.461 162.594C275.543 162.594 273.858 163.089 272.404 164.079C270.951 165.068 269.807 166.398 268.972 168.068C268.168 169.738 267.766 171.624 267.766 173.727C267.766 175.799 268.168 177.686 268.972 179.387C269.807 181.056 270.951 182.386 272.404 183.376C273.858 184.365 275.543 184.86 277.461 184.86C279.378 184.86 281.063 184.365 282.517 183.376C283.97 182.386 285.115 181.056 285.95 179.387C286.785 177.686 287.202 175.799 287.202 173.727ZM301.48 157.445C301.913 157.445 302.361 157.569 302.825 157.816C303.32 158.033 303.691 158.327 303.938 158.698L315.21 176.047L312.891 175.954L324.441 158.698C325.029 157.863 325.787 157.445 326.714 157.445C327.457 157.445 328.122 157.708 328.709 158.234C329.297 158.759 329.591 159.44 329.591 160.275V187.133C329.591 187.937 329.328 188.618 328.802 189.174C328.276 189.7 327.58 189.963 326.714 189.963C325.849 189.963 325.137 189.7 324.581 189.174C324.055 188.618 323.792 187.937 323.792 187.133V165.285L325.601 165.702L316.138 180.129C315.86 180.469 315.504 180.763 315.071 181.01C314.669 181.257 314.252 181.366 313.819 181.335C313.417 181.366 312.999 181.257 312.566 181.01C312.164 180.763 311.824 180.469 311.546 180.129L302.686 166.12L303.892 163.661V187.133C303.892 187.937 303.644 188.618 303.15 189.174C302.655 189.7 302.005 189.963 301.201 189.963C300.428 189.963 299.794 189.7 299.299 189.174C298.805 188.618 298.557 187.937 298.557 187.133V160.275C298.557 159.502 298.836 158.837 299.392 158.28C299.98 157.724 300.676 157.445 301.48 157.445ZM342.363 187.133C342.363 187.937 342.069 188.618 341.481 189.174C340.894 189.7 340.213 189.963 339.44 189.963C338.574 189.963 337.879 189.7 337.353 189.174C336.827 188.618 336.564 187.937 336.564 187.133V160.321C336.564 159.517 336.843 158.852 337.399 158.327C337.956 157.77 338.667 157.492 339.533 157.492C340.275 157.492 340.925 157.77 341.481 158.327C342.069 158.852 342.363 159.517 342.363 160.321V187.133ZM373.971 157.492C374.713 157.492 375.316 157.739 375.78 158.234C376.244 158.729 376.476 159.347 376.476 160.089V187.133C376.476 187.937 376.197 188.618 375.641 189.174C375.115 189.7 374.45 189.963 373.646 189.963C373.244 189.963 372.827 189.901 372.394 189.777C371.992 189.623 371.682 189.422 371.466 189.174L353.235 166.027L354.442 165.285V187.365C354.442 188.107 354.194 188.726 353.699 189.221C353.235 189.715 352.617 189.963 351.844 189.963C351.102 189.963 350.499 189.715 350.035 189.221C349.571 188.726 349.339 188.107 349.339 187.365V160.321C349.339 159.517 349.602 158.852 350.128 158.327C350.684 157.77 351.365 157.492 352.169 157.492C352.602 157.492 353.05 157.584 353.514 157.77C353.978 157.925 354.318 158.172 354.534 158.512L372.208 181.056L371.419 181.613V160.089C371.419 159.347 371.651 158.729 372.115 158.234C372.579 157.739 373.198 157.492 373.971 157.492ZM398.758 190.427C396.408 190.427 394.212 189.994 392.171 189.128C390.13 188.262 388.336 187.071 386.79 185.556C385.244 184.01 384.022 182.232 383.125 180.221C382.26 178.211 381.827 176.047 381.827 173.727C381.827 171.408 382.26 169.243 383.125 167.233C384.022 165.223 385.244 163.46 386.79 161.945C388.336 160.399 390.13 159.192 392.171 158.327C394.212 157.461 396.408 157.028 398.758 157.028C400.212 157.028 401.619 157.182 402.979 157.492C404.34 157.801 405.592 158.265 406.737 158.883C407.201 159.131 407.541 159.471 407.757 159.904C408.005 160.306 408.128 160.723 408.128 161.156C408.128 161.898 407.881 162.563 407.386 163.151C406.891 163.738 406.257 164.032 405.484 164.032C405.237 164.032 404.974 164.001 404.696 163.939C404.448 163.878 404.201 163.785 403.953 163.661C403.18 163.321 402.361 163.058 401.495 162.873C400.629 162.687 399.717 162.594 398.758 162.594C396.748 162.594 394.908 163.104 393.238 164.125C391.599 165.115 390.285 166.46 389.295 168.161C388.336 169.831 387.857 171.686 387.857 173.727C387.857 175.737 388.336 177.593 389.295 179.294C390.285 180.995 391.599 182.355 393.238 183.376C394.908 184.365 396.748 184.86 398.758 184.86C399.686 184.86 400.706 184.767 401.82 184.582C402.933 184.396 403.845 184.149 404.556 183.84L404.139 185.231V177.299L404.928 177.995H399.779C398.975 177.995 398.294 177.732 397.738 177.206C397.212 176.681 396.949 176.016 396.949 175.212C396.949 174.408 397.212 173.743 397.738 173.217C398.294 172.691 398.975 172.428 399.779 172.428H407.386C408.19 172.428 408.855 172.707 409.381 173.263C409.907 173.789 410.169 174.454 410.169 175.258V185.092C410.169 185.711 410.015 186.221 409.706 186.623C409.427 187.025 409.102 187.35 408.731 187.597C407.309 188.463 405.747 189.159 404.046 189.685C402.376 190.179 400.614 190.427 398.758 190.427Z" fill="#333333"/>
<path d="M264.007 227.886C261.968 227.886 260.132 227.639 258.501 227.143C256.87 226.619 255.312 225.716 253.826 224.434C253.447 224.114 253.156 223.75 252.952 223.342C252.748 222.934 252.646 222.526 252.646 222.119C252.646 221.449 252.879 220.866 253.345 220.371C253.84 219.846 254.452 219.584 255.18 219.584C255.734 219.584 256.229 219.759 256.666 220.109C257.773 221.012 258.865 221.696 259.943 222.162C261.05 222.628 262.404 222.861 264.007 222.861C265.084 222.861 266.075 222.701 266.978 222.381C267.881 222.031 268.609 221.58 269.162 221.026C269.716 220.444 269.993 219.788 269.993 219.06C269.993 218.186 269.731 217.443 269.206 216.832C268.682 216.22 267.881 215.71 266.803 215.302C265.725 214.865 264.356 214.53 262.696 214.297C261.123 214.064 259.739 213.715 258.545 213.249C257.351 212.754 256.346 212.142 255.53 211.414C254.744 210.656 254.146 209.782 253.739 208.792C253.331 207.772 253.127 206.636 253.127 205.384C253.127 203.49 253.607 201.874 254.569 200.534C255.559 199.194 256.885 198.174 258.545 197.475C260.205 196.776 262.04 196.427 264.05 196.427C265.944 196.427 267.691 196.718 269.294 197.3C270.925 197.854 272.25 198.568 273.27 199.441C274.114 200.111 274.537 200.883 274.537 201.757C274.537 202.398 274.289 202.981 273.794 203.505C273.299 204.029 272.716 204.291 272.046 204.291C271.609 204.291 271.216 204.16 270.867 203.898C270.4 203.49 269.774 203.112 268.988 202.762C268.201 202.383 267.371 202.078 266.497 201.845C265.623 201.582 264.808 201.451 264.05 201.451C262.798 201.451 261.735 201.612 260.861 201.932C260.016 202.252 259.375 202.689 258.938 203.243C258.501 203.796 258.283 204.437 258.283 205.165C258.283 206.039 258.53 206.767 259.026 207.35C259.55 207.903 260.293 208.355 261.254 208.705C262.215 209.025 263.366 209.316 264.706 209.578C266.453 209.899 267.983 210.278 269.294 210.714C270.634 211.151 271.74 211.719 272.614 212.419C273.488 213.088 274.144 213.948 274.581 214.996C275.017 216.016 275.236 217.269 275.236 218.754C275.236 220.648 274.712 222.279 273.663 223.648C272.614 225.017 271.231 226.066 269.512 226.794C267.823 227.522 265.987 227.886 264.007 227.886ZM308.386 212.156C308.386 214.341 308.022 216.38 307.293 218.273C306.565 220.167 305.531 221.842 304.191 223.298C302.88 224.726 301.307 225.847 299.472 226.663C297.666 227.478 295.685 227.886 293.53 227.886C291.374 227.886 289.393 227.478 287.587 226.663C285.781 225.847 284.208 224.726 282.868 223.298C281.558 221.842 280.538 220.167 279.81 218.273C279.082 216.38 278.717 214.341 278.717 212.156C278.717 209.972 279.082 207.933 279.81 206.039C280.538 204.146 281.558 202.485 282.868 201.058C284.208 199.602 285.781 198.466 287.587 197.65C289.393 196.834 291.374 196.427 293.53 196.427C295.685 196.427 297.666 196.834 299.472 197.65C301.307 198.466 302.88 199.602 304.191 201.058C305.531 202.485 306.565 204.146 307.293 206.039C308.022 207.933 308.386 209.972 308.386 212.156ZM302.705 212.156C302.705 210.205 302.312 208.442 301.526 206.869C300.739 205.267 299.661 204 298.292 203.068C296.923 202.136 295.336 201.67 293.53 201.67C291.724 201.67 290.136 202.136 288.767 203.068C287.398 204 286.32 205.253 285.534 206.826C284.776 208.399 284.398 210.176 284.398 212.156C284.398 214.108 284.776 215.885 285.534 217.487C286.32 219.06 287.398 220.313 288.767 221.245C290.136 222.177 291.724 222.643 293.53 222.643C295.336 222.643 296.923 222.177 298.292 221.245C299.661 220.313 300.739 219.06 301.526 217.487C302.312 215.885 302.705 214.108 302.705 212.156ZM341.54 212.156C341.54 214.341 341.176 216.38 340.448 218.273C339.719 220.167 338.685 221.842 337.345 223.298C336.035 224.726 334.462 225.847 332.627 226.663C330.82 227.478 328.84 227.886 326.684 227.886C324.529 227.886 322.548 227.478 320.742 226.663C318.936 225.847 317.363 224.726 316.023 223.298C314.712 221.842 313.692 220.167 312.964 218.273C312.236 216.38 311.872 214.341 311.872 212.156C311.872 209.972 312.236 207.933 312.964 206.039C313.692 204.146 314.712 202.485 316.023 201.058C317.363 199.602 318.936 198.466 320.742 197.65C322.548 196.834 324.529 196.427 326.684 196.427C328.84 196.427 330.82 196.834 332.627 197.65C334.462 198.466 336.035 199.602 337.345 201.058C338.685 202.485 339.719 204.146 340.448 206.039C341.176 207.933 341.54 209.972 341.54 212.156ZM335.86 212.156C335.86 210.205 335.467 208.442 334.68 206.869C333.894 205.267 332.816 204 331.447 203.068C330.078 202.136 328.49 201.67 326.684 201.67C324.878 201.67 323.291 202.136 321.922 203.068C320.552 204 319.475 205.253 318.688 206.826C317.931 208.399 317.552 210.176 317.552 212.156C317.552 214.108 317.931 215.885 318.688 217.487C319.475 219.06 320.552 220.313 321.922 221.245C323.291 222.177 324.878 222.643 326.684 222.643C328.49 222.643 330.078 222.177 331.447 221.245C332.816 220.313 333.894 219.06 334.68 217.487C335.467 215.885 335.86 214.108 335.86 212.156ZM369.757 196.863C370.456 196.863 371.024 197.097 371.461 197.563C371.898 198.029 372.117 198.611 372.117 199.31V224.784C372.117 225.541 371.854 226.182 371.33 226.706C370.835 227.202 370.209 227.449 369.451 227.449C369.073 227.449 368.679 227.391 368.272 227.274C367.893 227.129 367.602 226.939 367.398 226.706L350.226 204.903L351.362 204.204V225.002C351.362 225.701 351.129 226.284 350.663 226.75C350.226 227.216 349.643 227.449 348.915 227.449C348.216 227.449 347.648 227.216 347.211 226.75C346.774 226.284 346.556 225.701 346.556 225.002V199.529C346.556 198.771 346.803 198.145 347.298 197.65C347.823 197.126 348.464 196.863 349.221 196.863C349.629 196.863 350.051 196.951 350.488 197.126C350.925 197.271 351.245 197.504 351.449 197.825L368.097 219.06L367.354 219.584V199.31C367.354 198.611 367.572 198.029 368.009 197.563C368.446 197.097 369.029 196.863 369.757 196.863Z" fill="#1ED2FF"/>
<path d="M258.501 227.143L258.211 228.048L258.218 228.05L258.225 228.052L258.501 227.143ZM253.826 224.434L254.446 223.715L254.439 223.709L253.826 224.434ZM253.345 220.371L252.655 219.719L252.654 219.72L253.345 220.371ZM256.666 220.109L257.266 219.373L257.259 219.367L256.666 220.109ZM259.943 222.162L259.566 223.034L259.574 223.038L259.943 222.162ZM266.978 222.381L267.295 223.276L267.308 223.271L267.321 223.267L266.978 222.381ZM269.162 221.026L269.834 221.698L269.843 221.689L269.851 221.68L269.162 221.026ZM269.206 216.832L269.927 216.213L269.927 216.213L269.206 216.832ZM266.803 215.302L266.446 216.183L266.456 216.187L266.467 216.191L266.803 215.302ZM262.696 214.297L262.557 215.237L262.564 215.238L262.696 214.297ZM258.545 213.249L258.181 214.126L258.19 214.13L258.2 214.134L258.545 213.249ZM255.53 211.414L254.871 212.098L254.884 212.11L254.897 212.122L255.53 211.414ZM253.739 208.792L252.857 209.145L252.86 209.154L253.739 208.792ZM254.569 200.534L253.805 199.969L253.797 199.98L254.569 200.534ZM258.545 197.475L258.913 198.351L258.913 198.351L258.545 197.475ZM269.294 197.3L268.969 198.193L268.979 198.197L268.988 198.2L269.294 197.3ZM273.27 199.441L272.652 200.163L272.665 200.174L272.679 200.186L273.27 199.441ZM273.794 203.505L274.485 204.157L274.485 204.157L273.794 203.505ZM270.867 203.898L270.241 204.613L270.268 204.637L270.297 204.658L270.867 203.898ZM268.988 202.762L268.576 203.618L268.589 203.624L268.602 203.63L268.988 202.762ZM266.497 201.845L266.224 202.754L266.238 202.759L266.252 202.762L266.497 201.845ZM260.861 201.932L260.534 201.04L260.524 201.044L260.861 201.932ZM259.026 207.35L258.302 207.965L258.318 207.985L258.336 208.003L259.026 207.35ZM261.254 208.705L260.929 209.597L260.941 209.602L260.954 209.606L261.254 208.705ZM264.706 209.578L264.523 210.511L264.534 210.513L264.706 209.578ZM269.294 210.714L268.993 211.616L268.999 211.618L269.294 210.714ZM272.614 212.419L272.021 213.16L272.029 213.166L272.036 213.172L272.614 212.419ZM274.581 214.996L273.704 215.362L273.707 215.371L274.581 214.996ZM273.663 223.648L272.909 223.07L272.909 223.07L273.663 223.648ZM269.512 226.794L269.141 225.919L269.136 225.922L269.512 226.794ZM264.007 226.936C262.043 226.936 260.303 226.698 258.777 226.234L258.225 228.052C259.961 228.579 261.892 228.836 264.007 228.836V226.936ZM258.792 226.239C257.298 225.759 255.849 224.926 254.446 223.715L253.205 225.154C254.774 226.506 256.442 227.479 258.211 228.048L258.792 226.239ZM254.439 223.709C254.15 223.465 253.943 223.2 253.802 222.917L252.102 223.767C252.369 224.299 252.744 224.763 253.212 225.159L254.439 223.709ZM253.802 222.917C253.656 222.626 253.596 222.362 253.596 222.119H251.696C251.696 222.69 251.84 223.243 252.102 223.767L253.802 222.917ZM253.596 222.119C253.596 221.695 253.734 221.344 254.037 221.022L252.654 219.72C252.024 220.388 251.696 221.203 251.696 222.119H253.596ZM254.036 221.023C254.35 220.691 254.711 220.534 255.18 220.534V218.634C254.194 218.634 253.331 219.002 252.655 219.719L254.036 221.023ZM255.18 220.534C255.516 220.534 255.802 220.634 256.073 220.85L257.259 219.367C256.656 218.884 255.952 218.634 255.18 218.634V220.534ZM256.066 220.845C257.226 221.792 258.393 222.527 259.566 223.034L260.32 221.29C259.338 220.866 258.32 220.232 257.266 219.373L256.066 220.845ZM259.574 223.038C260.83 223.566 262.318 223.811 264.007 223.811V221.912C262.491 221.912 261.27 221.69 260.312 221.287L259.574 223.038ZM264.007 223.811C265.179 223.811 266.279 223.637 267.295 223.276L266.66 221.486C265.871 221.766 264.99 221.912 264.007 221.912V223.811ZM267.321 223.267C268.319 222.88 269.168 222.364 269.834 221.698L268.491 220.355C268.05 220.795 267.443 221.182 266.635 221.495L267.321 223.267ZM269.851 221.68C270.553 220.941 270.943 220.058 270.943 219.06H269.043C269.043 219.519 268.878 219.946 268.474 220.372L269.851 221.68ZM270.943 219.06C270.943 217.98 270.612 217.012 269.927 216.213L268.485 217.45C268.849 217.874 269.043 218.392 269.043 219.06H270.943ZM269.927 216.213C269.264 215.44 268.306 214.855 267.139 214.414L266.467 216.191C267.456 216.565 268.099 217 268.485 217.45L269.927 216.213ZM267.16 214.422C265.986 213.946 264.535 213.596 262.828 213.357L262.564 215.238C264.178 215.465 265.465 215.785 266.446 216.183L267.16 214.422ZM262.835 213.358C261.316 213.133 260.004 212.799 258.89 212.364L258.2 214.134C259.474 214.631 260.929 214.996 262.557 215.237L262.835 213.358ZM258.909 212.371C257.795 211.91 256.886 211.351 256.163 210.705L254.897 212.122C255.805 212.933 256.906 213.597 258.181 214.126L258.909 212.371ZM256.189 210.729C255.495 210.061 254.974 209.297 254.617 208.43L252.86 209.154C253.319 210.268 253.992 211.251 254.871 212.098L256.189 210.729ZM254.62 208.439C254.263 207.546 254.077 206.532 254.077 205.384H252.177C252.177 206.74 252.398 207.998 252.857 209.145L254.62 208.439ZM254.077 205.384C254.077 203.659 254.512 202.243 255.341 201.087L253.797 199.98C252.703 201.505 252.177 203.322 252.177 205.384H254.077ZM255.333 201.098C256.213 199.907 257.397 198.989 258.913 198.351L258.176 196.6C256.372 197.36 254.905 198.481 253.805 199.969L255.333 201.098ZM258.913 198.351C260.444 197.706 262.152 197.376 264.05 197.376V195.477C261.928 195.477 259.966 195.846 258.176 196.6L258.913 198.351ZM264.05 197.376C265.845 197.376 267.482 197.652 268.969 198.193L269.618 196.408C267.901 195.783 266.042 195.477 264.05 195.477V197.376ZM268.988 198.2C270.536 198.725 271.746 199.386 272.652 200.163L273.888 198.72C272.754 197.749 271.314 196.983 269.599 196.401L268.988 198.2ZM272.679 200.186C273.356 200.722 273.587 201.241 273.587 201.757H275.487C275.487 200.526 274.873 199.501 273.86 198.697L272.679 200.186ZM273.587 201.757C273.587 202.125 273.455 202.481 273.103 202.853L274.485 204.157C275.124 203.48 275.487 202.672 275.487 201.757H273.587ZM273.103 202.853C272.772 203.203 272.433 203.342 272.046 203.342V205.241C272.999 205.241 273.825 204.855 274.485 204.157L273.103 202.853ZM272.046 203.342C271.815 203.342 271.622 203.277 271.436 203.138L270.297 204.658C270.811 205.044 271.404 205.241 272.046 205.241V203.342ZM271.492 203.183C270.932 202.694 270.216 202.269 269.373 201.894L268.602 203.63C269.333 203.955 269.869 204.287 270.241 204.613L271.492 203.183ZM269.4 201.906C268.558 201.501 267.671 201.175 266.742 200.927L266.252 202.762C267.071 202.981 267.845 203.266 268.576 203.618L269.4 201.906ZM266.77 200.935C265.825 200.651 264.917 200.501 264.05 200.501V202.401C264.699 202.401 265.421 202.514 266.224 202.754L266.77 200.935ZM264.05 200.501C262.722 200.501 261.542 200.671 260.534 201.04L261.188 202.824C261.928 202.552 262.873 202.401 264.05 202.401V200.501ZM260.524 201.044C259.563 201.408 258.762 201.933 258.193 202.654L259.684 203.831C259.988 203.446 260.469 203.096 261.198 202.82L260.524 201.044ZM258.193 202.654C257.619 203.381 257.333 204.231 257.333 205.165H259.233C259.233 204.643 259.384 204.211 259.684 203.831L258.193 202.654ZM257.333 205.165C257.333 206.23 257.64 207.187 258.302 207.965L259.749 206.735C259.421 206.348 259.233 205.848 259.233 205.165H257.333ZM258.336 208.003C258.99 208.694 259.875 209.214 260.929 209.597L261.578 207.812C260.711 207.496 260.109 207.113 259.715 206.697L258.336 208.003ZM260.954 209.606C261.964 209.942 263.156 210.243 264.523 210.511L264.888 208.646C263.575 208.389 262.466 208.107 261.554 207.803L260.954 209.606ZM264.534 210.513C266.25 210.827 267.735 211.196 268.993 211.616L269.594 209.813C268.231 209.359 266.657 208.97 264.877 208.644L264.534 210.513ZM268.999 211.618C270.258 212.028 271.256 212.548 272.021 213.16L273.208 211.677C272.225 210.891 271.01 210.275 269.588 209.811L268.999 211.618ZM272.036 213.172C272.774 213.738 273.329 214.461 273.704 215.362L275.457 214.631C274.959 213.434 274.202 212.439 273.192 211.665L272.036 213.172ZM273.707 215.371C274.08 216.239 274.286 217.356 274.286 218.754H276.186C276.186 217.181 275.955 215.793 275.454 214.622L273.707 215.371ZM274.286 218.754C274.286 220.46 273.818 221.883 272.909 223.07L274.417 224.225C275.605 222.674 276.186 220.835 276.186 218.754H274.286ZM272.909 223.07C271.968 224.298 270.722 225.25 269.141 225.919L269.883 227.668C271.74 226.881 273.26 225.736 274.417 224.225L272.909 223.07ZM269.136 225.922C267.574 226.595 265.868 226.936 264.007 226.936V228.836C266.107 228.836 268.071 228.449 269.888 227.666L269.136 225.922ZM307.293 218.273L306.407 217.933L306.407 217.933L307.293 218.273ZM304.191 223.298L303.492 222.655L303.491 222.656L304.191 223.298ZM299.472 226.663L299.086 225.795L299.081 225.797L299.472 226.663ZM287.587 226.663L287.978 225.797L287.978 225.797L287.587 226.663ZM282.868 223.298L282.162 223.934L282.169 223.941L282.176 223.948L282.868 223.298ZM279.81 218.273L280.696 217.933L280.696 217.933L279.81 218.273ZM279.81 206.039L280.696 206.38L280.696 206.38L279.81 206.039ZM282.868 201.058L282.169 200.415L282.169 200.416L282.868 201.058ZM287.587 197.65L287.978 198.516L287.978 198.516L287.587 197.65ZM299.472 197.65L299.081 198.516L299.086 198.518L299.472 197.65ZM304.191 201.058L303.485 201.694L303.492 201.701L303.498 201.708L304.191 201.058ZM307.293 206.039L306.407 206.38L306.407 206.38L307.293 206.039ZM301.526 206.869L300.673 207.288L300.676 207.294L301.526 206.869ZM298.292 203.068L298.827 202.283L298.827 202.283L298.292 203.068ZM288.767 203.068L289.302 203.853L289.302 203.853L288.767 203.068ZM285.534 206.826L284.684 206.401L284.681 206.407L284.678 206.414L285.534 206.826ZM285.534 217.487L284.675 217.893L284.679 217.902L284.684 217.912L285.534 217.487ZM288.767 221.245L289.302 220.46L289.302 220.46L288.767 221.245ZM298.292 221.245L298.827 222.03L298.827 222.03L298.292 221.245ZM301.526 217.487L302.375 217.912L302.378 217.906L301.526 217.487ZM307.436 212.156C307.436 214.233 307.09 216.156 306.407 217.933L308.18 218.614C308.953 216.604 309.335 214.449 309.335 212.156H307.436ZM306.407 217.933C305.72 219.717 304.749 221.289 303.492 222.655L304.89 223.941C306.313 222.395 307.41 220.617 308.18 218.614L306.407 217.933ZM303.491 222.656C302.272 223.984 300.807 225.03 299.086 225.795L299.858 227.531C301.808 226.664 303.489 225.467 304.891 223.941L303.491 222.656ZM299.081 225.797C297.408 226.552 295.562 226.936 293.53 226.936V228.836C295.808 228.836 297.924 228.404 299.863 227.528L299.081 225.797ZM293.53 226.936C291.497 226.936 289.651 226.552 287.978 225.797L287.196 227.528C289.136 228.404 291.251 228.836 293.53 228.836V226.936ZM287.978 225.797C286.285 225.032 284.814 223.983 283.561 222.648L282.176 223.948C283.602 225.468 285.278 226.662 287.196 227.528L287.978 225.797ZM283.574 222.663C282.344 221.296 281.384 219.721 280.696 217.933L278.923 218.614C279.692 220.612 280.771 222.388 282.162 223.934L283.574 222.663ZM280.696 217.933C280.013 216.156 279.667 214.233 279.667 212.156H277.768C277.768 214.449 278.15 216.604 278.923 218.614L280.696 217.933ZM279.667 212.156C279.667 210.079 280.013 208.157 280.696 206.38L278.923 205.698C278.15 207.709 277.768 209.864 277.768 212.156H279.667ZM280.696 206.38C281.384 204.593 282.342 203.036 283.568 201.701L282.169 200.416C280.774 201.935 279.692 203.699 278.923 205.698L280.696 206.38ZM283.567 201.701C284.821 200.339 286.289 199.279 287.978 198.516L287.196 196.784C285.274 197.653 283.596 198.864 282.169 200.415L283.567 201.701ZM287.978 198.516C289.651 197.76 291.497 197.376 293.53 197.376V195.477C291.251 195.477 289.136 195.908 287.196 196.784L287.978 198.516ZM293.53 197.376C295.562 197.376 297.408 197.76 299.081 198.516L299.863 196.784C297.924 195.908 295.808 195.477 293.53 195.477V197.376ZM299.086 198.518C300.803 199.281 302.266 200.339 303.485 201.694L304.897 200.423C303.495 198.865 301.812 197.65 299.858 196.782L299.086 198.518ZM303.498 201.708C304.751 203.043 305.721 204.597 306.407 206.38L308.18 205.698C307.409 203.694 306.311 201.928 304.884 200.408L303.498 201.708ZM306.407 206.38C307.09 208.157 307.436 210.079 307.436 212.156H309.335C309.335 209.864 308.953 207.709 308.18 205.698L306.407 206.38ZM303.655 212.156C303.655 210.074 303.235 208.163 302.375 206.445L300.676 207.294C301.39 208.721 301.756 210.336 301.756 212.156H303.655ZM302.378 206.451C301.525 204.713 300.342 203.315 298.827 202.283L297.758 203.853C298.98 204.686 299.953 205.822 300.673 207.288L302.378 206.451ZM298.827 202.283C297.286 201.234 295.508 200.72 293.53 200.72V202.62C295.163 202.62 296.561 203.038 297.758 203.853L298.827 202.283ZM293.53 200.72C291.551 200.72 289.773 201.234 288.232 202.283L289.302 203.853C290.499 203.038 291.896 202.62 293.53 202.62V200.72ZM288.232 202.283C286.721 203.312 285.539 204.692 284.684 206.401L286.383 207.25C287.102 205.813 288.075 204.688 289.302 203.853L288.232 202.283ZM284.678 206.414C283.851 208.131 283.448 210.052 283.448 212.156H285.348C285.348 210.299 285.702 208.666 286.39 207.238L284.678 206.414ZM283.448 212.156C283.448 214.234 283.852 216.152 284.675 217.893L286.392 217.081C285.701 215.618 285.348 213.982 285.348 212.156H283.448ZM284.684 217.912C285.539 219.621 286.721 221.001 288.232 222.03L289.302 220.46C288.075 219.624 287.102 218.499 286.383 217.062L284.684 217.912ZM288.232 222.03C289.773 223.079 291.551 223.593 293.53 223.593V221.693C291.896 221.693 290.499 221.275 289.302 220.46L288.232 222.03ZM293.53 223.593C295.508 223.593 297.286 223.079 298.827 222.03L297.758 220.46C296.561 221.275 295.163 221.693 293.53 221.693V223.593ZM298.827 222.03C300.338 221.001 301.521 219.621 302.375 217.912L300.676 217.062C299.957 218.499 298.984 219.624 297.758 220.46L298.827 222.03ZM302.378 217.906C303.235 216.161 303.655 214.239 303.655 212.156H301.756C301.756 213.977 301.39 215.608 300.673 217.068L302.378 217.906ZM340.448 218.273L339.561 217.933L339.561 217.933L340.448 218.273ZM337.345 223.298L336.646 222.655L336.646 222.656L337.345 223.298ZM332.627 226.663L332.241 225.795L332.236 225.797L332.627 226.663ZM320.742 226.663L321.133 225.797L321.133 225.797L320.742 226.663ZM316.023 223.298L315.317 223.934L315.323 223.941L315.33 223.948L316.023 223.298ZM312.964 218.273L313.851 217.933L313.851 217.933L312.964 218.273ZM312.964 206.039L313.851 206.38L313.851 206.38L312.964 206.039ZM316.023 201.058L315.324 200.415L315.323 200.416L316.023 201.058ZM320.742 197.65L321.133 198.516L321.133 198.516L320.742 197.65ZM332.627 197.65L332.236 198.516L332.241 198.518L332.627 197.65ZM337.345 201.058L336.639 201.694L336.646 201.701L336.653 201.708L337.345 201.058ZM340.448 206.039L339.561 206.38L339.561 206.38L340.448 206.039ZM334.68 206.869L333.827 207.288L333.831 207.294L334.68 206.869ZM331.447 203.068L331.981 202.283L331.981 202.283L331.447 203.068ZM321.922 203.068L322.456 203.853L322.456 203.853L321.922 203.068ZM318.688 206.826L317.839 206.401L317.835 206.407L317.832 206.414L318.688 206.826ZM318.688 217.487L317.829 217.893L317.834 217.902L317.839 217.912L318.688 217.487ZM321.922 221.245L322.456 220.46L322.456 220.46L321.922 221.245ZM331.447 221.245L331.981 222.03L331.981 222.03L331.447 221.245ZM334.68 217.487L335.53 217.912L335.533 217.906L334.68 217.487ZM340.59 212.156C340.59 214.233 340.244 216.156 339.561 217.933L341.334 218.614C342.107 216.604 342.49 214.449 342.49 212.156H340.59ZM339.561 217.933C338.875 219.717 337.903 221.289 336.646 222.655L338.044 223.941C339.467 222.395 340.564 220.617 341.334 218.614L339.561 217.933ZM336.646 222.656C335.426 223.984 333.961 225.03 332.241 225.795L333.012 227.531C334.962 226.664 336.643 225.467 338.045 223.941L336.646 222.656ZM332.236 225.797C330.563 226.552 328.717 226.936 326.684 226.936V228.836C328.963 228.836 331.078 228.404 333.017 227.528L332.236 225.797ZM326.684 226.936C324.651 226.936 322.805 226.552 321.133 225.797L320.351 227.528C322.29 228.404 324.406 228.836 326.684 228.836V226.936ZM321.133 225.797C319.439 225.032 317.969 223.983 316.715 222.648L315.33 223.948C316.757 225.468 318.433 226.662 320.351 227.528L321.133 225.797ZM316.729 222.663C315.498 221.296 314.539 219.721 313.851 217.933L312.078 218.614C312.846 220.612 313.926 222.388 315.317 223.934L316.729 222.663ZM313.851 217.933C313.168 216.156 312.822 214.233 312.822 212.156H310.922C310.922 214.449 311.305 216.604 312.078 218.614L313.851 217.933ZM312.822 212.156C312.822 210.079 313.168 208.157 313.851 206.38L312.078 205.698C311.305 207.709 310.922 209.864 310.922 212.156H312.822ZM313.851 206.38C314.538 204.593 315.496 203.036 316.722 201.701L315.323 200.416C313.928 201.935 312.847 203.699 312.078 205.698L313.851 206.38ZM316.722 201.701C317.975 200.339 319.443 199.279 321.133 198.516L320.351 196.784C318.428 197.653 316.751 198.864 315.324 200.415L316.722 201.701ZM321.133 198.516C322.805 197.76 324.651 197.376 326.684 197.376V195.477C324.406 195.477 322.29 195.908 320.351 196.784L321.133 198.516ZM326.684 197.376C328.717 197.376 330.563 197.76 332.236 198.516L333.017 196.784C331.078 195.908 328.963 195.477 326.684 195.477V197.376ZM332.241 198.518C333.957 199.281 335.42 200.339 336.639 201.694L338.051 200.423C336.649 198.865 334.966 197.65 333.012 196.782L332.241 198.518ZM336.653 201.708C337.906 203.043 338.875 204.597 339.561 206.38L341.334 205.698C340.564 203.694 339.465 201.928 338.038 200.408L336.653 201.708ZM339.561 206.38C340.244 208.157 340.59 210.079 340.59 212.156H342.49C342.49 209.864 342.107 207.709 341.334 205.698L339.561 206.38ZM336.81 212.156C336.81 210.074 336.389 208.163 335.53 206.445L333.831 207.294C334.544 208.721 334.91 210.336 334.91 212.156H336.81ZM335.533 206.451C334.68 204.713 333.497 203.315 331.981 202.283L330.912 203.853C332.135 204.686 333.108 205.822 333.827 207.288L335.533 206.451ZM331.981 202.283C330.44 201.234 328.663 200.72 326.684 200.72V202.62C328.318 202.62 329.715 203.038 330.912 203.853L331.981 202.283ZM326.684 200.72C324.705 200.72 322.928 201.234 321.387 202.283L322.456 203.853C323.653 203.038 325.051 202.62 326.684 202.62V200.72ZM321.387 202.283C319.876 203.312 318.693 204.692 317.839 206.401L319.538 207.25C320.256 205.813 321.229 204.688 322.456 203.853L321.387 202.283ZM317.832 206.414C317.005 208.131 316.602 210.052 316.602 212.156H318.502C318.502 210.299 318.856 208.666 319.544 207.238L317.832 206.414ZM316.602 212.156C316.602 214.234 317.006 216.152 317.829 217.893L319.547 217.081C318.855 215.618 318.502 213.982 318.502 212.156H316.602ZM317.839 217.912C318.693 219.621 319.876 221.001 321.387 222.03L322.456 220.46C321.229 219.624 320.256 218.499 319.538 217.062L317.839 217.912ZM321.387 222.03C322.928 223.079 324.705 223.593 326.684 223.593V221.693C325.051 221.693 323.653 221.275 322.456 220.46L321.387 222.03ZM326.684 223.593C328.663 223.593 330.44 223.079 331.981 222.03L330.912 220.46C329.715 221.275 328.318 221.693 326.684 221.693V223.593ZM331.981 222.03C333.493 221.001 334.675 219.621 335.53 217.912L333.831 217.062C333.112 218.499 332.139 219.624 330.912 220.46L331.981 222.03ZM335.533 217.906C336.389 216.161 336.81 214.239 336.81 212.156H334.91C334.91 213.977 334.544 215.608 333.827 217.068L335.533 217.906ZM371.461 197.563L370.768 198.212L370.768 198.212L371.461 197.563ZM371.33 226.706L372.002 227.378L372.002 227.378L371.33 226.706ZM368.272 227.274L367.931 228.161L367.97 228.176L368.011 228.188L368.272 227.274ZM367.398 226.706L366.651 227.294L366.667 227.313L366.683 227.332L367.398 226.706ZM350.226 204.903L349.728 204.094L348.82 204.653L349.48 205.491L350.226 204.903ZM351.362 204.204H352.312V202.504L350.864 203.395L351.362 204.204ZM350.663 226.75L349.991 226.078L349.98 226.089L349.97 226.1L350.663 226.75ZM347.298 197.65L346.627 196.978L346.627 196.978L347.298 197.65ZM350.488 197.126L350.135 198.008L350.161 198.018L350.188 198.027L350.488 197.126ZM351.449 197.825L350.648 198.335L350.673 198.374L350.702 198.411L351.449 197.825ZM368.097 219.06L368.645 219.836L369.46 219.26L368.844 218.474L368.097 219.06ZM367.354 219.584H366.404V221.417L367.902 220.36L367.354 219.584ZM368.009 197.563L368.702 198.212L368.702 198.212L368.009 197.563ZM369.757 197.813C370.221 197.813 370.529 197.957 370.768 198.212L372.154 196.913C371.52 196.236 370.691 195.914 369.757 195.914V197.813ZM370.768 198.212C371.024 198.485 371.167 198.828 371.167 199.31H373.066C373.066 198.395 372.772 197.572 372.154 196.913L370.768 198.212ZM371.167 199.31V224.784H373.066V199.31H371.167ZM371.167 224.784C371.167 225.295 371 225.693 370.658 226.035L372.002 227.378C372.708 226.671 373.066 225.787 373.066 224.784H371.167ZM370.658 226.035C370.357 226.336 369.979 226.499 369.451 226.499V228.399C370.438 228.399 371.313 228.067 372.002 227.378L370.658 226.035ZM369.451 226.499C369.171 226.499 368.865 226.456 368.532 226.361L368.011 228.188C368.493 228.326 368.974 228.399 369.451 228.399V226.499ZM368.612 226.388C368.335 226.281 368.188 226.167 368.112 226.081L366.683 227.332C367.015 227.711 367.451 227.977 367.931 228.161L368.612 226.388ZM368.144 226.119L350.972 204.315L349.48 205.491L366.651 227.294L368.144 226.119ZM350.724 205.712L351.86 205.013L350.864 203.395L349.728 204.094L350.724 205.712ZM350.412 204.204V225.002H352.312V204.204H350.412ZM350.412 225.002C350.412 225.467 350.268 225.802 349.991 226.078L351.335 227.422C351.99 226.766 352.312 225.936 352.312 225.002H350.412ZM349.97 226.1C349.738 226.347 349.421 226.499 348.915 226.499V228.399C349.866 228.399 350.713 228.085 351.356 227.4L349.97 226.1ZM348.915 226.499C348.451 226.499 348.143 226.356 347.904 226.1L346.518 227.4C347.153 228.077 347.981 228.399 348.915 228.399V226.499ZM347.904 226.1C347.648 225.828 347.506 225.485 347.506 225.002H345.606C345.606 225.918 345.9 226.74 346.518 227.4L347.904 226.1ZM347.506 225.002V199.529H345.606V225.002H347.506ZM347.506 199.529C347.506 199.001 347.668 198.623 347.97 198.322L346.627 196.978C345.938 197.667 345.606 198.542 345.606 199.529H347.506ZM347.97 198.322C348.312 197.98 348.709 197.813 349.221 197.813V195.914C348.218 195.914 347.333 196.272 346.627 196.978L347.97 198.322ZM349.221 197.813C349.491 197.813 349.794 197.871 350.135 198.008L350.841 196.244C350.309 196.031 349.767 195.914 349.221 195.914V197.813ZM350.188 198.027C350.463 198.119 350.585 198.235 350.648 198.335L352.251 197.315C351.906 196.774 351.387 196.424 350.788 196.225L350.188 198.027ZM350.702 198.411L367.349 219.646L368.844 218.474L352.197 197.239L350.702 198.411ZM367.549 218.284L366.806 218.808L367.902 220.36L368.645 219.836L367.549 218.284ZM368.304 219.584V199.31H366.404V219.584H368.304ZM368.304 199.31C368.304 198.828 368.447 198.485 368.702 198.212L367.316 196.913C366.698 197.572 366.404 198.395 366.404 199.31H368.304ZM368.702 198.212C368.934 197.965 369.251 197.813 369.757 197.813V195.914C368.807 195.914 367.959 196.228 367.316 196.913L368.702 198.212Z" fill="#333333"/>
<path d="M258.673 266.347C257.894 266.347 257.192 266.252 256.569 266.063C255.945 265.862 255.349 265.517 254.781 265.027C254.637 264.905 254.525 264.765 254.447 264.61C254.369 264.454 254.33 264.298 254.33 264.142C254.33 263.886 254.419 263.663 254.598 263.474C254.787 263.273 255.021 263.173 255.299 263.173C255.511 263.173 255.7 263.24 255.867 263.373C256.29 263.719 256.708 263.98 257.12 264.159C257.543 264.337 258.061 264.426 258.673 264.426C259.085 264.426 259.464 264.365 259.809 264.242C260.154 264.108 260.433 263.936 260.644 263.724C260.856 263.501 260.962 263.251 260.962 262.973C260.962 262.638 260.862 262.354 260.661 262.121C260.461 261.887 260.154 261.692 259.742 261.536C259.33 261.369 258.807 261.241 258.172 261.152C257.571 261.063 257.042 260.929 256.585 260.751C256.129 260.562 255.745 260.328 255.433 260.049C255.132 259.76 254.904 259.426 254.748 259.047C254.592 258.657 254.514 258.223 254.514 257.744C254.514 257.02 254.698 256.402 255.065 255.89C255.444 255.378 255.951 254.988 256.585 254.721C257.22 254.453 257.922 254.32 258.69 254.32C259.414 254.32 260.082 254.431 260.694 254.654C261.318 254.866 261.825 255.138 262.215 255.472C262.538 255.729 262.699 256.024 262.699 256.358C262.699 256.603 262.604 256.825 262.415 257.026C262.226 257.226 262.003 257.327 261.747 257.327C261.58 257.327 261.429 257.276 261.296 257.176C261.118 257.02 260.878 256.876 260.578 256.742C260.277 256.597 259.96 256.48 259.625 256.391C259.291 256.291 258.98 256.241 258.69 256.241C258.211 256.241 257.805 256.302 257.471 256.425C257.148 256.547 256.903 256.714 256.736 256.926C256.569 257.137 256.485 257.382 256.485 257.661C256.485 257.995 256.58 258.273 256.769 258.496C256.97 258.707 257.253 258.88 257.621 259.014C257.988 259.136 258.428 259.248 258.941 259.348C259.609 259.47 260.193 259.615 260.694 259.782C261.207 259.949 261.63 260.166 261.964 260.434C262.298 260.69 262.549 261.018 262.716 261.419C262.883 261.809 262.966 262.288 262.966 262.856C262.966 263.579 262.766 264.203 262.365 264.726C261.964 265.25 261.435 265.651 260.778 265.929C260.132 266.208 259.431 266.347 258.673 266.347ZM268.841 266.18C268.529 266.18 268.273 266.085 268.072 265.896C267.872 265.695 267.772 265.45 267.772 265.161V255.472H269.943V265.161C269.943 265.45 269.837 265.695 269.626 265.896C269.425 266.085 269.164 266.18 268.841 266.18ZM265.149 256.408C264.86 256.408 264.615 256.319 264.414 256.141C264.225 255.962 264.13 255.729 264.13 255.439C264.13 255.149 264.225 254.921 264.414 254.754C264.615 254.576 264.86 254.487 265.149 254.487H272.566C272.855 254.487 273.095 254.576 273.284 254.754C273.484 254.932 273.585 255.166 273.585 255.456C273.585 255.745 273.484 255.979 273.284 256.157C273.095 256.324 272.855 256.408 272.566 256.408H265.149ZM278.799 257.109L275.191 265.595C275.113 265.807 274.991 265.974 274.824 266.096C274.668 266.208 274.495 266.263 274.306 266.263C274.005 266.263 273.782 266.18 273.638 266.013C273.493 265.846 273.42 265.64 273.42 265.395C273.42 265.294 273.437 265.189 273.471 265.077L277.63 255.088C277.719 254.866 277.853 254.693 278.031 254.57C278.22 254.448 278.421 254.398 278.632 254.42C278.833 254.42 279.016 254.481 279.183 254.604C279.362 254.715 279.49 254.877 279.568 255.088L283.677 264.877C283.732 265.022 283.76 265.155 283.76 265.278C283.76 265.578 283.66 265.818 283.46 265.996C283.27 266.174 283.059 266.263 282.825 266.263C282.624 266.263 282.441 266.202 282.274 266.079C282.118 265.957 281.995 265.79 281.906 265.578L278.315 257.21L278.799 257.109ZM275.709 263.557L276.628 261.636H281.138L281.455 263.557H275.709ZM291.907 254.437C292.163 254.437 292.391 254.537 292.592 254.737C292.803 254.927 292.909 255.172 292.909 255.472C292.909 255.573 292.892 255.678 292.859 255.79C292.837 255.89 292.792 255.99 292.725 256.09L288.934 261.519L289.234 260.367V265.161C289.234 265.45 289.134 265.695 288.934 265.896C288.744 266.085 288.521 266.18 288.265 266.18C287.987 266.18 287.748 266.085 287.547 265.896C287.358 265.695 287.263 265.45 287.263 265.161V260.5L287.397 261.035L283.789 256.241C283.677 256.096 283.599 255.957 283.555 255.823C283.51 255.69 283.488 255.567 283.488 255.456C283.488 255.155 283.605 254.91 283.839 254.721C284.073 254.531 284.312 254.437 284.557 254.437C284.869 254.437 285.142 254.593 285.376 254.904L288.583 259.331L288.115 259.264L291.072 254.938C291.305 254.604 291.584 254.437 291.907 254.437ZM303.048 266.18C302.736 266.18 302.48 266.085 302.28 265.896C302.079 265.695 301.979 265.45 301.979 265.161V255.472H304.15V265.161C304.15 265.45 304.045 265.695 303.833 265.896C303.633 266.085 303.371 266.18 303.048 266.18ZM299.356 256.408C299.067 256.408 298.822 256.319 298.621 256.141C298.432 255.962 298.337 255.729 298.337 255.439C298.337 255.149 298.432 254.921 298.621 254.754C298.822 254.576 299.067 254.487 299.356 254.487H306.773C307.063 254.487 307.302 254.576 307.491 254.754C307.692 254.932 307.792 255.166 307.792 255.456C307.792 255.745 307.692 255.979 307.491 256.157C307.302 256.324 307.063 256.408 306.773 256.408H299.356ZM317.847 254.47C318.137 254.47 318.371 254.57 318.549 254.771C318.727 254.96 318.816 255.2 318.816 255.489V261.536C318.816 262.46 318.616 263.279 318.215 263.991C317.825 264.704 317.285 265.261 316.595 265.662C315.904 266.063 315.102 266.263 314.189 266.263C313.276 266.263 312.469 266.063 311.767 265.662C311.077 265.261 310.531 264.704 310.13 263.991C309.74 263.279 309.545 262.46 309.545 261.536V255.489C309.545 255.2 309.646 254.96 309.846 254.771C310.047 254.57 310.303 254.47 310.615 254.47C310.871 254.47 311.099 254.57 311.299 254.771C311.511 254.96 311.617 255.2 311.617 255.489V261.536C311.617 262.093 311.734 262.577 311.968 262.989C312.213 263.39 312.53 263.702 312.92 263.925C313.321 264.147 313.744 264.259 314.189 264.259C314.668 264.259 315.113 264.147 315.526 263.925C315.938 263.702 316.272 263.39 316.528 262.989C316.784 262.577 316.912 262.093 316.912 261.536V255.489C316.912 255.2 316.995 254.96 317.162 254.771C317.33 254.57 317.558 254.47 317.847 254.47ZM330.193 254.487C330.46 254.487 330.677 254.576 330.844 254.754C331.011 254.932 331.095 255.155 331.095 255.422V265.161C331.095 265.45 330.995 265.695 330.794 265.896C330.605 266.085 330.366 266.18 330.076 266.18C329.931 266.18 329.781 266.157 329.625 266.113C329.48 266.057 329.369 265.985 329.291 265.896L322.726 257.56L323.161 257.293V265.244C323.161 265.512 323.071 265.734 322.893 265.912C322.726 266.091 322.504 266.18 322.225 266.18C321.958 266.18 321.741 266.091 321.574 265.912C321.407 265.734 321.323 265.512 321.323 265.244V255.506C321.323 255.216 321.418 254.977 321.607 254.788C321.808 254.587 322.053 254.487 322.342 254.487C322.498 254.487 322.659 254.52 322.826 254.587C322.993 254.643 323.116 254.732 323.194 254.854L329.558 262.973L329.274 263.173V255.422C329.274 255.155 329.358 254.932 329.525 254.754C329.692 254.576 329.915 254.487 330.193 254.487ZM334.625 254.487H340.221C340.511 254.487 340.75 254.582 340.939 254.771C341.14 254.949 341.24 255.183 341.24 255.472C341.24 255.751 341.14 255.979 340.939 256.157C340.75 256.324 340.511 256.408 340.221 256.408H335.544L335.694 256.124V259.381L335.561 259.248H339.47C339.759 259.248 339.998 259.342 340.188 259.531C340.388 259.71 340.488 259.944 340.488 260.233C340.488 260.511 340.388 260.74 340.188 260.918C339.998 261.085 339.759 261.168 339.47 261.168H335.611L335.694 261.035V264.409L335.561 264.259H340.221C340.511 264.259 340.75 264.359 340.939 264.559C341.14 264.749 341.24 264.971 341.24 265.228C341.24 265.506 341.14 265.734 340.939 265.912C340.75 266.091 340.511 266.18 340.221 266.18H334.625C334.336 266.18 334.091 266.085 333.89 265.896C333.701 265.695 333.606 265.45 333.606 265.161V255.506C333.606 255.216 333.701 254.977 333.89 254.788C334.091 254.587 334.336 254.487 334.625 254.487ZM348.177 254.487C348.979 254.487 349.691 254.637 350.315 254.938C350.938 255.239 351.462 255.662 351.885 256.207C352.319 256.742 352.642 257.366 352.854 258.078C353.077 258.78 353.188 259.531 353.188 260.333C353.188 261.413 352.993 262.399 352.603 263.29C352.214 264.17 351.646 264.871 350.899 265.395C350.165 265.918 349.257 266.18 348.177 266.18H344.184C343.895 266.18 343.65 266.085 343.45 265.896C343.26 265.695 343.166 265.45 343.166 265.161V255.506C343.166 255.216 343.26 254.977 343.45 254.788C343.65 254.587 343.895 254.487 344.184 254.487H348.177ZM348.01 264.259C348.711 264.259 349.285 264.081 349.73 263.724C350.176 263.357 350.499 262.878 350.699 262.288C350.911 261.686 351.016 261.035 351.016 260.333C351.016 259.81 350.955 259.314 350.833 258.847C350.721 258.368 350.543 257.95 350.298 257.594C350.053 257.226 349.741 256.937 349.363 256.725C348.984 256.514 348.533 256.408 348.01 256.408H345.086L345.254 256.258V264.442L345.153 264.259H348.01ZM356.092 262.488C355.713 262.488 355.507 262.277 355.474 261.853L354.989 255.706C354.967 255.361 355.056 255.072 355.257 254.838C355.468 254.604 355.741 254.487 356.075 254.487C356.409 254.487 356.682 254.604 356.894 254.838C357.105 255.072 357.194 255.361 357.161 255.706L356.693 261.853C356.66 262.277 356.459 262.488 356.092 262.488ZM355.975 266.18C355.652 266.18 355.401 266.096 355.223 265.929C355.056 265.751 354.973 265.5 354.973 265.177V264.893C354.973 264.571 355.056 264.326 355.223 264.159C355.401 263.98 355.652 263.891 355.975 263.891H356.192C356.515 263.891 356.76 263.98 356.927 264.159C357.105 264.326 357.194 264.571 357.194 264.893V265.177C357.194 265.5 357.105 265.751 356.927 265.929C356.76 266.096 356.515 266.18 356.192 266.18H355.975Z" fill="#333333"/>
<path d="M255.689 249.156H396.08" stroke="#333333" stroke-width="1.5456" stroke-miterlimit="10" stroke-linecap="round"/>
<path d="M255.689 270.502H396.08" stroke="#333333" stroke-width="1.5456" stroke-miterlimit="10" stroke-linecap="round"/>
<path d="M454.148 260.721V271.176" stroke="#333333" stroke-width="2.7226" stroke-miterlimit="10" stroke-linecap="round"/>
<path d="M459.376 265.947H448.922" stroke="#333333" stroke-width="2.7226" stroke-miterlimit="10" stroke-linecap="round"/>
<path d="M481.096 202.762V213.217" stroke="#333333" stroke-width="2.7226" stroke-miterlimit="10" stroke-linecap="round"/>
<path d="M486.322 207.988H475.867" stroke="#333333" stroke-width="2.7226" stroke-miterlimit="10" stroke-linecap="round"/>
<path d="M429.979 299.031V309.486" stroke="#333333" stroke-width="2.7226" stroke-miterlimit="10" stroke-linecap="round"/>
<path d="M435.205 304.26H424.75" stroke="#333333" stroke-width="2.7226" stroke-miterlimit="10" stroke-linecap="round"/>
<path d="M233.76 329.443L231.291 331.912" stroke="#333333" stroke-width="2.7226" stroke-miterlimit="10" stroke-linecap="round"/>
<path d="M225.183 331.898L222.713 329.428" stroke="#333333" stroke-width="2.7226" stroke-miterlimit="10" stroke-linecap="round"/>
<path d="M222.713 340.475L225.183 338.006" stroke="#333333" stroke-width="2.7226" stroke-miterlimit="10" stroke-linecap="round"/>
<path d="M231.291 338.021L233.76 340.491" stroke="#333333" stroke-width="2.7226" stroke-miterlimit="10" stroke-linecap="round"/>
<path d="M424.731 85.3965L422.262 87.8655" stroke="#333333" stroke-width="2.7226" stroke-miterlimit="10" stroke-linecap="round"/>
<path d="M416.154 87.8509L413.684 85.3809" stroke="#333333" stroke-width="2.7226" stroke-miterlimit="10" stroke-linecap="round"/>
<path d="M413.684 96.428L416.154 93.959" stroke="#333333" stroke-width="2.7226" stroke-miterlimit="10" stroke-linecap="round"/>
<path d="M422.262 93.9746L424.731 96.4446" stroke="#333333" stroke-width="2.7226" stroke-miterlimit="10" stroke-linecap="round"/>
<path d="M456.763 291.939H451.535" stroke="#333333" stroke-width="2.7226" stroke-miterlimit="10" stroke-linecap="round"/>
<path d="M483.71 237.934H478.482" stroke="#333333" stroke-width="2.7226" stroke-miterlimit="10" stroke-linecap="round"/>
<path d="M428.347 330.596H427.012" stroke="#333333" stroke-width="2.7226" stroke-miterlimit="10" stroke-linecap="round"/>
<path d="M408.187 340.914H406.852" stroke="#333333" stroke-width="2.7226" stroke-miterlimit="10" stroke-linecap="round"/>
<path d="M256.355 347.584H255.021" stroke="#333333" stroke-width="2.7226" stroke-miterlimit="10" stroke-linecap="round"/>
<path d="M196.04 343.781H194.705" stroke="#333333" stroke-width="2.7226" stroke-miterlimit="10" stroke-linecap="round"/>
<path d="M449.589 85.3809H448.254" stroke="#333333" stroke-width="2.7226" stroke-miterlimit="10" stroke-linecap="round"/>
<path d="M460.044 71.3262H458.709" stroke="#333333" stroke-width="2.7226" stroke-miterlimit="10" stroke-linecap="round"/>
<path d="M476.536 184.205H475.201" stroke="#333333" stroke-width="2.7226" stroke-miterlimit="10" stroke-linecap="round"/>
<path d="M468.249 249.576H466.914" stroke="#333333" stroke-width="2.7226" stroke-miterlimit="10" stroke-linecap="round"/>
<path d="M188.725 123.555V134.01" stroke="#333333" stroke-width="2.7226" stroke-miterlimit="10" stroke-linecap="round"/>
<path d="M193.951 128.783H183.496" stroke="#333333" stroke-width="2.7226" stroke-miterlimit="10" stroke-linecap="round"/>
<path d="M164.553 161.867V172.322" stroke="#333333" stroke-width="2.7226" stroke-miterlimit="10" stroke-linecap="round"/>
<path d="M169.779 167.094H159.324" stroke="#333333" stroke-width="2.7226" stroke-miterlimit="10" stroke-linecap="round"/>
<path d="M191.337 154.775H186.109" stroke="#333333" stroke-width="2.7226" stroke-miterlimit="10" stroke-linecap="round"/>
<path d="M218.284 100.77H213.057" stroke="#333333" stroke-width="2.7226" stroke-miterlimit="10" stroke-linecap="round"/>
<path d="M162.921 193.432H161.586" stroke="#333333" stroke-width="2.7226" stroke-miterlimit="10" stroke-linecap="round"/>
<path d="M233.751 81.8438H232.416" stroke="#333333" stroke-width="2.7226" stroke-miterlimit="10" stroke-linecap="round"/>
<path d="M486.874 272.592H478.608L474.475 279.75L478.608 286.909H486.874L491.007 279.75L486.874 272.592Z" fill="#1778FF"/>
<path d="M166.909 99.1133H158.643L154.51 106.272L158.643 113.43H166.909L171.042 106.272L166.909 99.1133Z" fill="#1778FF"/>
<path d="M582.435 341.699H578.302L576.236 345.278L578.302 348.857H582.435L584.502 345.278L582.435 341.699Z" fill="#1ED2FF"/>
<path d="M120.025 70.0391H115.892L113.826 73.6181L115.892 77.1971H120.025L122.092 73.6181L120.025 70.0391Z" fill="#1ED2FF"/>
<path d="M519.318 290.154H494.935L482.744 311.27L494.935 332.386H519.318L531.509 311.27L519.318 290.154Z" fill="#1ED2FF"/>
<path d="M138.946 125.678H114.563L102.371 146.794L114.563 167.91H138.946L151.137 146.794L138.946 125.678Z" fill="#1ED2FF"/>
<path d="M540.465 279.668L537.996 282.137" stroke="#333333" stroke-width="2.7226" stroke-miterlimit="10" stroke-linecap="round"/>
<path d="M531.888 282.122L529.418 279.652" stroke="#333333" stroke-width="2.7226" stroke-miterlimit="10" stroke-linecap="round"/>
<path d="M529.418 290.699L531.888 288.229" stroke="#333333" stroke-width="2.7226" stroke-miterlimit="10" stroke-linecap="round"/>
<path d="M537.996 288.244L540.465 290.714" stroke="#333333" stroke-width="2.7226" stroke-miterlimit="10" stroke-linecap="round"/>
<path d="M98.9924 100.742L96.5234 103.212" stroke="#333333" stroke-width="2.7226" stroke-miterlimit="10" stroke-linecap="round"/>
<path d="M90.4153 103.196L87.9453 100.727" stroke="#333333" stroke-width="2.7226" stroke-miterlimit="10" stroke-linecap="round"/>
<path d="M87.9453 111.773L90.4153 109.303" stroke="#333333" stroke-width="2.7226" stroke-miterlimit="10" stroke-linecap="round"/>
<path d="M96.5234 109.318L98.9924 111.787" stroke="#333333" stroke-width="2.7226" stroke-miterlimit="10" stroke-linecap="round"/>
<path d="M81.7784 57.8086H80.4434" stroke="#333333" stroke-width="2.7226" stroke-miterlimit="10" stroke-linecap="round"/>
<path d="M558.945 320.549H557.611" stroke="#333333" stroke-width="2.7226" stroke-miterlimit="10" stroke-linecap="round"/>
<path d="M585.169 368.627H583.834" stroke="#333333" stroke-width="2.7226" stroke-miterlimit="10" stroke-linecap="round"/>
<path d="M202.821 112.41H201.486" stroke="#333333" stroke-width="2.7226" stroke-miterlimit="10" stroke-linecap="round"/>
<path d="M195.374 232.832L125.809 268.689" stroke="#333333" stroke-width="2.7226" stroke-miterlimit="10" stroke-linecap="round"/>
<path d="M567.732 40.6992L544.395 52.7932" stroke="#333333" stroke-width="2.7226" stroke-miterlimit="10" stroke-linecap="round"/>
<path d="M525.554 62.5566L458.836 97.1316" stroke="#333333" stroke-width="2.7226" stroke-miterlimit="10" stroke-linecap="round"/>
<path d="M446.547 103.498L413.684 120.528" stroke="#333333" stroke-width="2.7226" stroke-miterlimit="10" stroke-linecap="round"/>
<path d="M78.875 312.604L60.082 322.29" stroke="#333333" stroke-width="2.7226" stroke-miterlimit="10" stroke-linecap="round"/>
<path d="M204.15 248.035L102.922 300.208" stroke="#333333" stroke-width="2.7226" stroke-miterlimit="10" stroke-linecap="round"/>
<path d="M624.401 31.0586L422.461 135.733" stroke="#333333" stroke-width="2.7226" stroke-miterlimit="10" stroke-linecap="round"/>
<path d="M223.101 280.857L29.8887 380.424" stroke="#333333" stroke-width="2.7226" stroke-miterlimit="10" stroke-linecap="round"/>
<path d="M556.765 108.723L535.078 119.972" stroke="#333333" stroke-width="2.7226" stroke-miterlimit="10" stroke-linecap="round"/>
<path d="M524.132 125.648L441.41 168.554" stroke="#333333" stroke-width="2.7226" stroke-miterlimit="10" stroke-linecap="round"/>
<path d="M210.522 259.072L163.568 283.271" stroke="#333333" stroke-width="2.7226" stroke-miterlimit="10" stroke-linecap="round"/>
<path d="M578.832 69.002L520.314 99.34" stroke="#333333" stroke-width="2.7226" stroke-miterlimit="10" stroke-linecap="round"/>
<path d="M621.623 355.436L598.285 367.529" stroke="#333333" stroke-width="2.7226" stroke-miterlimit="10" stroke-linecap="round"/>
<path d="M25.2901 22.6992L1.95312 34.7932" stroke="#333333" stroke-width="2.7226" stroke-miterlimit="10" stroke-linecap="round"/>
<path d="M650.048 360.434L546.561 414.076" stroke="#333333" stroke-width="2.7226" stroke-miterlimit="10" stroke-linecap="round"/>
<path d="M604.856 398.186L574.207 414.076" stroke="#333333" stroke-width="2.7226" stroke-miterlimit="10" stroke-linecap="round"/>
<path d="M105.44 1.92578L1.95312 55.5678" stroke="#333333" stroke-width="2.7226" stroke-miterlimit="10" stroke-linecap="round"/>
<path d="M60.2486 39.6777L29.5996 55.5677" stroke="#333333" stroke-width="2.7226" stroke-miterlimit="10" stroke-linecap="round"/>
<path d="M90.566 371.586L84.041 374.948" stroke="#333333" stroke-width="2.7226" stroke-miterlimit="10" stroke-linecap="round"/>
<path d="M127.414 352.6L107.096 363.07" stroke="#333333" stroke-width="2.7226" stroke-miterlimit="10" stroke-linecap="round"/>
<path d="M233.082 298.148L144.523 343.781" stroke="#333333" stroke-width="2.7226" stroke-miterlimit="10" stroke-linecap="round"/>
<path d="M529.475 145.33L516.58 152.021" stroke="#333333" stroke-width="2.7226" stroke-miterlimit="10" stroke-linecap="round"/>
<path d="M557.726 130.672L553.16 133.04" stroke="#333333" stroke-width="2.7226" stroke-miterlimit="10" stroke-linecap="round"/>
<path d="M501.001 160.105L451.395 185.844" stroke="#333333" stroke-width="2.7226" stroke-miterlimit="10" stroke-linecap="round"/>
<path d="M228.236 289.752L172.23 318.612" stroke="#333333" stroke-width="2.7226" stroke-miterlimit="10" stroke-linecap="round"/>
<path d="M513.408 142.764L446.547 177.449" stroke="#333333" stroke-width="2.7226" stroke-miterlimit="10" stroke-linecap="round"/>
<path d="M322.286 62.0914L329.517 49.5664H315.055L322.286 62.0914Z" stroke="#333333" stroke-width="2.7226" stroke-miterlimit="10" stroke-linecap="round"/>
<path d="M315.141 342.447L311.398 356.416L325.367 352.673L315.141 342.447Z" stroke="#333333" stroke-width="2.7226" stroke-miterlimit="10" stroke-linecap="round"/>
<path d="M341.604 58.6906L353.593 37.9246L339.471 34.8066L341.604 58.6906Z" fill="#333333"/>
<path d="M300.192 346.133L292.961 368.995H307.423L300.192 346.133Z" fill="#333333"/>
<path d="M288.026 345.363L276.225 357.164L285.157 361.804L288.026 345.363Z" stroke="#333333" stroke-width="2.7226" stroke-miterlimit="10" stroke-linecap="round"/>
<path d="M517.34 199.916L529.159 204.034L532.661 192.02L544.478 196.139L547.979 184.125L559.796 188.244L563.299 176.229L575.121 180.346L578.624 168.33L590.448 172.446L593.957 160.428" stroke="#333333" stroke-width="2.7226" stroke-miterlimit="10" stroke-linecap="round"/>
<path d="M108.215 247.722L120.032 251.842L123.535 239.826L135.356 243.943L138.86 231.928L150.684 236.043L154.193 224.025" stroke="#333333" stroke-width="2.7226" stroke-miterlimit="10" stroke-linecap="round"/>
<path d="M360.195 87.7969H331.824" stroke="#333333" stroke-width="1.8246" stroke-miterlimit="10" stroke-linecap="round"/>
<path d="M342.537 75.1934H293.236" stroke="#333333" stroke-width="1.8246" stroke-miterlimit="10" stroke-linecap="round"/>
<path d="M224.61 263.203L191.84 206.443" stroke="#333333" stroke-width="1.8246" stroke-miterlimit="10" stroke-linecap="round"/>
<path d="M396.668 304.26L421.919 260.525" stroke="#333333" stroke-width="1.8246" stroke-miterlimit="10" stroke-linecap="round"/>
<path d="M436.297 269.902L461.548 226.168" stroke="#333333" stroke-width="1.8246" stroke-miterlimit="10" stroke-linecap="round"/>
<path d="M389.148 317.284L393.65 309.486" stroke="#333333" stroke-width="1.8246" stroke-miterlimit="10" stroke-linecap="round"/>
</svg>
